<svg width="17" height="20" viewBox="0 0 17 20" fill="none" xmlns="http://www.w3.org/2000/svg">
<path d="M1.31075 18.1871H1.85954V6.73975H4.05468V18.1871H5.70104V9.60157H7.89618V18.1871H9.54254V12.4634H11.7377V18.1871H13.384V15.3252H15.5792V18.1871H16.128C16.4311 18.1871 16.6768 18.4433 16.6768 18.7594C16.6768 19.0755 16.4311 19.3318 16.128 19.3318H1.31075C1.00767 19.3318 0.761965 19.0755 0.761965 18.7594C0.761965 18.4433 1.00767 18.1871 1.31075 18.1871Z" fill="#027BFE"/>
<path opacity="0.4" d="M15.2725 13.4856C15.1549 13.4856 15.0404 13.4455 14.9462 13.3712L2.87296 3.33534L3.00893 4.85073C3.02409 5.00255 2.9809 5.15444 2.88897 5.27259C2.79704 5.39073 2.664 5.46533 2.51947 5.47976H2.46508C2.18475 5.48123 1.94928 5.2584 1.92124 4.9651L1.62213 1.59121L4.83079 0.904992C5.13115 0.841828 5.42333 1.04665 5.4834 1.36247C5.54347 1.67829 5.34868 1.98552 5.04833 2.04868L3.47119 2.39179L15.5988 12.4563C15.7861 12.604 15.8625 12.8611 15.7885 13.0946C15.7144 13.3281 15.5066 13.4856 15.2725 13.4856Z" fill="#027BFE"/>
</svg>
