<svg width="60" height="43" viewBox="0 0 60 43" fill="none" xmlns="http://www.w3.org/2000/svg">
<path d="M37.3478 13.6067V18.2118H40.8949V20.7253H37.3478V32.5195C37.3478 33.2811 37.5058 33.8553 37.8219 34.242C38.138 34.617 38.6765 34.8045 39.4374 34.8045C39.812 34.8045 40.3271 34.7342 40.9827 34.5935V37.2301C40.1281 37.4645 39.297 37.5816 38.4892 37.5816C37.0376 37.5816 35.943 37.1422 35.2055 36.2634C34.468 35.3845 34.0992 34.1365 34.0992 32.5195V20.7253H30.6399V18.2118H34.0992V13.6067H37.3478Z" fill="black"/>
<path d="M52.5897 37.5816C50.0143 37.5816 47.9188 36.7379 46.3033 35.0505C44.6878 33.3514 43.8801 31.084 43.8801 28.2483V27.6506C43.8801 25.7641 44.2371 24.0825 44.9512 22.6061C45.677 21.1179 46.6838 19.9578 47.9715 19.1258C49.2709 18.2821 50.6757 17.8603 52.1859 17.8603C54.656 17.8603 56.5758 18.6747 57.9455 20.3035C59.3152 21.9323 60 24.2642 60 27.2991V28.6525H47.1286C47.1755 30.5274 47.7198 32.0449 48.7617 33.205C49.8153 34.3533 51.1498 34.9275 52.7653 34.9275C53.9126 34.9275 54.8842 34.6931 55.6803 34.2244C56.4763 33.7557 57.1729 33.1347 57.7699 32.3613L59.7542 33.908C58.1621 36.3571 55.7739 37.5816 52.5897 37.5816ZM52.1859 20.532C50.8747 20.532 49.7743 21.0124 48.8846 21.9733C47.9949 22.9224 47.4447 24.2583 47.234 25.9808H56.7514V25.7348C56.6578 24.0825 56.2129 22.8053 55.4169 21.903C54.6208 20.989 53.5438 20.532 52.1859 20.532Z" fill="black"/>
<path d="M16.0354 33.3449C15.1731 33.8429 14.2611 34.0919 13.2993 34.0919C12.2933 34.0919 11.4697 33.8207 10.8285 33.2785C10.1873 32.7363 9.86665 31.9838 9.86665 31.0211C9.86665 28.8189 11.746 27.7179 15.5048 27.7179H17.9093V31.4028C17.5224 32.1996 16.8977 32.8469 16.0354 33.3449Z" fill="black"/>
<path fill-rule="evenodd" clip-rule="evenodd" d="M29.5291 27.7605C29.5291 36.177 22.9188 43 14.7646 43C6.61032 43 0 36.177 0 27.7605C0 19.3439 6.61032 12.521 14.7646 12.521C22.9188 12.521 29.5291 19.3439 29.5291 27.7605ZM17.959 34.54C18.0696 35.4474 18.2133 36.0782 18.3902 36.4323H21.6072V36.1667C21.1871 35.1929 20.9771 33.8816 20.9771 32.2328V23.9665C20.9329 22.1517 20.3248 20.7297 19.153 19.7006C17.9811 18.6604 16.3616 18.1403 14.2942 18.1403C12.9897 18.1403 11.7903 18.3838 10.6958 18.8707C9.61238 19.3576 8.75008 20.0215 8.10888 20.8625C7.47874 21.6925 7.16367 22.5556 7.16367 23.452H10.2481C10.2481 22.6663 10.6184 21.9968 11.3591 21.4435C12.0998 20.8902 13.0174 20.6135 14.1118 20.6135C15.3611 20.6135 16.3063 20.9345 16.9475 21.5763C17.5887 22.207 17.9093 23.0591 17.9093 24.1325V25.5434H14.9244C12.3485 25.5434 10.3476 26.0635 8.92144 27.1037C7.50638 28.1328 6.79885 29.5825 6.79885 31.4526C6.79885 32.9908 7.36266 34.2634 8.49029 35.2704C9.62897 36.2663 11.0827 36.7643 12.8515 36.7643C14.8304 36.7643 16.5329 36.0229 17.959 34.54Z" fill="black"/>
<path fill-rule="evenodd" clip-rule="evenodd" d="M11.5301 0.270893C12.0067 0.0530279 13.4201 -0.498529 13.8444 1.09823L16.8722 9.61978C16.9962 10.0831 17.0816 10.5078 17.0733 10.8691C16.3185 10.7587 15.547 10.7008 14.7646 10.7008C14.2714 10.7008 13.7865 10.7257 13.3044 10.7698L8.36999 3.9939C7.29275 2.74187 8.54357 1.8842 8.99265 1.61393L11.5301 0.270893Z" fill="black"/>
</svg>
