<svg width="1236" height="1622" viewBox="0 0 1236 1622" fill="none" xmlns="http://www.w3.org/2000/svg">
<path d="M479.424 164.017L479.418 164.037L479.412 164.056L30.392 1435.7C30.3903 1435.7 30.3885 1435.71 30.3868 1435.72C12.0698 1504.6 -0.553467 1567.71 0.569458 1621.42C112.366 1605.01 226.605 1596.4 342.474 1596.4C415.53 1596.4 487.362 1600.09 558.784 1606.66L1290.39 595.721L1290.4 595.704L1290.41 595.689C1330.3 549.036 1348.61 506.096 1352.63 467.315C1356.65 428.536 1346.4 393.865 1329.07 363.739C1294.41 303.47 1231.5 261.447 1198.21 241.284C1198.2 241.281 1198.2 241.279 1198.19 241.276L821.94 40.8798C821.935 40.8778 821.931 40.8758 821.926 40.8737C786.587 24.6197 716.625 -4.02639 647.67 1.10706C613.203 3.67302 579.003 14.6779 549.496 39.8798C519.988 65.0831 495.135 104.519 479.424 164.017Z" stroke="black" stroke-opacity="0.5"/>
</svg>
