<svg width="37" height="39" viewBox="0 0 37 39" fill="none" xmlns="http://www.w3.org/2000/svg">
<ellipse opacity="0.0649182" cx="18.2805" cy="19.1129" rx="18.2805" ry="19.1129" fill="#0557FF"/>
<path d="M11.4609 15.1606H15.4431V18.8584H11.4609V15.1606Z" fill="#020113"/>
<path d="M13.1675 17.5534L12.3975 16.7834L12.7997 16.3812L13.1675 16.749L14.9574 14.959L15.3596 15.3612L13.1675 17.5534Z" fill="#027BFE"/>
<path d="M27.1519 13.7416L24.0443 13.1201L22.7581 18.8362L16.5809 17.6006V12.0312H12.1966L10.3232 13.9046V19.9956H13.4578L12.6506 23.7096C12.2967 23.7744 12.006 24.0392 11.9159 24.3987L11.7716 24.9755C11.7542 25.0453 11.7454 25.1169 11.7454 25.1889C11.7454 25.6133 12.0481 25.977 12.4653 26.0544L19.658 27.3865L19.7616 26.827L12.5689 25.495C12.4213 25.4676 12.3143 25.3389 12.3143 25.1889C12.3143 25.1633 12.3175 25.138 12.3238 25.1133L12.4679 24.5366C12.5143 24.3521 12.706 24.2323 12.8903 24.2693L20.339 25.759L20.4508 25.2011L13.2228 23.7557L14.04 19.9956H16.5809V18.1809L17.3298 18.3308L16.7918 20.2143L20.1956 20.8953L20.7338 19.0114L22.6332 19.3914L21.4232 24.7685L21.9782 24.8934L24.1588 15.2019L24.7839 15.327L22.561 25.0521L23.1157 25.1787L23.5636 23.2181L24.2771 23.3606L23.6988 25.9054L24.2535 26.0315L25.6985 19.6739L24.7874 17.866L25.3422 15.4383L26.6951 15.7088C26.76 15.7225 26.8262 15.729 26.8919 15.729H26.9551C27.5083 15.729 27.9586 15.2787 27.9586 14.7255C27.9586 14.2487 27.6193 13.8351 27.1519 13.7416ZM12.0299 13.0023V13.7379H11.2943L12.0299 13.0023ZM16.0121 19.4267H10.8921V14.3068H12.5988V12.6001H16.0121V19.4267ZM18.3706 19.9495L17.5079 19.7768L17.8894 18.4426L18.752 18.6152L18.3706 19.9495ZM19.7928 20.2339L18.9301 20.0613L19.3116 18.727L20.1742 18.8996L19.7928 20.2339ZM24.4036 22.8061L23.6911 22.6636L24.1613 20.6071L24.8713 20.7491L24.4036 22.8061ZM25.0985 19.7478L24.9969 20.1942L24.2877 20.0523L24.5885 18.736L25.0985 19.7478ZM26.9551 15.1601H26.8919C26.8632 15.1601 26.8347 15.1573 26.8066 15.1516L24.2836 14.6469L24.477 13.7868L27.0398 14.2994C27.2426 14.3401 27.3897 14.5193 27.3897 14.7255C27.3897 14.965 27.1946 15.1601 26.9551 15.1601Z" fill="#027BFE"/>
<path d="M21.9848 24.5469C20.5731 24.5469 19.4248 25.6952 19.4248 27.1068C19.4248 28.5185 20.5731 29.6668 21.9848 29.6668C23.3964 29.6668 24.5447 28.5185 24.5447 27.1068C24.5447 25.6952 23.3964 24.5469 21.9848 24.5469Z" fill="#020113"/>
<path d="M21.9847 28.5285C21.2005 28.5285 20.5625 27.8904 20.5625 27.1063C20.5625 26.3221 21.2005 25.6841 21.9847 25.6841C22.7689 25.6841 23.4069 26.3221 23.4069 27.1063C23.4069 27.8904 22.7689 28.5285 21.9847 28.5285ZM21.9847 26.253C21.5143 26.253 21.1314 26.6359 21.1314 27.1063C21.1314 27.5767 21.5143 27.9596 21.9847 27.9596C22.4551 27.9596 22.838 27.5767 22.838 27.1063C22.838 26.6359 22.4551 26.253 21.9847 26.253Z" fill="#027BFE"/>
</svg>
