<svg width="19" height="19" viewBox="0 0 19 19" fill="none" xmlns="http://www.w3.org/2000/svg">
<path fill-rule="evenodd" clip-rule="evenodd" d="M15.3144 0.431152L13.5876 2.23732L16.566 5.35256L18.2927 3.54639L15.3144 0.431152ZM5.63046 16.5381L0.71875 18.8055L2.88649 13.668L5.63046 16.5381Z" fill="#0557FF" fill-opacity="0.4"/>
<path fill-rule="evenodd" clip-rule="evenodd" d="M15.8412 6.17312L12.8663 3.04375L9.91895 6.1157L4.46494 0.431152L0.71875 4.33569L6.14522 10.0202L3.55594 12.719L6.53085 15.8483L9.12013 13.1496L14.4915 18.8054L18.2928 14.8435L12.8939 9.21636L15.8412 6.17312ZM5.86996 8.12557L7.13705 6.80492L6.36578 6.00104L5.09869 7.32169L4.13459 6.31685L4.96096 5.45556L4.18968 4.65168L3.36332 5.51298L2.28904 4.36458L4.46514 2.09651L9.12033 6.91976L6.91669 9.21654L5.86996 8.12557ZM14.4918 17.1691L16.723 14.8436L12.1229 10.0778L9.89172 12.3745L11.0486 13.5804L11.9025 12.6903L12.6738 13.4942L11.8199 14.3842L12.7014 15.3029L13.8307 14.1258L14.602 14.9297L13.4726 16.1068L14.4918 17.1691Z" fill="#027BFE"/>
</svg>
