<svg width="311" height="317" viewBox="0 0 311 317" fill="none" xmlns="http://www.w3.org/2000/svg">
<path opacity="0.7" d="M23.491 98.5061C23.491 98.5061 3.58623 149.903 31.5586 201.671C59.5238 253.446 117.146 280.776 163.26 304.158C209.374 327.54 257.258 316.152 280.011 277.856C302.765 239.56 271.551 212.223 271.516 157.614C271.48 103.004 279.69 88.5466 250.126 42.4114C220.561 -3.72369 147.989 -13.9402 93.1292 20.2791C38.2697 54.4985 23.491 98.5061 23.491 98.5061Z" fill="#027BFE"/>
<path d="M69.262 284.475C86.1111 302.259 127.477 295.748 145.397 284.475C203.555 247.885 305.492 186.971 310.111 98.7274C312.075 61.2168 278.998 41.5262 265.183 35.7503C231.999 21.8712 195.587 17.7089 159.655 16.1026C122.123 14.4248 81.8632 15.7313 48.0579 34.044C35.2497 40.9764 23.1697 49.8722 14.9023 62.0164C6.49912 74.3534 1.67285 89.0392 0.387749 103.868C-1.68269 127.785 4.75709 151.766 14.4882 173.713C24.2192 195.66 37.1916 215.979 49.1074 236.826C56.8751 250.434 55.0688 269.489 69.262 284.475Z" fill="#D4E9FF"/>
<path opacity="0.7" d="M69.262 284.475C86.1111 302.259 127.477 295.748 145.397 284.475C203.555 247.885 305.492 186.971 310.111 98.7274C312.075 61.2168 278.998 41.5262 265.183 35.7503C231.999 21.8712 195.587 17.7089 159.655 16.1026C122.123 14.4248 81.8632 15.7313 48.0579 34.044C35.2497 40.9764 23.1697 49.8722 14.9023 62.0164C6.49912 74.3534 1.67285 89.0392 0.387749 103.868C-1.68269 127.785 4.75709 151.766 14.4882 173.713C24.2192 195.66 37.1916 215.979 49.1074 236.826C56.8751 250.434 55.0688 269.489 69.262 284.475Z" fill="#D4E9FF"/>
<path opacity="0.2" d="M161.197 213.251C161.197 213.251 155.693 241.195 121.93 247.492C121.93 247.492 113.113 254.524 110.179 258.686C107.244 262.849 91.5877 269.924 75.6952 291.999C59.8028 314.074 36.0713 243.972 36.0713 243.972L88.4606 175.926L161.197 213.251Z" fill="black" fill-opacity="0.7"/>
<path d="M191.204 82.0779C191.204 82.0779 209.409 73.1821 213.414 74.7171C217.42 76.2521 221.246 85.462 205.947 94.2792C190.654 103.096 195.202 119.524 195.202 119.524H206.125C206.125 119.524 212.679 122.194 215.228 125.621C217.777 129.048 219.597 140.764 221.054 144.741C222.51 148.717 221.782 152.68 217.777 153.979C217.777 153.979 215.228 165.088 215.956 170.014C216.684 174.934 216.32 178.111 211.587 178.71C206.853 179.31 202.12 175.291 202.484 170.014L198.843 183.208L201.392 188.277C201.392 188.277 206.125 189.862 211.223 194.231C216.32 198.601 221.418 199.793 219.961 204.662C218.505 209.531 215.592 214.779 200.299 208.696C185.007 202.613 172.263 178.71 172.263 178.71L163.074 95.3644L191.204 82.0779Z" fill="white"/>
<path opacity="0.4" d="M210.366 129.956C202.113 141.208 211.244 154.166 211.244 154.166C211.244 154.166 205.533 157.35 205.369 165.475C205.304 168.852 206.154 173.571 207.168 177.94C204.334 176.562 202.242 173.571 202.499 170.001L198.85 183.195L201.399 188.264C201.399 188.264 204.783 189.399 208.91 192.39C206.647 197.588 205.954 204.013 206.161 210.639C204.448 210.196 202.506 209.561 200.314 208.683C185.021 202.593 172.277 178.697 172.277 178.697L163.089 95.3509L191.211 82.0715C191.211 82.0715 201.156 77.2096 207.967 75.2891C207.439 81.6646 208.696 88.2472 209.581 91.924C208.517 92.7093 207.311 93.4947 205.961 94.2729C190.669 103.083 195.216 119.518 195.216 119.518H206.147C206.147 119.518 212.38 122.052 215.043 125.365C213.529 126.329 211.951 127.793 210.366 129.956Z" fill="#2D82DE"/>
<path d="M162.725 199.801C162.725 199.801 142.92 238.632 107.216 247.442C107.216 247.442 105.852 255.124 99.8121 258.423C96.585 260.179 83.5698 279.698 72.1324 297.504L8.85547 258.687C12.7536 254.831 17.1943 250.391 21.735 245.757C34.943 232.292 49.0292 217.164 53.3485 209.732C57.2038 203.092 62.0801 191.569 66.328 180.738C71.7683 166.888 76.1948 154.165 76.1948 154.165L97.299 130.705L130.483 93.8154L131.918 98.5346L162.725 199.801Z" fill="white"/>
<path opacity="0.4" d="M130.483 93.8154L162.725 199.801C162.725 199.801 142.92 238.632 107.215 247.442C107.215 247.442 105.852 255.124 99.8117 258.423C96.9202 260 86.1325 275.886 75.6875 291.999C79.5571 278.72 90.766 257.552 90.766 257.552C83.5766 249.034 85.6685 240.06 88.5457 242.616C91.33 245.1 98.6551 252.347 99.1192 252.804C95.9421 249.063 95.2068 243.201 95.2068 243.201C95.2068 243.201 104.117 249.127 104.838 239.603C105.559 230.086 99.4976 206.904 99.4976 206.904L83.6194 145.912L130.483 93.8154Z" fill="#2D82DE"/>
<path d="M163.082 95.3572L191.204 82.0779C191.204 82.0779 209.41 73.1821 213.415 74.7171C217.42 76.2521 221.247 85.462 205.947 94.2792C190.655 103.096 195.202 119.524 195.202 119.524H206.126C206.126 119.524 212.68 122.194 215.229 125.621C217.777 129.048 219.598 140.764 221.054 144.741C222.511 148.717 221.783 152.68 217.777 153.979C217.777 153.979 215.229 165.088 215.957 170.014C216.685 174.934 216.321 178.111 211.587 178.71C206.854 179.31 202.121 175.291 202.485 170.014L198.844 183.208L201.392 188.277C201.392 188.277 206.126 189.862 211.223 194.231C216.321 198.601 221.418 199.793 219.962 204.662C218.506 209.531 215.593 214.779 200.3 208.696C185.007 202.613 172.263 178.71 172.263 178.71" stroke="#263238" stroke-miterlimit="10" stroke-linecap="round" stroke-linejoin="round"/>
<path d="M217.785 153.973C212.323 155.451 205.948 154.358 203.584 144.706C201.214 135.053 205.955 124.751 209.046 123.766" stroke="#263238" stroke-miterlimit="10" stroke-linecap="round" stroke-linejoin="round"/>
<path d="M202.491 170.007C202.491 170.007 202.127 157.577 206.682 154.515" stroke="#263238" stroke-miterlimit="10" stroke-linecap="round" stroke-linejoin="round"/>
<path opacity="0.4" d="M69.6764 231.743C69.6764 231.743 56.3328 230.079 53.3557 224.11C50.8926 219.17 37.5418 237.647 21.7422 245.757C34.9502 232.292 49.0363 217.164 53.3557 209.732C57.211 203.092 62.0872 191.569 66.3352 180.738C66.3352 180.745 66.3352 180.745 66.3352 180.753C66.121 189.734 61.3304 203.485 62.7012 210.645C62.7012 210.645 57.5608 211.916 58.596 217.599C59.617 223.275 69.6764 231.743 69.6764 231.743Z" fill="#2D82DE"/>
<path d="M162.725 199.801C162.725 199.801 142.92 238.639 107.216 247.442C107.216 247.442 105.852 255.124 99.8125 258.423C96.5854 260.179 83.5702 279.691 72.1328 297.504" stroke="#263238" stroke-miterlimit="10" stroke-linecap="round" stroke-linejoin="round"/>
<path d="M8.8623 258.687C24.1122 243.615 47.551 219.72 53.3554 209.732C62.1369 194.61 76.2016 154.158 76.2016 154.158L130.49 93.8154" stroke="#263238" stroke-miterlimit="10" stroke-linecap="round" stroke-linejoin="round"/>
<path d="M99.498 139.9C99.498 139.9 107.837 147.368 110.179 154.165" stroke="#263238" stroke-miterlimit="10" stroke-linecap="round" stroke-linejoin="round"/>
<path d="M197.93 231.743H108.201C105.545 231.743 103.396 229.594 103.396 226.938V35.9289C103.396 33.273 105.545 31.124 108.201 31.124H197.93C200.586 31.124 202.735 33.273 202.735 35.9289V226.938C202.735 229.594 200.586 231.743 197.93 231.743Z" fill="#263238"/>
<path d="M172.763 36.5926L170.864 40.0767C170.45 40.8406 169.65 41.3118 168.779 41.3118H137.351C136.48 41.3118 135.68 40.8335 135.266 40.0767L133.367 36.5926C132.953 35.8287 132.153 35.3575 131.282 35.3575H109.343C108.029 35.3575 106.973 36.4213 106.973 37.7278V225.538C106.973 226.852 108.036 227.908 109.343 227.908H196.773C198.086 227.908 199.143 226.845 199.143 225.538V37.7278C199.143 36.4141 198.079 35.3575 196.773 35.3575H174.833C173.976 35.3504 173.177 35.8287 172.763 36.5926Z" fill="#F5F7FA" stroke="#263238" stroke-miterlimit="10" stroke-linecap="round" stroke-linejoin="round"/>
<path d="M146.254 38.2776C146.959 38.2776 147.532 37.7054 147.532 36.9996C147.532 36.2938 146.959 35.7217 146.254 35.7217C145.548 35.7217 144.976 36.2938 144.976 36.9996C144.976 37.7054 145.548 38.2776 146.254 38.2776Z" stroke="white" stroke-miterlimit="10"/>
<path d="M161.153 36.9996C161.153 37.4351 160.796 37.7921 160.361 37.7921C159.925 37.7921 159.568 37.4351 159.568 36.9996C159.568 36.5641 159.925 36.2071 160.361 36.2071C160.803 36.2 161.153 36.557 161.153 36.9996Z" stroke="white" stroke-miterlimit="10"/>
<path d="M157.598 36.5H149.838C149.566 36.5 149.338 36.7213 149.338 36.9998C149.338 37.2782 149.559 37.4995 149.838 37.4995H157.598C157.877 37.4995 158.098 37.2782 158.098 36.9998C158.091 36.7213 157.87 36.5 157.598 36.5Z" fill="white"/>
<rect x="122.008" y="191.349" width="57.0636" height="14.027" rx="5" fill="#027BFE"/>
<path d="M121.646 146.533C121.565 146.086 121.207 145.822 120.768 145.822C120.21 145.822 119.805 146.252 119.805 146.942C119.805 147.633 120.21 148.063 120.768 148.063C121.207 148.063 121.565 147.799 121.646 147.351H121.382C121.318 147.654 121.058 147.816 120.768 147.816C120.372 147.816 120.061 147.509 120.061 146.942C120.061 146.376 120.372 146.069 120.768 146.069C121.058 146.069 121.318 146.231 121.382 146.533H121.646ZM123.471 148.067C123.915 148.067 124.213 147.731 124.213 147.224C124.213 146.712 123.915 146.376 123.471 146.376C123.028 146.376 122.73 146.712 122.73 147.224C122.73 147.731 123.028 148.067 123.471 148.067ZM123.471 147.841C123.135 147.841 122.981 147.552 122.981 147.224C122.981 146.895 123.135 146.601 123.471 146.601C123.808 146.601 123.962 146.895 123.962 147.224C123.962 147.552 123.808 147.841 123.471 147.841ZM125.616 147.049C125.616 146.763 125.793 146.601 126.034 146.601C126.267 146.601 126.409 146.754 126.409 147.01V148.033H126.66V146.993C126.66 146.576 126.438 146.376 126.106 146.376C125.859 146.376 125.706 146.486 125.629 146.653H125.608V146.397H125.365V148.033H125.616V147.049ZM128.616 146.397H128.25V146.231C128.25 146.069 128.318 145.983 128.484 145.983C128.557 145.983 128.599 146.001 128.625 146.009L128.697 145.792C128.659 145.775 128.582 145.749 128.459 145.749C128.224 145.749 127.998 145.89 127.998 146.171V146.397H127.734V146.61H127.998V148.033H128.25V146.61H128.616V146.397ZM129.737 148.033H129.988V146.397H129.737V148.033ZM129.865 146.124C129.963 146.124 130.044 146.047 130.044 145.954C130.044 145.86 129.963 145.783 129.865 145.783C129.767 145.783 129.686 145.86 129.686 145.954C129.686 146.047 129.767 146.124 129.865 146.124ZM131.217 148.033H131.468V146.998C131.468 146.776 131.643 146.614 131.881 146.614C131.948 146.614 132.018 146.627 132.035 146.631V146.376C132.006 146.373 131.94 146.371 131.903 146.371C131.707 146.371 131.536 146.482 131.477 146.644H131.459V146.397H131.217V148.033ZM133.101 148.033H133.352V147.01C133.352 146.771 133.527 146.601 133.723 146.601C133.914 146.601 134.047 146.726 134.047 146.912V148.033H134.303V146.968C134.303 146.757 134.435 146.601 134.665 146.601C134.844 146.601 134.997 146.696 134.997 146.938V148.033H135.249V146.938C135.249 146.553 135.042 146.376 134.75 146.376C134.516 146.376 134.344 146.483 134.26 146.653H134.243C134.162 146.478 134.019 146.376 133.804 146.376C133.591 146.376 133.433 146.478 133.365 146.653H133.344V146.397H133.101V148.033ZM138.122 148.033H138.386V147.236H138.864C139.372 147.236 139.601 146.927 139.601 146.542C139.601 146.156 139.372 145.851 138.859 145.851H138.122V148.033ZM138.386 147.002V146.086H138.851C139.206 146.086 139.341 146.28 139.341 146.542C139.341 146.804 139.206 147.002 138.855 147.002H138.386ZM141.242 148.072C141.527 148.072 141.676 147.918 141.728 147.812H141.74V148.033H141.992V146.955C141.992 146.435 141.596 146.376 141.387 146.376C141.14 146.376 140.858 146.461 140.73 146.759L140.969 146.844C141.024 146.725 141.156 146.597 141.395 146.597C141.626 146.597 141.74 146.72 141.74 146.93V146.938C141.74 147.059 141.617 147.049 141.319 147.087C141.015 147.127 140.684 147.194 140.684 147.569C140.684 147.888 140.931 148.072 141.242 148.072ZM141.28 147.846C141.08 147.846 140.935 147.756 140.935 147.581C140.935 147.39 141.11 147.33 141.306 147.305C141.412 147.292 141.698 147.262 141.74 147.211V147.441C141.74 147.645 141.578 147.846 141.28 147.846ZM144.378 146.763C144.299 146.531 144.122 146.376 143.798 146.376C143.453 146.376 143.197 146.572 143.197 146.849C143.197 147.074 143.332 147.226 143.632 147.296L143.905 147.36C144.07 147.398 144.148 147.477 144.148 147.59C144.148 147.731 143.999 147.846 143.764 147.846C143.559 147.846 143.43 147.757 143.385 147.581L143.146 147.641C143.205 147.919 143.434 148.067 143.768 148.067C144.149 148.067 144.408 147.86 144.408 147.577C144.408 147.349 144.265 147.205 143.973 147.134L143.73 147.074C143.536 147.026 143.449 146.961 143.449 146.836C143.449 146.695 143.598 146.593 143.798 146.593C144.018 146.593 144.108 146.714 144.152 146.827L144.378 146.763ZM146.713 146.763C146.634 146.531 146.457 146.376 146.134 146.376C145.788 146.376 145.533 146.572 145.533 146.849C145.533 147.074 145.667 147.226 145.967 147.296L146.24 147.36C146.405 147.398 146.483 147.477 146.483 147.59C146.483 147.731 146.334 147.846 146.1 147.846C145.894 147.846 145.765 147.757 145.72 147.581L145.482 147.641C145.54 147.919 145.769 148.067 146.104 148.067C146.484 148.067 146.743 147.86 146.743 147.577C146.743 147.349 146.6 147.205 146.308 147.134L146.065 147.074C145.872 147.026 145.784 146.961 145.784 146.836C145.784 146.695 145.933 146.593 146.134 146.593C146.353 146.593 146.444 146.714 146.487 146.827L146.713 146.763ZM148.26 148.033H148.507L148.865 146.776H148.891L149.249 148.033H149.496L149.995 146.397H149.73L149.377 147.645H149.36L149.014 146.397H148.746L148.397 147.65H148.38L148.026 146.397H147.762L148.26 148.033ZM151.704 148.067C152.147 148.067 152.446 147.731 152.446 147.224C152.446 146.712 152.147 146.376 151.704 146.376C151.261 146.376 150.963 146.712 150.963 147.224C150.963 147.731 151.261 148.067 151.704 148.067ZM151.704 147.841C151.367 147.841 151.214 147.552 151.214 147.224C151.214 146.895 151.367 146.601 151.704 146.601C152.041 146.601 152.194 146.895 152.194 147.224C152.194 147.552 152.041 147.841 151.704 147.841ZM153.597 148.033H153.849V146.998C153.849 146.776 154.023 146.614 154.262 146.614C154.329 146.614 154.398 146.627 154.416 146.631V146.376C154.387 146.373 154.321 146.371 154.283 146.371C154.087 146.371 153.917 146.482 153.857 146.644H153.84V146.397H153.597V148.033ZM156.05 148.067C156.365 148.067 156.472 147.871 156.527 147.782H156.557V148.033H156.8V145.851H156.548V146.657H156.527C156.472 146.572 156.374 146.376 156.054 146.376C155.641 146.376 155.355 146.704 155.355 147.219C155.355 147.739 155.641 148.067 156.05 148.067ZM156.084 147.841C155.768 147.841 155.606 147.564 155.606 147.215C155.606 146.87 155.764 146.601 156.084 146.601C156.391 146.601 156.552 146.849 156.552 147.215C156.552 147.586 156.386 147.841 156.084 147.841Z" fill="#263238"/>
<path d="M120.308 172H121.228C121.83 172 122.078 171.707 122.078 171.324C122.078 170.921 121.8 170.702 121.566 170.688V170.663C121.785 170.603 121.979 170.459 121.979 170.131C121.979 169.758 121.73 169.455 121.198 169.455H120.308V172ZM120.616 171.727V170.842H121.243C121.576 170.842 121.785 171.065 121.785 171.324C121.785 171.548 121.631 171.727 121.228 171.727H120.616ZM120.616 170.573V169.728H121.198C121.536 169.728 121.685 169.907 121.685 170.131C121.685 170.399 121.467 170.573 121.188 170.573H120.616ZM124.516 171.219C124.516 171.577 124.243 171.741 124.024 171.741C123.78 171.741 123.606 171.562 123.606 171.284V170.091H123.313V171.304C123.313 171.791 123.571 172.025 123.929 172.025C124.218 172.025 124.407 171.871 124.496 171.677H124.516V172H124.809V170.091H124.516V171.219ZM127.467 170.518C127.375 170.248 127.169 170.066 126.791 170.066C126.388 170.066 126.09 170.295 126.09 170.618C126.09 170.881 126.246 171.058 126.597 171.14L126.915 171.214C127.108 171.259 127.198 171.351 127.198 171.483C127.198 171.647 127.024 171.781 126.751 171.781C126.511 171.781 126.361 171.678 126.308 171.473L126.03 171.543C126.098 171.867 126.366 172.04 126.756 172.04C127.2 172.04 127.502 171.797 127.502 171.468C127.502 171.202 127.335 171.034 126.994 170.951L126.711 170.881C126.485 170.825 126.383 170.75 126.383 170.603C126.383 170.439 126.557 170.32 126.791 170.32C127.047 170.32 127.152 170.461 127.203 170.593L127.467 170.518ZM128.711 172H129.004V170.091H128.711V172ZM128.86 169.773C128.975 169.773 129.069 169.683 129.069 169.574C129.069 169.464 128.975 169.375 128.86 169.375C128.746 169.375 128.651 169.464 128.651 169.574C128.651 169.683 128.746 169.773 128.86 169.773ZM130.603 170.852C130.603 170.518 130.809 170.33 131.09 170.33C131.362 170.33 131.528 170.507 131.528 170.807V172H131.821V170.787C131.821 170.3 131.561 170.066 131.175 170.066C130.886 170.066 130.707 170.195 130.618 170.389H130.593V170.091H130.31V172H130.603V170.852ZM133.925 172.04C134.313 172.04 134.597 171.846 134.686 171.558L134.403 171.478C134.328 171.677 134.155 171.776 133.925 171.776C133.581 171.776 133.344 171.554 133.33 171.145H134.716V171.021C134.716 170.31 134.293 170.066 133.896 170.066C133.379 170.066 133.036 170.474 133.036 171.06C133.036 171.647 133.374 172.04 133.925 172.04ZM133.33 170.891C133.35 170.594 133.56 170.33 133.896 170.33C134.214 170.33 134.418 170.568 134.418 170.891H133.33ZM137.282 170.518C137.19 170.248 136.984 170.066 136.606 170.066C136.204 170.066 135.905 170.295 135.905 170.618C135.905 170.881 136.062 171.058 136.412 171.14L136.731 171.214C136.923 171.259 137.014 171.351 137.014 171.483C137.014 171.647 136.84 171.781 136.567 171.781C136.327 171.781 136.176 171.678 136.124 171.473L135.846 171.543C135.914 171.867 136.181 172.04 136.572 172.04C137.015 172.04 137.317 171.797 137.317 171.468C137.317 171.202 137.151 171.034 136.81 170.951L136.527 170.881C136.301 170.825 136.199 170.75 136.199 170.603C136.199 170.439 136.373 170.32 136.606 170.32C136.862 170.32 136.968 170.461 137.019 170.593L137.282 170.518ZM139.879 170.518C139.787 170.248 139.581 170.066 139.203 170.066C138.8 170.066 138.502 170.295 138.502 170.618C138.502 170.881 138.659 171.058 139.009 171.14L139.327 171.214C139.52 171.259 139.611 171.351 139.611 171.483C139.611 171.647 139.437 171.781 139.163 171.781C138.923 171.781 138.773 171.678 138.721 171.473L138.442 171.543C138.511 171.867 138.778 172.04 139.168 172.04C139.612 172.04 139.914 171.797 139.914 171.468C139.914 171.202 139.747 171.034 139.407 170.951L139.123 170.881C138.897 170.825 138.795 170.75 138.795 170.603C138.795 170.439 138.969 170.32 139.203 170.32C139.459 170.32 139.565 170.461 139.616 170.593L139.879 170.518ZM143.651 172.04C144.074 172.04 144.352 171.781 144.402 171.443H144.109C144.054 171.652 143.88 171.776 143.651 171.776C143.303 171.776 143.08 171.488 143.08 171.045C143.08 170.613 143.308 170.33 143.651 170.33C143.91 170.33 144.064 170.489 144.109 170.663H144.402C144.352 170.305 144.049 170.066 143.646 170.066C143.129 170.066 142.786 170.474 142.786 171.055C142.786 171.627 143.114 172.04 143.651 172.04ZM146.161 172.045C146.494 172.045 146.668 171.866 146.727 171.741H146.742V172H147.036V170.742C147.036 170.136 146.573 170.066 146.33 170.066C146.041 170.066 145.713 170.165 145.564 170.513L145.842 170.613C145.907 170.474 146.06 170.325 146.34 170.325C146.609 170.325 146.742 170.468 146.742 170.712V170.722C146.742 170.864 146.598 170.852 146.25 170.896C145.896 170.942 145.509 171.021 145.509 171.458C145.509 171.831 145.798 172.045 146.161 172.045ZM146.205 171.781C145.972 171.781 145.803 171.677 145.803 171.473C145.803 171.249 146.007 171.18 146.235 171.15C146.36 171.135 146.693 171.1 146.742 171.04V171.309C146.742 171.548 146.553 171.781 146.205 171.781ZM149.169 170.091H148.762V169.634H148.468V170.091H148.18V170.339H148.468V171.533C148.468 171.866 148.737 172.025 148.985 172.025C149.095 172.025 149.164 172.005 149.204 171.99L149.144 171.727C149.12 171.732 149.08 171.741 149.015 171.741C148.886 171.741 148.762 171.702 148.762 171.453V170.339H149.169V170.091ZM151.158 172.04C151.546 172.04 151.83 171.846 151.919 171.558L151.636 171.478C151.561 171.677 151.388 171.776 151.158 171.776C150.814 171.776 150.577 171.554 150.563 171.145H151.949V171.021C151.949 170.31 151.526 170.066 151.129 170.066C150.612 170.066 150.269 170.474 150.269 171.06C150.269 171.647 150.607 172.04 151.158 172.04ZM150.563 170.891C150.583 170.594 150.793 170.33 151.129 170.33C151.447 170.33 151.651 170.568 151.651 170.891H150.563ZM153.934 172.756C154.391 172.756 154.759 172.547 154.759 172.055V170.091H154.476V170.394H154.446C154.381 170.295 154.262 170.066 153.889 170.066C153.407 170.066 153.074 170.449 153.074 171.036C153.074 171.632 153.422 171.97 153.884 171.97C154.257 171.97 154.376 171.751 154.441 171.647H154.466V172.035C154.466 172.353 154.242 172.497 153.934 172.497C153.587 172.497 153.465 172.314 153.387 172.209L153.153 172.373C153.272 172.573 153.507 172.756 153.934 172.756ZM153.924 171.707C153.556 171.707 153.367 171.428 153.367 171.031C153.367 170.643 153.551 170.33 153.924 170.33C154.282 170.33 154.471 170.618 154.471 171.031C154.471 171.453 154.277 171.707 153.924 171.707ZM156.839 172.04C157.357 172.04 157.705 171.647 157.705 171.055C157.705 170.459 157.357 170.066 156.839 170.066C156.322 170.066 155.974 170.459 155.974 171.055C155.974 171.647 156.322 172.04 156.839 172.04ZM156.839 171.776C156.447 171.776 156.268 171.438 156.268 171.055C156.268 170.673 156.447 170.33 156.839 170.33C157.232 170.33 157.411 170.673 157.411 171.055C157.411 171.438 157.232 171.776 156.839 171.776ZM158.92 172H159.214V170.792C159.214 170.533 159.417 170.344 159.696 170.344C159.774 170.344 159.855 170.359 159.875 170.364V170.066C159.841 170.064 159.764 170.061 159.721 170.061C159.492 170.061 159.293 170.19 159.224 170.379H159.204V170.091H158.92V172ZM161.238 172.716C161.502 172.716 161.689 172.575 161.799 172.278L162.612 170.096L162.292 170.091L161.765 171.612H161.745L161.218 170.091H160.9L161.605 172.01L161.551 172.159C161.444 172.45 161.312 172.477 161.098 172.423L161.024 172.681C161.054 172.696 161.138 172.716 161.238 172.716Z" fill="#263238"/>
<rect x="118.803" y="86.7793" width="63.5769" height="10.9097" rx="3.5" stroke="black"/>
<path d="M122.265 100.065H121.921V102.338H121.893L120.314 100.065H119.976V102.953H120.325V100.686H120.353L121.927 102.953H122.265V100.065Z" fill="#263238"/>
<path d="M123.76 103.003C124.138 103.003 124.335 102.8 124.403 102.659H124.42V102.953H124.752V101.526C124.752 100.838 124.228 100.759 123.952 100.759C123.625 100.759 123.252 100.872 123.083 101.267L123.399 101.379C123.472 101.221 123.646 101.052 123.963 101.052C124.269 101.052 124.42 101.214 124.42 101.492V101.503C124.42 101.664 124.256 101.65 123.861 101.701C123.46 101.753 123.021 101.842 123.021 102.338C123.021 102.761 123.348 103.003 123.76 103.003ZM123.811 102.705C123.546 102.705 123.354 102.586 123.354 102.355C123.354 102.101 123.585 102.022 123.845 101.988C123.986 101.971 124.363 101.932 124.42 101.864V102.169C124.42 102.439 124.205 102.705 123.811 102.705Z" fill="#263238"/>
<path d="M125.563 102.953H125.896V101.599C125.896 101.282 126.127 101.058 126.386 101.058C126.639 101.058 126.815 101.223 126.815 101.47V102.953H127.153V101.543C127.153 101.264 127.328 101.058 127.633 101.058C127.869 101.058 128.072 101.183 128.072 101.503V102.953H128.405V101.503C128.405 100.994 128.132 100.759 127.745 100.759C127.435 100.759 127.208 100.901 127.097 101.126H127.074C126.967 100.894 126.778 100.759 126.493 100.759C126.211 100.759 126.003 100.894 125.913 101.126H125.884V100.787H125.563V102.953Z" fill="#263238"/>
<path d="M130.125 102.998C130.564 102.998 130.886 102.778 130.987 102.451L130.666 102.361C130.581 102.586 130.385 102.699 130.125 102.699C129.734 102.699 129.465 102.447 129.449 101.983H131.021V101.842C131.021 101.035 130.542 100.759 130.091 100.759C129.504 100.759 129.115 101.221 129.115 101.887C129.115 102.552 129.499 102.998 130.125 102.998ZM129.449 101.695C129.472 101.358 129.71 101.058 130.091 101.058C130.452 101.058 130.683 101.329 130.683 101.695H129.449Z" fill="#263238"/>
<rect x="118.803" y="109.011" width="63.5769" height="10.9097" rx="3.5" stroke="black"/>
<path d="M119.89 125.272H120.154V124.476H120.632C121.14 124.476 121.369 124.167 121.369 123.781C121.369 123.395 121.14 123.091 120.627 123.091H119.89V125.272ZM120.154 124.241V123.325H120.619C120.974 123.325 121.109 123.519 121.109 123.781C121.109 124.043 120.974 124.241 120.623 124.241H120.154ZM123.01 125.311C123.295 125.311 123.445 125.157 123.496 125.051H123.509V125.272H123.76V124.194C123.76 123.674 123.364 123.615 123.155 123.615C122.908 123.615 122.626 123.7 122.499 123.998L122.737 124.084C122.793 123.964 122.924 123.836 123.163 123.836C123.395 123.836 123.509 123.959 123.509 124.169V124.177C123.509 124.299 123.385 124.288 123.087 124.326C122.783 124.366 122.452 124.433 122.452 124.808C122.452 125.128 122.699 125.311 123.01 125.311ZM123.048 125.085C122.848 125.085 122.703 124.995 122.703 124.821C122.703 124.629 122.878 124.569 123.074 124.544C123.18 124.531 123.466 124.501 123.509 124.45V124.68C123.509 124.885 123.347 125.085 123.048 125.085ZM126.146 124.003C126.067 123.77 125.89 123.615 125.566 123.615C125.221 123.615 124.966 123.811 124.966 124.088C124.966 124.314 125.1 124.465 125.4 124.535L125.673 124.599C125.838 124.638 125.916 124.716 125.916 124.829C125.916 124.97 125.767 125.085 125.532 125.085C125.327 125.085 125.198 124.997 125.153 124.821L124.914 124.88C124.973 125.158 125.202 125.307 125.537 125.307C125.917 125.307 126.176 125.099 126.176 124.816C126.176 124.589 126.033 124.445 125.741 124.373L125.498 124.314C125.304 124.266 125.217 124.201 125.217 124.075C125.217 123.934 125.366 123.832 125.566 123.832C125.786 123.832 125.876 123.954 125.92 124.066L126.146 124.003ZM128.481 124.003C128.402 123.77 128.226 123.615 127.902 123.615C127.557 123.615 127.301 123.811 127.301 124.088C127.301 124.314 127.435 124.465 127.736 124.535L128.008 124.599C128.173 124.638 128.251 124.716 128.251 124.829C128.251 124.97 128.102 125.085 127.868 125.085C127.662 125.085 127.533 124.997 127.488 124.821L127.25 124.88C127.308 125.158 127.537 125.307 127.872 125.307C128.252 125.307 128.511 125.099 128.511 124.816C128.511 124.589 128.368 124.445 128.076 124.373L127.834 124.314C127.64 124.266 127.552 124.201 127.552 124.075C127.552 123.934 127.701 123.832 127.902 123.832C128.121 123.832 128.212 123.954 128.255 124.066L128.481 124.003ZM130.028 125.272H130.275L130.633 124.015H130.659L131.017 125.272H131.264L131.763 123.636H131.498L131.145 124.885H131.128L130.783 123.636H130.514L130.165 124.889H130.148L129.794 123.636H129.53L130.028 125.272ZM133.472 125.307C133.915 125.307 134.214 124.97 134.214 124.463C134.214 123.951 133.915 123.615 133.472 123.615C133.029 123.615 132.731 123.951 132.731 124.463C132.731 124.97 133.029 125.307 133.472 125.307ZM133.472 125.081C133.136 125.081 132.982 124.791 132.982 124.463C132.982 124.135 133.136 123.841 133.472 123.841C133.809 123.841 133.962 124.135 133.962 124.463C133.962 124.791 133.809 125.081 133.472 125.081ZM135.365 125.272H135.617V124.237C135.617 124.015 135.792 123.853 136.03 123.853C136.097 123.853 136.167 123.866 136.184 123.87V123.615C136.155 123.613 136.089 123.611 136.052 123.611C135.856 123.611 135.685 123.721 135.625 123.883H135.608V123.636H135.365V125.272ZM137.818 125.307C138.133 125.307 138.24 125.111 138.295 125.021H138.325V125.272H138.568V123.091H138.316V123.896H138.295C138.24 123.811 138.142 123.615 137.822 123.615C137.409 123.615 137.123 123.943 137.123 124.459C137.123 124.978 137.409 125.307 137.818 125.307ZM137.852 125.081C137.537 125.081 137.375 124.804 137.375 124.454C137.375 124.109 137.532 123.841 137.852 123.841C138.159 123.841 138.321 124.088 138.321 124.454C138.321 124.825 138.154 125.081 137.852 125.081Z" fill="#263238"/>
<rect x="118.803" y="132.035" width="63.5769" height="10.9097" rx="3.5" stroke="black"/>
<rect x="118.803" y="155.062" width="63.5769" height="10.9097" rx="3.5" stroke="black"/>
<path d="M108.279 188.57C109.35 205.027 101.725 223.354 101.725 223.354L60.5446 211.759L53.3623 209.731C60.4875 199.808 63.9001 180.281 62.0367 164.475C61.8939 163.282 61.8011 162.154 61.744 161.09C61.0658 148.054 66.4418 144.234 71.0253 138.473C75.9872 132.233 87.1462 108.673 87.1462 103.097C87.1462 97.5136 101.097 83.8773 97.9981 68.3775C97.9981 68.3775 102.218 65.7645 106.458 67.9135C108.379 68.8844 110.307 70.8335 111.849 74.4389C115.483 82.9349 110.385 106.923 106.037 112.813L97.6769 147.426C97.6769 147.426 100.497 152.287 103.267 161.112C105.423 168.001 107.544 177.283 108.279 188.57Z" fill="white"/>
<path opacity="0.4" d="M61.7372 161.091C64.0646 167.473 66.5492 171.764 66.335 180.746C66.1208 189.727 61.3302 203.478 62.701 210.639C62.701 210.639 61.6158 210.903 60.5378 211.752L53.3555 209.725C60.4806 199.801 63.8933 180.275 62.0299 164.468C61.8871 163.283 61.8014 162.162 61.7372 161.091Z" fill="#2D82DE"/>
<path opacity="0.4" d="M106.038 112.813L97.6774 147.425C97.6774 147.425 100.497 152.287 103.268 161.111C103.26 161.104 103.26 161.097 103.253 161.09C97.5989 151.966 92.8154 149.26 92.8154 149.26C96.5851 144.734 99.4908 111.685 99.4908 111.685C99.4908 111.685 111.307 97.7988 110.171 83.27C109.643 76.5875 108.037 71.4757 106.445 67.9131C108.365 68.8841 110.293 70.8331 111.835 74.4385C115.483 82.9345 110.378 106.93 106.038 112.813Z" fill="#2D82DE"/>
<path d="M53.3555 209.732C60.4878 199.815 63.8933 180.281 62.037 164.475C60.1736 148.668 66.0637 144.713 71.0256 138.473C75.9875 132.24 87.1465 108.68 87.1465 103.097C87.1465 97.5139 101.097 83.8775 97.9984 68.3778C97.9984 68.3778 106.901 62.859 111.856 74.4392C115.49 82.9351 110.385 106.924 106.052 112.814L97.6915 147.426C97.6915 147.426 106.616 162.811 108.286 188.57C109.357 205.027 101.732 223.354 101.732 223.354" stroke="#263238" stroke-miterlimit="10" stroke-linecap="round" stroke-linejoin="round"/>
<path d="M80.8857 236.526C80.8857 236.526 90.2598 242.302 95.7287 251.419" stroke="#263238" stroke-miterlimit="10" stroke-linecap="round" stroke-linejoin="round"/>
<path d="M107.215 247.443C107.215 247.443 99.1404 248.592 91.8438 239.861C87.1675 234.263 72.9671 231.736 69.6973 217.114" stroke="#263238" stroke-miterlimit="10" stroke-linecap="round" stroke-linejoin="round"/>
<path opacity="0.2" d="M224.573 290.679C203.905 280.791 216.427 272.873 187.991 260.593C159.554 248.32 159.262 237.833 162.696 213.716C166.13 189.591 163.402 163.954 171.677 161.776C179.952 159.599 165.202 126.336 174.847 114.577L222.281 206.847L224.573 290.679Z" fill="black" fill-opacity="0.7"/>
<path d="M301.587 289.715C300.616 286.938 299.624 283.904 298.867 281.162C297.882 277.571 297.111 274.73 295.29 271.424C295.004 270.888 294.69 270.332 294.348 269.739C292.413 266.291 289.764 261.572 288.215 255.774C287.18 251.869 288.193 242.252 289.186 232.942C289.885 226.246 290.549 219.927 290.364 216.343L290.307 215.072C289.821 205.698 288.807 186.193 286.708 180.796C284.674 175.598 282.775 174.82 279.312 173.428C278.955 173.271 278.584 173.128 278.191 172.964C276.892 172.421 274.678 171.279 272.13 169.958C266.382 166.981 259.229 163.276 255.595 162.783C250.797 162.148 246.171 163.09 245.407 163.254C240.93 159.813 233.312 155.386 231.042 155.301C229.179 155.208 225.131 156.372 223.167 156.979C222.71 157.121 222.361 157.228 222.189 157.293C220.554 156.079 219.184 155.172 218.298 154.737C218.198 154.694 218.113 154.651 218.034 154.623C215.514 153.587 211.708 153.544 209.631 153.602C209.003 153.63 208.517 153.666 208.289 153.687C204.376 147.662 200.514 141.657 198.836 139.023C195.338 133.483 184.507 110.679 184.393 110.444C184.364 110.387 184.322 110.344 184.25 110.329C184.25 110.329 184.214 110.308 184.15 110.294C183.308 110.044 177.104 108.473 174.612 114.485C171.885 121.024 175.783 135.403 179.574 140.622C181.402 143.142 186.385 153.387 191.454 163.997C190.147 165.203 179.759 174.806 174.712 176.598C170.578 178.061 171.542 199.244 172.32 216.265C172.613 222.547 172.856 227.952 172.784 231.2C172.641 237.483 184.072 246.143 195.145 254.503C205.162 262.086 215.507 269.918 216.72 275.608C217.056 277.214 218.013 278.506 219.155 279.97C221.061 282.397 223.517 285.26 224.56 290.693C224.867 292.314 227.48 294.442 229.529 297.926H304.593C303.986 296.284 302.801 293.199 301.587 289.715ZM197.587 176.841C201.221 184.451 203.47 189.006 203.998 189.492C204.533 189.977 204.512 192.412 204.491 194.753C204.462 196.824 204.448 199.044 204.705 200.922C203.819 201.7 198.236 206.79 197.108 210.903L192.361 205.305L191.161 187.771C191.882 187.021 196.766 181.86 197.587 176.841Z" fill="white"/>
<path opacity="0.4" d="M280.069 225.745C281.832 242.201 281.854 251.126 283.831 255.888C287.166 263.927 292.092 265.555 292.092 265.555C290.671 262.77 289.215 259.493 288.222 255.766C287.187 251.861 288.201 242.244 289.193 232.935C289.893 226.238 290.564 219.912 290.371 216.328L290.307 215.057C289.821 205.683 288.808 186.178 286.709 180.781C284.681 175.583 282.775 174.805 279.312 173.413C278.955 173.256 278.584 173.113 278.184 172.949C276.885 172.406 274.679 171.264 272.123 169.943C266.376 166.966 259.222 163.261 255.588 162.768C250.79 162.133 246.164 163.068 245.4 163.239C240.923 159.805 233.306 155.379 231.035 155.286C229.179 155.2 224.146 156.664 222.189 157.278C230.735 164.267 243.094 172.963 243.094 172.963C252.853 174.905 251.604 179.146 255.545 181.509C259.122 183.651 262.535 177.382 265.519 176.833C269.453 176.104 273.936 180.281 273.736 185.314C273.179 199.279 278.555 211.616 280.069 225.745Z" fill="#2D82DE"/>
<path opacity="0.4" d="M230.735 174.748C230.735 174.748 223.003 168.337 219.298 166.16C215.593 163.989 215.021 156.628 217.934 154.836C218.034 154.772 218.149 154.737 218.291 154.722C218.198 154.679 218.106 154.629 218.027 154.601C215.507 153.559 211.702 153.523 209.624 153.587C213.936 161.562 217.327 167.687 218.248 169.023C221.368 173.535 230.735 174.748 230.735 174.748Z" fill="#2D82DE"/>
<path opacity="0.4" d="M219.005 274.672C219.326 272.966 216.52 267.968 215.285 265.94C212.472 261.314 179.895 232.528 184.621 224.839C189.326 217.135 193.645 222.847 196.637 223.339C198.786 223.696 204.662 220.191 204.633 219.898C203.962 213.98 209.431 210.131 209.431 210.131C209.431 210.131 208.924 186.571 207.674 186.978C206.418 187.378 191.382 151.595 191.382 151.595C191.382 151.595 175.497 130.462 176.389 120.61C177.282 110.765 184.171 110.543 184.171 110.543L184.157 110.279C183.315 110.029 177.11 108.458 174.619 114.47C171.891 121.01 175.79 135.388 179.581 140.607C181.408 143.128 186.392 153.373 191.461 163.982C190.154 165.189 179.766 174.791 174.719 176.583C170.585 178.047 171.549 199.229 172.327 216.25C172.62 222.533 172.862 227.937 172.791 231.186C172.648 237.468 184.079 246.129 195.152 254.489C205.168 262.071 215.514 269.903 216.727 275.593C217.063 277.199 218.019 278.492 219.162 279.955C218.976 277.885 218.841 275.572 219.005 274.672ZM197.586 176.84C201.22 184.451 203.469 189.006 203.998 189.491C204.533 189.977 204.512 192.411 204.49 194.753C204.462 196.823 204.447 199.044 204.704 200.922C203.819 201.7 198.236 206.79 197.108 210.902L192.36 205.305L191.161 187.771C191.882 187.021 196.765 181.859 197.586 176.84Z" fill="#2D82DE"/>
<path d="M226.274 174.655C226.274 174.655 221.505 173.399 218.249 169.029C214.986 164.66 202.171 144.762 198.623 139.144C195.074 133.525 184.165 110.55 184.165 110.55C184.165 110.55 177.454 108.301 174.841 114.577C172.228 120.845 175.805 135.003 179.782 140.464C183.758 145.919 202.671 187.949 204.17 189.313C205.669 190.669 203.42 201.871 206.426 204.584" stroke="#263238" stroke-miterlimit="10" stroke-linecap="round" stroke-linejoin="round"/>
<path d="M204.984 201.014C204.984 201.014 198.059 207.047 197.245 211.452L192.104 205.405L190.891 187.671C190.891 187.671 197.095 181.46 197.43 175.934" stroke="#263238" stroke-miterlimit="10" stroke-linecap="round" stroke-linejoin="round"/>
<path d="M191.769 164.039C191.769 164.039 180.267 174.891 174.798 176.826C169.329 178.761 173.313 219.42 173.042 231.193C172.77 242.966 214.422 263.47 216.971 275.529C217.985 280.319 222.183 281.297 224.746 290.486" stroke="#263238" stroke-miterlimit="10" stroke-linecap="round" stroke-linejoin="round"/>
<path d="M208.14 153.937C208.14 153.937 214.401 153.373 217.928 154.837C221.455 156.3 235.784 168.608 239.232 170.965C242.68 173.313 247.885 174.206 248.87 176.733" stroke="#263238" stroke-miterlimit="10" stroke-linecap="round" stroke-linejoin="round"/>
<path d="M222.14 157.563C222.14 157.563 228.587 155.436 231.014 155.543C233.449 155.65 242.708 161.119 246.849 164.753C250.99 168.387 255.145 170.4 257.637 171.307" stroke="#263238" stroke-miterlimit="10" stroke-linecap="round" stroke-linejoin="round"/>
<path d="M245.351 163.517C245.351 163.517 250.341 162.325 255.567 163.025C260.793 163.732 273.916 171.449 278.099 173.191C282.276 174.933 284.282 175.255 286.481 180.881C288.673 186.506 289.687 207.896 290.129 216.349C290.572 224.802 286.167 249.012 287.98 255.83C289.794 262.642 293.085 267.896 295.077 271.544" stroke="#263238" stroke-miterlimit="10" stroke-linecap="round" stroke-linejoin="round"/>
<path d="M190.891 187.67C190.891 187.67 189.848 183.508 188.478 182.973" stroke="#263238" stroke-miterlimit="10" stroke-linecap="round" stroke-linejoin="round"/>
<path d="M192.104 205.405C192.104 205.405 193.033 210.046 194.054 212.58C195.074 215.115 193.482 218.777 193.482 218.777" stroke="#263238" stroke-miterlimit="10" stroke-linecap="round" stroke-linejoin="round"/>
<path d="M197.245 211.452C197.073 215.507 201.114 220.248 202.092 219.577" stroke="#263238" stroke-miterlimit="10" stroke-linecap="round" stroke-linejoin="round"/>
<path d="M217.784 187.67C217.784 187.67 222.111 180.659 226.273 180.317C230.428 179.974 235.226 185.871 237.789 185.321C240.359 184.772 243.579 180.995 247.884 180.302C252.196 179.61 254.217 181.687 257.637 181.859C261.064 182.03 261.406 177.461 265.511 176.832C269.617 176.204 270.987 178.289 273.729 178.789C276.47 179.288 277.156 177.161 279.376 175.926" stroke="#263238" stroke-miterlimit="10" stroke-linecap="round" stroke-linejoin="round"/>
<path d="M132.52 200.053C133.205 200.053 133.642 199.647 133.688 199.068H133.074C133.019 199.361 132.808 199.529 132.525 199.529C132.124 199.529 131.865 199.194 131.865 198.636C131.865 198.086 132.129 197.756 132.525 197.756C132.834 197.756 133.024 197.955 133.074 198.217H133.688C133.644 197.626 133.182 197.237 132.516 197.237C131.717 197.237 131.213 197.814 131.213 198.647C131.213 199.473 131.705 200.053 132.52 200.053ZM134.984 200H135.627V198.397C135.627 198.05 135.888 197.805 136.241 197.805C136.349 197.805 136.484 197.825 136.539 197.843V197.251C136.481 197.241 136.38 197.234 136.309 197.234C135.996 197.234 135.735 197.411 135.636 197.727H135.607V197.273H134.984V200ZM138.83 200.053C139.465 200.053 139.902 199.743 140.016 199.268L139.415 199.201C139.328 199.432 139.115 199.553 138.838 199.553C138.423 199.553 138.148 199.279 138.142 198.812H140.042V198.615C140.042 197.658 139.467 197.237 138.796 197.237C138.015 197.237 137.505 197.811 137.505 198.652C137.505 199.508 138.007 200.053 138.83 200.053ZM138.144 198.379C138.164 198.031 138.421 197.738 138.805 197.738C139.174 197.738 139.423 198.008 139.426 198.379H138.144ZM142.139 200.055C142.567 200.055 142.822 199.854 142.94 199.625H142.961V200H143.579V198.175C143.579 197.454 142.991 197.237 142.471 197.237C141.897 197.237 141.457 197.493 141.315 197.99L141.915 198.075C141.979 197.889 142.16 197.729 142.474 197.729C142.773 197.729 142.936 197.882 142.936 198.15V198.161C142.936 198.345 142.742 198.354 142.261 198.406C141.732 198.462 141.226 198.62 141.226 199.235C141.226 199.771 141.619 200.055 142.139 200.055ZM142.306 199.583C142.038 199.583 141.846 199.46 141.846 199.224C141.846 198.977 142.061 198.874 142.348 198.833C142.517 198.81 142.854 198.768 142.938 198.7V199.022C142.938 199.325 142.693 199.583 142.306 199.583ZM146.355 197.273H145.817V196.619H145.174V197.273H144.787V197.77H145.174V199.286C145.171 199.799 145.544 200.051 146.026 200.037C146.209 200.032 146.335 199.996 146.405 199.973L146.296 199.471C146.261 199.48 146.188 199.496 146.108 199.496C145.947 199.496 145.817 199.439 145.817 199.18V197.77H146.355V197.273ZM148.839 200.053C149.474 200.053 149.911 199.743 150.025 199.268L149.425 199.201C149.338 199.432 149.124 199.553 148.847 199.553C148.432 199.553 148.157 199.279 148.151 198.812H150.051V198.615C150.051 197.658 149.476 197.237 148.805 197.237C148.024 197.237 147.514 197.811 147.514 198.652C147.514 199.508 148.016 200.053 148.839 200.053ZM148.153 198.379C148.173 198.031 148.43 197.738 148.814 197.738C149.183 197.738 149.432 198.008 149.435 198.379H148.153ZM155.527 197.994C155.438 197.532 155.069 197.237 154.43 197.237C153.773 197.237 153.325 197.56 153.327 198.065C153.325 198.462 153.57 198.725 154.094 198.833L154.559 198.931C154.81 198.986 154.927 199.087 154.927 199.242C154.927 199.428 154.724 199.569 154.419 199.569C154.124 199.569 153.932 199.441 153.877 199.196L153.251 199.256C153.33 199.757 153.751 200.053 154.421 200.053C155.102 200.053 155.584 199.7 155.585 199.183C155.584 198.794 155.333 198.556 154.818 198.445L154.353 198.345C154.076 198.283 153.966 198.187 153.968 198.029C153.966 197.844 154.17 197.717 154.438 197.717C154.735 197.717 154.891 197.878 154.941 198.058L155.527 197.994ZM158.245 197.273H157.707V196.619H157.065V197.273H156.677V197.77H157.065V199.286C157.061 199.799 157.434 200.051 157.917 200.037C158.1 200.032 158.226 199.996 158.295 199.973L158.187 199.471C158.151 199.48 158.078 199.496 157.998 199.496C157.837 199.496 157.707 199.439 157.707 199.18V197.77H158.245V197.273ZM160.711 200.053C161.51 200.053 162.018 199.49 162.018 198.647C162.018 197.802 161.51 197.237 160.711 197.237C159.912 197.237 159.404 197.802 159.404 198.647C159.404 199.49 159.912 200.053 160.711 200.053ZM160.715 199.538C160.273 199.538 160.056 199.144 160.056 198.645C160.056 198.146 160.273 197.747 160.715 197.747C161.15 197.747 161.366 198.146 161.366 198.645C161.366 199.144 161.15 199.538 160.715 199.538ZM163.332 200H163.974V198.397C163.974 198.05 164.235 197.805 164.589 197.805C164.697 197.805 164.832 197.825 164.887 197.843V197.251C164.828 197.241 164.727 197.234 164.656 197.234C164.344 197.234 164.083 197.411 163.983 197.727H163.955V197.273H163.332V200ZM167.177 200.053C167.813 200.053 168.249 199.743 168.363 199.268L167.763 199.201C167.676 199.432 167.463 199.553 167.186 199.553C166.77 199.553 166.495 199.279 166.49 198.812H168.39V198.615C168.39 197.658 167.814 197.237 167.143 197.237C166.362 197.237 165.852 197.811 165.852 198.652C165.852 199.508 166.355 200.053 167.177 200.053ZM166.492 198.379C166.511 198.031 166.769 197.738 167.152 197.738C167.522 197.738 167.77 198.008 167.774 198.379H166.492Z" fill="#F5F7FA"/>
<path d="M121.899 77.4697H122.659C122.644 76.7325 122.016 76.2105 121.087 76.2105C120.171 76.2105 119.482 76.7261 119.484 77.4974C119.484 78.1238 119.93 78.4839 120.648 78.6693L121.144 78.7971C121.615 78.9165 121.926 79.0635 121.928 79.4023C121.926 79.7751 121.573 80.0244 121.057 80.0244C120.563 80.0244 120.179 79.8028 120.147 79.3447H119.369C119.401 80.2119 120.047 80.6998 121.063 80.6998C122.109 80.6998 122.717 80.1778 122.719 79.4086C122.717 78.6523 122.092 78.3071 121.436 78.1515L121.027 78.0493C120.669 77.964 120.281 77.8128 120.286 77.4484C120.288 77.1203 120.582 76.8795 121.076 76.8795C121.547 76.8795 121.858 77.099 121.899 77.4697ZM124.157 80.6338H124.929V77.3611H124.157V80.6338ZM124.545 76.8966C124.79 76.8966 124.991 76.7091 124.991 76.479C124.991 76.2467 124.79 76.0592 124.545 76.0592C124.298 76.0592 124.098 76.2467 124.098 76.479C124.098 76.7091 124.298 76.8966 124.545 76.8966ZM127.913 81.9292C128.797 81.9292 129.449 81.5244 129.449 80.6871V77.3611H128.689V77.9023H128.646C128.529 77.6657 128.284 77.3184 127.707 77.3184C126.95 77.3184 126.356 77.9108 126.356 78.9868C126.356 80.0542 126.95 80.5869 127.704 80.5869C128.265 80.5869 128.527 80.2865 128.646 80.0457H128.685V80.6657C128.685 81.1473 128.365 81.3454 127.926 81.3454C127.462 81.3454 127.257 81.126 127.163 80.9342L126.469 81.1025C126.609 81.5606 127.08 81.9292 127.913 81.9292ZM127.92 79.9818C127.41 79.9818 127.142 79.5855 127.142 78.9825C127.142 78.3881 127.406 77.9513 127.92 77.9513C128.416 77.9513 128.689 78.3625 128.689 78.9825C128.689 79.6068 128.412 79.9818 127.92 79.9818ZM131.779 78.7162C131.779 78.2432 132.065 77.9704 132.472 77.9704C132.87 77.9704 133.109 78.2325 133.109 78.6693V80.6338H133.88V78.55C133.882 77.7659 133.435 77.3184 132.759 77.3184C132.269 77.3184 131.933 77.5528 131.783 77.9172H131.745V77.3611H131.008V80.6338H131.779V78.7162ZM139.774 79.2574C139.774 79.7559 139.419 80.0031 139.078 80.0031C138.707 80.0031 138.46 79.741 138.46 79.3256V77.3611H137.688V79.4449C137.688 80.2311 138.136 80.6764 138.779 80.6764C139.269 80.6764 139.615 80.4186 139.764 80.0521H139.798V80.6338H140.546V77.3611H139.774V79.2574ZM142.107 81.8611H142.878V80.1182H142.91C143.032 80.3568 143.285 80.6913 143.848 80.6913C144.619 80.6913 145.196 80.0798 145.196 79.0017C145.196 77.9108 144.602 77.3184 143.845 77.3184C143.268 77.3184 143.027 77.6657 142.91 77.9023H142.865V77.3611H142.107V81.8611ZM142.863 78.9974C142.863 78.3625 143.136 77.9513 143.632 77.9513C144.146 77.9513 144.41 78.3881 144.41 78.9974C144.41 79.6111 144.142 80.0585 143.632 80.0585C143.14 80.0585 142.863 79.6324 142.863 78.9974Z" fill="#026ADA"/>
<path d="M156.3 53.4139V54.8311H157.396V55.6046H156.3V59.2342C156.3 59.4686 156.349 59.6453 156.447 59.7643C156.544 59.8797 156.711 59.9374 156.946 59.9374C157.061 59.9374 157.22 59.9158 157.423 59.8725V60.6839C157.159 60.756 156.902 60.7921 156.653 60.7921C156.205 60.7921 155.867 60.6568 155.639 60.3864C155.411 60.1159 155.297 59.7319 155.297 59.2342V55.6046H154.229V54.8311H155.297V53.4139H156.3Z" fill="#027BFE"/>
<path d="M161.007 60.7921C160.211 60.7921 159.564 60.5324 159.066 60.0131C158.567 59.4903 158.317 58.7925 158.317 57.9198V57.7359C158.317 57.1553 158.428 56.6378 158.648 56.1834C158.872 55.7255 159.183 55.3684 159.581 55.1124C159.982 54.8528 160.416 54.723 160.882 54.723C161.645 54.723 162.237 54.9736 162.66 55.4748C163.083 55.9761 163.295 56.6937 163.295 57.6277V58.0442H159.32C159.335 58.6212 159.503 59.0882 159.825 59.4452C160.15 59.7986 160.562 59.9753 161.061 59.9753C161.415 59.9753 161.715 59.9032 161.961 59.7589C162.207 59.6147 162.422 59.4235 162.606 59.1855L163.219 59.6615C162.727 60.4152 161.99 60.7921 161.007 60.7921ZM160.882 55.5451C160.477 55.5451 160.137 55.693 159.863 55.9887C159.588 56.2808 159.418 56.6919 159.353 57.222H162.292V57.1463C162.263 56.6378 162.125 56.2447 161.88 55.9671C161.634 55.6858 161.301 55.5451 160.882 55.5451Z" fill="#027BFE"/>
<path d="M149.72 59.4882C149.454 59.6415 149.172 59.7181 148.875 59.7181C148.564 59.7181 148.31 59.6347 148.112 59.4678C147.914 59.3009 147.815 59.0694 147.815 58.7731C147.815 58.0954 148.395 57.7566 149.556 57.7566H150.298V58.8906C150.179 59.1358 149.986 59.335 149.72 59.4882Z" fill="#027BFE"/>
<path fill-rule="evenodd" clip-rule="evenodd" d="M153.886 57.7697C153.886 60.3598 151.845 62.4595 149.327 62.4595C146.81 62.4595 144.769 60.3598 144.769 57.7697C144.769 55.1795 146.81 53.0798 149.327 53.0798C151.845 53.0798 153.886 55.1795 153.886 57.7697ZM150.314 59.856C150.348 60.1353 150.392 60.3294 150.447 60.4384H151.44V60.3566C151.31 60.057 151.246 59.6534 151.246 59.146V56.6021C151.232 56.0436 151.044 55.606 150.682 55.2893C150.321 54.9692 149.821 54.8091 149.182 54.8091C148.779 54.8091 148.409 54.884 148.071 55.0339C147.737 55.1837 147.47 55.3881 147.272 55.6469C147.078 55.9023 146.98 56.1679 146.98 56.4438H147.933C147.933 56.202 148.047 55.9959 148.276 55.8257C148.505 55.6554 148.788 55.5702 149.126 55.5702C149.512 55.5702 149.803 55.669 150.001 55.8665C150.199 56.0606 150.298 56.3229 150.298 56.6532V57.0874H149.377C148.581 57.0874 147.964 57.2474 147.523 57.5676C147.086 57.8843 146.868 58.3304 146.868 58.9059C146.868 59.3793 147.042 59.7709 147.39 60.0808C147.742 60.3873 148.191 60.5405 148.737 60.5405C149.348 60.5405 149.873 60.3124 150.314 59.856Z" fill="#027BFE"/>
<path fill-rule="evenodd" clip-rule="evenodd" d="M148.329 49.3099C148.476 49.2429 148.912 49.0731 149.043 49.5645L149.978 52.187C150.016 52.3296 150.043 52.4603 150.04 52.5714C149.807 52.5375 149.569 52.5197 149.327 52.5197C149.175 52.5197 149.025 52.5273 148.877 52.5409L147.353 50.4557C147.02 50.0704 147.407 49.8064 147.545 49.7232L148.329 49.3099Z" fill="#027BFE"/>
</svg>
