<svg width="38" height="39" viewBox="0 0 38 39" fill="none" xmlns="http://www.w3.org/2000/svg">
<ellipse opacity="0.0649182" rx="18.5888" ry="19.4353" transform="matrix(-1 0 0 1 18.5889 19.4353)" fill="#027BFE"/>
<path d="M11.3503 25.6735L12.5779 14.3235C12.6081 14.0446 12.8437 13.8329 13.1244 13.8329H15.1531V13.4652C15.153 11.5807 16.6863 10.0474 18.5709 10.0474C20.4554 10.0474 21.9887 11.5807 21.9887 13.4652V13.8329H24.0176C24.2983 13.8329 24.5339 14.0444 24.5642 14.3235L25.7917 25.6735C25.8552 26.2606 25.6654 26.8492 25.271 27.2886C24.8765 27.7281 24.3116 27.9801 23.7211 27.9801H13.4211C12.8306 27.9801 12.2656 27.7281 11.8711 27.2886C11.4766 26.8492 11.2869 26.2605 11.3503 25.6735ZM20.8893 13.4652C20.8893 12.1869 19.8492 11.1468 18.5709 11.1468C17.2925 11.1468 16.2526 12.1869 16.2526 13.4652V13.8329H20.8893V13.4652ZM12.6894 26.5542C12.8783 26.7646 13.1381 26.8806 13.4209 26.8806H23.7211C24.0039 26.8806 24.2637 26.7646 24.4528 26.5542C24.6416 26.3436 24.729 26.0729 24.6985 25.7917L23.5241 14.9325H21.9887V16.3334C21.9887 16.637 21.7426 16.8831 21.439 16.8831C21.1354 16.8831 20.8893 16.637 20.8893 16.3334V14.9325H16.2526V16.3334C16.2526 16.637 16.0065 16.8831 15.7029 16.8831C15.3991 16.8831 15.153 16.637 15.153 16.3334V14.9325H13.6179L12.4435 25.7917C12.4131 26.0729 12.5004 26.3436 12.6894 26.5542Z" fill="#027BFE"/>
<path d="M18.5773 20.0252H17.7676C17.464 20.0252 17.2179 19.7791 17.2179 19.4755C17.2179 19.1719 17.464 18.9258 17.7676 18.9258H18.0274V18.7133C18.0274 18.4097 18.2737 18.1636 18.5773 18.1636C18.8809 18.1636 19.127 18.4097 19.127 18.7133V19.0488C19.6034 19.2722 19.9365 19.7762 19.9365 20.3611C19.9365 21.1527 19.3267 21.7966 18.5773 21.7966C18.4363 21.7966 18.3173 21.9504 18.3173 22.1325C18.3173 22.3147 18.4363 22.4685 18.5773 22.4685H19.3868C19.6904 22.4685 19.9365 22.7146 19.9365 23.0182C19.9365 23.3218 19.6904 23.5679 19.3868 23.5679H19.127V23.7803C19.127 24.084 18.8809 24.3301 18.5773 24.3301C18.2737 24.3301 18.0274 24.084 18.0274 23.7803V23.4449C17.5511 23.2215 17.2179 22.7175 17.2179 22.1325C17.2179 21.341 17.8276 20.6971 18.5773 20.6971C18.718 20.6971 18.8371 20.5432 18.8371 20.3611C18.8371 20.179 18.718 20.0252 18.5773 20.0252Z" fill="#027BFE"/>
</svg>
