<svg width="331" height="323" viewBox="0 0 331 323" fill="none" xmlns="http://www.w3.org/2000/svg">
<ellipse cx="163.078" cy="129.212" rx="127.994" ry="128.4" fill="#D4E9FF"/>
<circle cx="186.644" cy="127.994" r="127.994" fill="#027BFE"/>
<path d="M165.376 322.441C256.711 322.441 330.752 318.984 330.752 314.72C330.752 310.456 256.711 307 165.376 307C74.0413 307 0 310.456 0 314.72C0 318.984 74.0413 322.441 165.376 322.441Z" fill="#939393"/>
<path d="M92.7823 261.676H26.957V312.061H92.7823V261.676Z" fill="#027BFE"/>
<path d="M94.4081 260.051H24.5195V267.365H94.4081V260.051Z" fill="#D4E9FF"/>
<path d="M92.7823 267.364H26.957V272.24H92.7823V267.364Z" fill="#0869D1"/>
<path d="M62.714 260.051H57.0254V312.061H62.714V260.051Z" fill="white"/>
<path d="M62.714 272.24H57.0254V312.06H62.714V272.24Z" fill="#E9E2E8"/>
<path d="M62.714 267.364H57.0254V272.24H62.714V267.364Z" fill="#D4CAD4"/>
<path d="M18.0009 270.615C18.0388 270.919 18.015 271.228 17.9311 271.522C17.8472 271.816 17.7052 272.087 17.5145 272.318C17.3238 272.549 17.0889 272.734 16.8254 272.86C16.5619 272.987 16.276 273.053 15.9867 273.053C15.6974 273.053 15.4115 272.987 15.148 272.86C14.8845 272.734 14.6496 272.549 14.4589 272.318C14.2682 272.087 14.1262 271.816 14.0423 271.522C13.9585 271.228 13.9347 270.919 13.9726 270.615C13.9347 270.31 13.9585 270.001 14.0423 269.707C14.1262 269.414 14.2682 269.142 14.4589 268.911C14.6496 268.681 14.8845 268.496 15.148 268.369C15.4115 268.242 15.6974 268.177 15.9867 268.177C16.276 268.177 16.5619 268.242 16.8254 268.369C17.0889 268.496 17.3238 268.681 17.5145 268.911C17.7052 269.142 17.8472 269.414 17.9311 269.707C18.015 270.001 18.0388 270.31 18.0009 270.615Z" fill="#0033A8"/>
<path d="M163.458 56.0732H116.376C110.527 56.0732 105.785 60.8102 105.785 66.6536V169.83C105.785 175.673 110.527 180.41 116.376 180.41H163.458C169.307 180.41 174.048 175.673 174.048 169.83V66.6536C174.048 60.8102 169.307 56.0732 163.458 56.0732Z" fill="#939393"/>
<path d="M164.466 148.716H115.368C115.197 148.716 115.034 148.631 114.913 148.478C114.792 148.326 114.725 148.119 114.725 147.903C114.725 147.688 114.792 147.481 114.913 147.329C115.034 147.176 115.197 147.091 115.368 147.091H164.466C164.637 147.091 164.8 147.176 164.921 147.329C165.042 147.481 165.109 147.688 165.109 147.903C165.109 148.119 165.042 148.326 164.921 148.478C164.8 148.631 164.637 148.716 164.466 148.716Z" fill="#D4E9FF"/>
<path d="M164.466 154.405H115.368C115.197 154.405 115.034 154.319 114.913 154.167C114.792 154.014 114.725 153.807 114.725 153.592C114.725 153.376 114.792 153.17 114.913 153.017C115.034 152.865 115.197 152.779 115.368 152.779H164.466C164.551 152.779 164.634 152.8 164.712 152.841C164.79 152.882 164.861 152.942 164.921 153.017C164.981 153.093 165.028 153.182 165.06 153.281C165.093 153.38 165.109 153.485 165.109 153.592C165.109 153.699 165.093 153.804 165.06 153.903C165.028 154.002 164.981 154.091 164.921 154.167C164.861 154.242 164.79 154.302 164.712 154.343C164.634 154.384 164.551 154.405 164.466 154.405Z" fill="#D4E9FF"/>
<path d="M164.466 159.281H115.368C115.197 159.281 115.034 159.239 114.913 159.162C114.792 159.086 114.725 158.983 114.725 158.875C114.725 158.767 114.792 158.664 114.913 158.588C115.034 158.512 115.197 158.469 115.368 158.469H164.466C164.637 158.469 164.8 158.512 164.921 158.588C165.042 158.664 165.109 158.767 165.109 158.875C165.109 158.983 165.042 159.086 164.921 159.162C164.8 159.239 164.637 159.281 164.466 159.281Z" fill="#D4E9FF"/>
<path d="M164.466 164.97H115.368C115.197 164.97 115.034 164.927 114.913 164.851C114.792 164.775 114.725 164.671 114.725 164.564C114.725 164.456 114.792 164.352 114.913 164.276C115.034 164.2 115.197 164.157 115.368 164.157H164.466C164.637 164.157 164.8 164.2 164.921 164.276C165.042 164.352 165.109 164.456 165.109 164.564C165.109 164.671 165.042 164.775 164.921 164.851C164.8 164.927 164.637 164.97 164.466 164.97Z" fill="#D4E9FF"/>
<path d="M164.466 170.658H115.368C115.197 170.658 115.034 170.616 114.913 170.539C114.792 170.463 114.725 170.36 114.725 170.252C114.725 170.144 114.792 170.041 114.913 169.965C115.034 169.889 115.197 169.846 115.368 169.846H164.466C164.637 169.846 164.8 169.889 164.921 169.965C165.042 170.041 165.109 170.144 165.109 170.252C165.109 170.36 165.042 170.463 164.921 170.539C164.8 170.616 164.637 170.658 164.466 170.658Z" fill="#D4E9FF"/>
<path d="M161.858 131.971L161.498 132.4C161.137 132.757 160.525 133.365 159.66 134.081C158.171 135.32 156.537 136.377 154.793 137.228C154.253 137.514 153.676 137.764 153.063 138.015C151.89 138.507 150.686 138.925 149.459 139.266L147.837 139.696C145.103 140.297 142.31 140.597 139.51 140.59C136.773 140.599 134.046 140.251 131.4 139.553L129.345 138.945C125.882 137.805 122.639 136.087 119.757 133.866C119.046 133.327 118.372 132.741 117.739 132.114C117.535 131.935 117.342 131.744 117.162 131.541L119.181 128.609C119.506 128.185 119.806 127.743 120.082 127.285C121.091 125.819 122.244 124.067 123.434 122.207L124.515 120.454C126.429 117.501 128.058 114.376 129.381 111.12C129.381 111.12 129.381 110.834 129.381 110.691C129.499 110.315 129.595 109.933 129.67 109.546C129.816 108.43 129.816 107.3 129.67 106.184C129.67 105.469 129.67 104.789 129.381 104.074C128.649 100.519 127.437 97.0787 125.777 93.8455L125.38 93.0586C129.201 87.9443 128.12 79.6469 127.507 76.3566L128.985 75.2479C129.227 75.0601 129.51 74.9318 129.811 74.8734C130.113 74.815 130.424 74.8282 130.719 74.9119C131.015 74.9956 131.286 75.1474 131.51 75.355C131.735 75.5626 131.907 75.82 132.013 76.1062C132.662 78.2123 133.84 80.12 135.437 81.6497C136.683 82.7864 138.323 83.4015 140.015 83.3664H140.916C141.802 83.2363 142.651 82.9193 143.403 82.4366C145.034 81.2975 146.288 79.7045 147.008 77.8587C147.188 77.358 147.368 76.8215 147.512 76.3208V76.0347C147.735 75.5411 148.137 75.149 148.638 74.9368C149.139 74.7246 149.703 74.708 150.216 74.8902L150.973 75.1406C150.837 79.5325 151.421 83.9172 152.703 88.1231C152.703 88.5881 152.991 89.053 153.135 89.4464C153.456 90.3663 153.866 91.2527 154.361 92.093C154.361 92.093 154.361 92.3434 154.109 92.6652C153.856 92.9871 153.568 93.9885 153.171 95.0257C152.523 96.7424 151.694 99.1386 150.901 101.928C150.205 104.845 150.059 107.864 150.468 110.834C151.017 114.254 152.15 117.556 153.82 120.597L155.01 122.779C156.756 125.789 158.719 128.67 160.885 131.398L161.858 131.971Z" fill="#D4E9FF"/>
<path d="M132.602 77.2028C132.602 77.6338 132.43 78.0471 132.126 78.3518C131.821 78.6566 131.408 78.8278 130.977 78.8278C130.549 78.8167 130.142 78.6419 129.84 78.3395C129.537 78.0372 129.363 77.6303 129.352 77.2028C129.352 76.7718 129.523 76.3585 129.828 76.0537C130.132 75.749 130.546 75.5778 130.977 75.5778C131.192 75.5717 131.406 75.6096 131.606 75.6891C131.805 75.7686 131.987 75.8881 132.139 76.0402C132.291 76.1924 132.411 76.3739 132.49 76.5738C132.57 76.7737 132.608 76.9877 132.602 77.2028Z" fill="#939393"/>
<path d="M149.668 77.1392C149.668 77.587 149.531 78.0165 149.286 78.3332C149.04 78.6499 148.708 78.8278 148.361 78.8278C148.126 78.8257 147.895 78.7392 147.696 78.5781C147.496 78.4169 147.335 78.1874 147.23 77.915C147.407 77.2761 147.584 76.5916 147.725 75.9526V75.5875H148.255C148.428 75.5623 148.603 75.5831 148.769 75.6486C148.935 75.7141 149.089 75.8229 149.222 75.9683C149.354 76.1137 149.462 76.2926 149.539 76.494C149.616 76.6954 149.66 76.915 149.668 77.1392Z" fill="#939393"/>
<path d="M132.602 82.8913C132.602 83.3222 132.43 83.7356 132.126 84.0403C131.821 84.3451 131.408 84.5163 130.977 84.5163C130.549 84.5051 130.142 84.3304 129.84 84.028C129.537 83.7256 129.363 83.3187 129.352 82.8913C129.352 82.4603 129.523 82.0469 129.828 81.7422C130.132 81.4375 130.546 81.2663 130.977 81.2663C131.192 81.2602 131.406 81.2981 131.606 81.3776C131.805 81.4571 131.987 81.5766 132.139 81.7287C132.291 81.8808 132.411 82.0624 132.49 82.2623C132.57 82.4622 132.608 82.6762 132.602 82.8913Z" fill="#939393"/>
<path d="M138.292 82.9865C138.248 83.409 138.063 83.7991 137.771 84.0816C137.479 84.364 137.101 84.5189 136.71 84.5162C136.275 84.5164 135.857 84.3316 135.545 84.0012C135.233 83.6708 135.052 83.221 135.041 82.7475C135.048 82.4588 135.114 82.1755 135.236 81.9188C135.358 81.6621 135.531 81.4388 135.744 81.2656C136.504 81.9819 137.364 82.5628 138.292 82.9865Z" fill="#939393"/>
<path d="M143.976 82.6321C143.98 83.0629 143.881 83.4821 143.698 83.8182C143.514 84.1544 143.257 84.3868 142.97 84.4759C142.683 84.5649 142.384 84.5051 142.124 84.3067C141.863 84.1083 141.658 83.7834 141.542 83.3875C142.385 83.2043 143.192 82.7578 143.908 82.0781C143.966 82.2494 143.99 82.4416 143.976 82.6321Z" fill="#939393"/>
<path d="M149.668 82.8913C149.668 83.3222 149.54 83.7356 149.311 84.0403C149.082 84.3451 148.772 84.5163 148.449 84.5163C148.129 84.5051 147.823 84.3304 147.597 84.028C147.37 83.7256 147.239 83.3187 147.23 82.8913C147.23 82.4603 147.359 82.0469 147.587 81.7422C147.816 81.4375 148.126 81.2663 148.449 81.2663C148.611 81.2602 148.771 81.2981 148.921 81.3776C149.071 81.4571 149.207 81.5766 149.321 81.7287C149.435 81.8808 149.525 82.0624 149.584 82.2623C149.644 82.4622 149.673 82.6762 149.668 82.8913Z" fill="#939393"/>
<path d="M132.602 88.1729C132.608 88.3341 132.57 88.4947 132.49 88.6446C132.411 88.7945 132.291 88.9307 132.139 89.0448C131.987 89.1588 131.805 89.2485 131.606 89.3081C131.406 89.3677 131.192 89.3962 130.977 89.3916C130.546 89.3916 130.132 89.2632 129.828 89.0346C129.523 88.8061 129.352 88.4961 129.352 88.1729C129.363 87.8522 129.537 87.5471 129.84 87.3203C130.142 87.0935 130.549 86.9624 130.977 86.9541C131.408 86.9541 131.821 87.0825 132.126 87.3111C132.43 87.5396 132.602 87.8496 132.602 88.1729Z" fill="#939393"/>
<path d="M137.072 89.3921C137.746 89.3921 138.291 88.8463 138.291 88.1731C138.291 87.4999 137.746 86.9541 137.072 86.9541C136.399 86.9541 135.854 87.4999 135.854 88.1731C135.854 88.8463 136.399 89.3921 137.072 89.3921Z" fill="#939393"/>
<path d="M142.761 89.3921C143.434 89.3921 143.98 88.8463 143.98 88.1731C143.98 87.4999 143.434 86.9541 142.761 86.9541C142.088 86.9541 141.542 87.4999 141.542 88.1731C141.542 88.8463 142.088 89.3921 142.761 89.3921Z" fill="#939393"/>
<path d="M149.668 88.1729C149.673 88.3341 149.644 88.4947 149.584 88.6446C149.525 88.7945 149.435 88.9307 149.321 89.0448C149.207 89.1588 149.071 89.2485 148.921 89.3081C148.771 89.3677 148.611 89.3962 148.449 89.3916C148.126 89.3916 147.816 89.2632 147.587 89.0346C147.359 88.8061 147.23 88.4961 147.23 88.1729C147.239 87.8522 147.37 87.5471 147.597 87.3203C147.823 87.0935 148.129 86.9624 148.449 86.9541C148.772 86.9541 149.082 87.0825 149.311 87.3111C149.54 87.5396 149.668 87.8496 149.668 88.1729Z" fill="#939393"/>
<path d="M126.914 94.2679L126.102 92.6426C126.541 93.0825 126.826 93.6526 126.914 94.2679Z" fill="#CE101D"/>
<path d="M132.602 93.8613C132.608 94.0226 132.57 94.1831 132.49 94.3331C132.411 94.483 132.291 94.6191 132.139 94.7332C131.987 94.8473 131.805 94.9369 131.606 94.9966C131.406 95.0562 131.192 95.0846 130.977 95.0801C130.546 95.0801 130.132 94.9517 129.828 94.7231C129.523 94.4946 129.352 94.1846 129.352 93.8613C129.363 93.5407 129.537 93.2355 129.84 93.0088C130.142 92.782 130.549 92.6509 130.977 92.6426C131.408 92.6426 131.821 92.771 132.126 92.9995C132.43 93.2281 132.602 93.5381 132.602 93.8613Z" fill="#939393"/>
<path d="M137.072 95.0806C137.746 95.0806 138.291 94.5348 138.291 93.8616C138.291 93.1883 137.746 92.6426 137.072 92.6426C136.399 92.6426 135.854 93.1883 135.854 93.8616C135.854 94.5348 136.399 95.0806 137.072 95.0806Z" fill="#939393"/>
<path d="M142.761 95.0806C143.434 95.0806 143.98 94.5348 143.98 93.8616C143.98 93.1883 143.434 92.6426 142.761 92.6426C142.088 92.6426 141.542 93.1883 141.542 93.8616C141.542 94.5348 142.088 95.0806 142.761 95.0806Z" fill="#939393"/>
<path d="M149.668 93.8613C149.673 94.0226 149.644 94.1831 149.584 94.3331C149.525 94.483 149.435 94.6191 149.321 94.7332C149.207 94.8473 149.071 94.9369 148.921 94.9966C148.771 95.0562 148.611 95.0846 148.449 95.0801C148.126 95.0801 147.816 94.9517 147.587 94.7231C147.359 94.4946 147.23 94.1846 147.23 93.8613C147.239 93.5407 147.37 93.2355 147.597 93.0088C147.823 92.782 148.129 92.6509 148.449 92.6426C148.772 92.6426 149.082 92.771 149.311 92.9995C149.54 93.2281 149.668 93.5381 149.668 93.8613Z" fill="#939393"/>
<path d="M154.544 92.6426C154.301 93.1597 153.935 94.0093 153.489 95.0806C153.304 94.9586 153.155 94.797 153.056 94.61C152.957 94.4231 152.91 94.2167 152.92 94.0093C152.92 93.6468 153.079 93.2992 153.36 93.0429C153.642 92.7866 154.024 92.6426 154.422 92.6426H154.544Z" fill="#939393"/>
<path d="M132.603 99.5348C132.607 99.6954 132.577 99.8553 132.513 100.005C132.449 100.155 132.354 100.291 132.232 100.406C132.11 100.521 131.964 100.613 131.802 100.675C131.641 100.738 131.468 100.77 131.293 100.77C130.978 100.723 130.692 100.574 130.485 100.351C130.278 100.127 130.165 99.844 130.165 99.551C130.165 99.258 130.278 98.9746 130.485 98.7513C130.692 98.528 130.978 98.3794 131.293 98.332C131.64 98.332 131.973 98.4588 132.219 98.6843C132.465 98.9099 132.603 99.2158 132.603 99.5348Z" fill="#939393"/>
<path d="M138.291 99.5194C138.3 99.7631 138.21 100.003 138.035 100.208C137.86 100.414 137.606 100.575 137.308 100.671C137.009 100.767 136.679 100.794 136.36 100.748C136.04 100.702 135.747 100.585 135.517 100.413C135.287 100.241 135.132 100.02 135.07 99.7811C135.009 99.5416 135.045 99.2939 135.173 99.0699C135.301 98.8459 135.516 98.6559 135.79 98.5245C136.064 98.393 136.384 98.3261 136.709 98.3324C137.125 98.3406 137.521 98.4682 137.816 98.6891C138.11 98.9099 138.28 99.2071 138.291 99.5194Z" fill="#939393"/>
<path d="M143.98 99.5009C143.98 99.8318 143.835 100.15 143.575 100.387C143.316 100.624 142.963 100.761 142.591 100.77C142.293 100.697 142.029 100.54 141.84 100.323C141.651 100.105 141.546 99.8386 141.542 99.5636C141.538 99.2885 141.634 99.0197 141.817 98.7976C141.999 98.5755 142.258 98.4121 142.553 98.332C142.913 98.331 143.26 98.4509 143.524 98.6676C143.789 98.8844 143.952 99.182 143.98 99.5009Z" fill="#939393"/>
<path d="M149.668 99.5348C149.673 99.6954 149.642 99.8553 149.579 100.005C149.515 100.155 149.419 100.291 149.297 100.406C149.175 100.521 149.029 100.613 148.868 100.675C148.706 100.738 148.533 100.77 148.358 100.77C148.043 100.723 147.757 100.574 147.55 100.351C147.344 100.127 147.23 99.844 147.23 99.551C147.23 99.258 147.344 98.9746 147.55 98.7513C147.757 98.528 148.043 98.3794 148.358 98.332C148.706 98.332 149.039 98.4588 149.284 98.6843C149.53 98.9099 149.668 99.2158 149.668 99.5348Z" fill="#939393"/>
<path d="M132.602 105.24C132.602 105.563 132.452 105.873 132.183 106.102C131.915 106.33 131.551 106.458 131.171 106.458C130.926 106.455 130.686 106.398 130.475 106.294C130.475 105.635 130.475 105.009 130.165 104.35C130.443 104.142 130.8 104.025 131.171 104.021C131.36 104.016 131.549 104.045 131.725 104.104C131.901 104.164 132.061 104.254 132.195 104.368C132.329 104.482 132.434 104.618 132.504 104.768C132.574 104.918 132.608 105.078 132.602 105.24Z" fill="#939393"/>
<path d="M138.27 105.096C138.208 105.477 138.012 105.822 137.719 106.072C137.425 106.322 137.052 106.459 136.666 106.459C136.281 106.459 135.908 106.322 135.614 106.072C135.32 105.822 135.125 105.477 135.062 105.096C135.024 104.864 135.037 104.625 135.1 104.398C135.163 104.171 135.275 103.961 135.428 103.781C135.58 103.601 135.77 103.457 135.984 103.358C136.198 103.259 136.431 103.208 136.666 103.208C136.902 103.208 137.135 103.259 137.349 103.358C137.563 103.457 137.752 103.601 137.905 103.781C138.058 103.961 138.169 104.171 138.232 104.398C138.295 104.625 138.308 104.864 138.27 105.096Z" fill="#939393"/>
<path d="M143.98 104.855C143.971 105.277 143.83 105.678 143.586 105.977C143.343 106.275 143.015 106.448 142.67 106.459C142.355 106.395 142.069 106.197 141.862 105.9C141.655 105.602 141.542 105.224 141.542 104.833C141.542 104.443 141.655 104.065 141.862 103.767C142.069 103.469 142.355 103.271 142.67 103.208C143.021 103.219 143.354 103.398 143.598 103.705C143.843 104.013 143.98 104.426 143.98 104.855Z" fill="#939393"/>
<path d="M149.668 104.855C149.668 105.28 149.53 105.688 149.284 105.989C149.039 106.29 148.706 106.459 148.358 106.459C148.043 106.395 147.757 106.197 147.55 105.9C147.344 105.602 147.23 105.224 147.23 104.833C147.23 104.443 147.344 104.065 147.55 103.767C147.757 103.469 148.043 103.271 148.358 103.208C148.533 103.208 148.706 103.251 148.868 103.334C149.029 103.417 149.175 103.539 149.297 103.693C149.419 103.846 149.515 104.028 149.579 104.228C149.642 104.428 149.673 104.641 149.668 104.855Z" fill="#939393"/>
<path d="M132.601 110.53C132.601 110.959 132.423 111.37 132.105 111.673C131.787 111.977 131.357 112.147 130.908 112.147C130.573 112.145 130.247 112.048 129.97 111.869C129.693 111.69 129.478 111.437 129.352 111.142C129.352 111.142 129.352 110.792 129.352 110.617C129.5 110.157 129.623 109.69 129.718 109.218C130.006 109.007 130.362 108.899 130.725 108.912C130.963 108.88 131.206 108.898 131.437 108.965C131.667 109.033 131.879 109.148 132.058 109.302C132.237 109.456 132.379 109.646 132.472 109.858C132.566 110.07 132.61 110.299 132.601 110.53Z" fill="#939393"/>
<path d="M137.072 112.147C137.746 112.147 138.291 111.419 138.291 110.522C138.291 109.624 137.746 108.896 137.072 108.896C136.399 108.896 135.854 109.624 135.854 110.522C135.854 111.419 136.399 112.147 137.072 112.147Z" fill="#939393"/>
<path d="M142.761 112.147C143.434 112.147 143.98 111.419 143.98 110.522C143.98 109.624 143.434 108.896 142.761 108.896C142.088 108.896 141.542 109.624 141.542 110.522C141.542 111.419 142.088 112.147 142.761 112.147Z" fill="#939393"/>
<path d="M149.668 110.522C149.668 110.953 149.54 111.366 149.311 111.671C149.082 111.976 148.772 112.147 148.449 112.147C148.129 112.136 147.823 111.961 147.597 111.659C147.37 111.356 147.239 110.95 147.23 110.522C147.23 110.091 147.359 109.678 147.587 109.373C147.816 109.068 148.126 108.897 148.449 108.897C148.611 108.891 148.771 108.929 148.921 109.008C149.071 109.088 149.207 109.207 149.321 109.36C149.435 109.512 149.525 109.693 149.584 109.893C149.644 110.093 149.673 110.307 149.668 110.522Z" fill="#939393"/>
<path d="M132.602 116.616C132.608 116.778 132.57 116.938 132.49 117.088C132.411 117.238 132.291 117.374 132.139 117.488C131.987 117.602 131.805 117.692 131.606 117.751C131.406 117.811 131.192 117.84 130.977 117.835C130.546 117.835 130.132 117.707 129.828 117.478C129.523 117.25 129.352 116.94 129.352 116.616C129.352 116.293 129.523 115.983 129.828 115.755C130.132 115.526 130.546 115.398 130.977 115.398C131.192 115.393 131.406 115.422 131.606 115.481C131.805 115.541 131.987 115.631 132.139 115.745C132.291 115.859 132.411 115.995 132.49 116.145C132.57 116.295 132.608 116.455 132.602 116.616Z" fill="#939393"/>
<path d="M137.072 117.835C137.746 117.835 138.291 117.29 138.291 116.616C138.291 115.943 137.746 115.397 137.072 115.397C136.399 115.397 135.854 115.943 135.854 116.616C135.854 117.29 136.399 117.835 137.072 117.835Z" fill="#939393"/>
<path d="M142.761 117.835C143.434 117.835 143.98 117.29 143.98 116.616C143.98 115.943 143.434 115.397 142.761 115.397C142.088 115.397 141.542 115.943 141.542 116.616C141.542 117.29 142.088 117.835 142.761 117.835Z" fill="#939393"/>
<path d="M149.668 116.616C149.673 116.778 149.644 116.938 149.584 117.088C149.525 117.238 149.435 117.374 149.321 117.488C149.207 117.602 149.071 117.692 148.921 117.751C148.771 117.811 148.611 117.84 148.449 117.835C148.126 117.835 147.816 117.707 147.587 117.478C147.359 117.25 147.23 116.94 147.23 116.616C147.23 116.293 147.359 115.983 147.587 115.755C147.816 115.526 148.126 115.398 148.449 115.398C148.611 115.393 148.771 115.422 148.921 115.481C149.071 115.541 149.207 115.631 149.321 115.745C149.435 115.859 149.525 115.995 149.584 116.145C149.644 116.295 149.673 116.455 149.668 116.616Z" fill="#939393"/>
<path d="M126.914 122.308C126.914 122.631 126.738 122.94 126.424 123.168C126.111 123.396 125.686 123.524 125.243 123.524C124.893 123.529 124.551 123.452 124.266 123.304C123.981 123.156 123.77 122.945 123.663 122.702L125.018 121.093C125.254 121.075 125.493 121.092 125.719 121.145C125.945 121.197 126.154 121.283 126.333 121.398C126.511 121.512 126.655 121.652 126.755 121.809C126.855 121.965 126.909 122.135 126.914 122.308Z" fill="#939393"/>
<path d="M132.602 122.305C132.608 122.466 132.57 122.626 132.49 122.776C132.411 122.926 132.291 123.063 132.139 123.177C131.987 123.291 131.805 123.38 131.606 123.44C131.406 123.5 131.192 123.528 130.977 123.523C130.546 123.523 130.132 123.395 129.828 123.166C129.523 122.938 129.352 122.628 129.352 122.305C129.363 121.984 129.537 121.679 129.84 121.452C130.142 121.225 130.549 121.094 130.977 121.086C131.408 121.086 131.821 121.214 132.126 121.443C132.43 121.671 132.602 121.981 132.602 122.305Z" fill="#939393"/>
<path d="M138.292 121.899C138.228 122.126 138.03 122.332 137.733 122.481C137.435 122.63 137.057 122.711 136.666 122.711C136.276 122.711 135.898 122.63 135.6 122.481C135.302 122.332 135.104 122.126 135.041 121.899C135.104 121.672 135.302 121.465 135.6 121.317C135.898 121.168 136.276 121.086 136.666 121.086C137.057 121.086 137.435 121.168 137.733 121.317C138.03 121.465 138.228 121.672 138.292 121.899Z" fill="#939393"/>
<path d="M143.976 122.206C143.99 122.377 143.968 122.549 143.912 122.711C143.855 122.872 143.766 123.02 143.65 123.145C143.533 123.269 143.392 123.367 143.236 123.432C143.08 123.498 142.912 123.529 142.743 123.523C142.584 123.528 142.426 123.499 142.278 123.44C142.131 123.38 141.996 123.291 141.884 123.177C141.772 123.062 141.683 122.926 141.625 122.776C141.566 122.626 141.538 122.466 141.542 122.305C141.542 121.981 141.669 121.671 141.894 121.443C142.119 121.214 142.425 121.086 142.743 121.086C143.049 121.084 143.344 121.198 143.572 121.405C143.8 121.612 143.944 121.897 143.976 122.206Z" fill="#939393"/>
<path d="M149.668 122.305C149.673 122.466 149.644 122.626 149.584 122.776C149.525 122.926 149.435 123.063 149.321 123.177C149.207 123.291 149.071 123.38 148.921 123.44C148.771 123.5 148.611 123.528 148.449 123.523C148.126 123.523 147.816 123.395 147.587 123.166C147.359 122.938 147.23 122.628 147.23 122.305C147.239 121.984 147.37 121.679 147.597 121.452C147.823 121.225 148.129 121.094 148.449 121.086C148.772 121.086 149.082 121.214 149.311 121.443C149.54 121.671 149.668 121.981 149.668 122.305Z" fill="#939393"/>
<path d="M155.357 123.095C155.227 123.229 155.066 123.336 154.885 123.41C154.704 123.484 154.507 123.523 154.307 123.523C154.123 123.528 153.941 123.5 153.77 123.44C153.599 123.38 153.444 123.291 153.314 123.177C153.184 123.063 153.082 122.926 153.015 122.776C152.947 122.626 152.914 122.466 152.919 122.305C152.924 122.01 153.047 121.726 153.267 121.503C153.486 121.28 153.788 121.132 154.119 121.086L155.357 123.095Z" fill="#939393"/>
<path d="M120.413 127.631C120.416 127.804 120.338 127.973 120.191 128.111C120.045 128.25 119.837 128.352 119.601 128.4C119.882 128.139 120.143 127.868 120.382 127.587L120.413 127.631Z" fill="#939393"/>
<path d="M125.288 128.4C126.186 128.4 126.914 127.854 126.914 127.181C126.914 126.508 126.186 125.962 125.288 125.962C124.391 125.962 123.663 126.508 123.663 127.181C123.663 127.854 124.391 128.4 125.288 128.4Z" fill="#939393"/>
<path d="M132.602 127.181C132.608 127.342 132.57 127.502 132.49 127.652C132.411 127.802 132.291 127.938 132.139 128.053C131.987 128.167 131.805 128.256 131.606 128.316C131.406 128.376 131.192 128.404 130.977 128.399C130.546 128.399 130.132 128.271 129.828 128.042C129.523 127.814 129.352 127.504 129.352 127.181C129.363 126.86 129.537 126.555 129.84 126.328C130.142 126.101 130.549 125.97 130.977 125.962C131.408 125.962 131.821 126.09 132.126 126.319C132.43 126.547 132.602 126.857 132.602 127.181Z" fill="#939393"/>
<path d="M137.072 128.4C137.746 128.4 138.291 127.854 138.291 127.181C138.291 126.508 137.746 125.962 137.072 125.962C136.399 125.962 135.854 126.508 135.854 127.181C135.854 127.854 136.399 128.4 137.072 128.4Z" fill="#939393"/>
<path d="M142.761 128.4C143.434 128.4 143.98 127.854 143.98 127.181C143.98 126.508 143.434 125.962 142.761 125.962C142.088 125.962 141.542 126.508 141.542 127.181C141.542 127.854 142.088 128.4 142.761 128.4Z" fill="#939393"/>
<path d="M149.668 127.181C149.673 127.342 149.644 127.502 149.584 127.652C149.525 127.802 149.435 127.938 149.321 128.053C149.207 128.167 149.071 128.256 148.921 128.316C148.771 128.376 148.611 128.404 148.449 128.399C148.126 128.399 147.816 128.271 147.587 128.042C147.359 127.814 147.23 127.504 147.23 127.181C147.239 126.86 147.37 126.555 147.597 126.328C147.823 126.101 148.129 125.97 148.449 125.962C148.772 125.962 149.082 126.09 149.311 126.319C149.54 126.547 149.668 126.857 149.668 127.181Z" fill="#939393"/>
<path d="M154.544 128.4C155.442 128.4 156.17 127.854 156.17 127.181C156.17 126.508 155.442 125.962 154.544 125.962C153.647 125.962 152.919 126.508 152.919 127.181C152.919 127.854 153.647 128.4 154.544 128.4Z" fill="#939393"/>
<path d="M120.413 133.121C120.403 133.479 120.272 133.822 120.043 134.088C119.314 133.505 118.623 132.871 117.975 132.192C118.099 132.028 118.256 131.895 118.434 131.801C118.613 131.707 118.809 131.656 119.009 131.65C119.381 131.65 119.738 131.805 120.001 132.081C120.265 132.357 120.413 132.731 120.413 133.121Z" fill="#939393"/>
<path d="M125.288 134.088C126.186 134.088 126.914 133.543 126.914 132.869C126.914 132.196 126.186 131.65 125.288 131.65C124.391 131.65 123.663 132.196 123.663 132.869C123.663 133.543 124.391 134.088 125.288 134.088Z" fill="#939393"/>
<path d="M132.603 132.886C132.603 133.205 132.465 133.511 132.219 133.736C131.973 133.962 131.64 134.088 131.293 134.088C130.978 134.041 130.692 133.892 130.485 133.669C130.278 133.446 130.165 133.162 130.165 132.869C130.165 132.576 130.278 132.293 130.485 132.07C130.692 131.846 130.978 131.698 131.293 131.65C131.468 131.65 131.641 131.682 131.802 131.745C131.964 131.807 132.11 131.899 132.232 132.014C132.354 132.129 132.449 132.266 132.513 132.415C132.577 132.565 132.607 132.725 132.603 132.886Z" fill="#939393"/>
<path d="M137.072 134.088C137.746 134.088 138.291 133.543 138.291 132.869C138.291 132.196 137.746 131.65 137.072 131.65C136.399 131.65 135.854 132.196 135.854 132.869C135.854 133.543 136.399 134.088 137.072 134.088Z" fill="#939393"/>
<path d="M142.761 134.088C143.434 134.088 143.98 133.543 143.98 132.869C143.98 132.196 143.434 131.65 142.761 131.65C142.088 131.65 141.542 132.196 141.542 132.869C141.542 133.543 142.088 134.088 142.761 134.088Z" fill="#939393"/>
<path d="M149.668 132.886C149.668 133.205 149.53 133.511 149.284 133.736C149.039 133.962 148.706 134.088 148.358 134.088C148.043 134.041 147.757 133.892 147.55 133.669C147.344 133.446 147.23 133.162 147.23 132.869C147.23 132.576 147.344 132.293 147.55 132.07C147.757 131.846 148.043 131.698 148.358 131.65C148.533 131.65 148.706 131.682 148.868 131.745C149.029 131.807 149.175 131.899 149.297 132.014C149.419 132.129 149.515 132.266 149.579 132.415C149.642 132.565 149.673 132.725 149.668 132.886Z" fill="#939393"/>
<path d="M154.544 134.088C155.442 134.088 156.17 133.543 156.17 132.869C156.17 132.196 155.442 131.65 154.544 131.65C153.647 131.65 152.919 132.196 152.919 132.869C152.919 133.543 153.647 134.088 154.544 134.088Z" fill="#939393"/>
<path d="M161.858 132.451C161.516 132.8 160.934 133.392 160.113 134.088C159.931 133.994 159.773 133.857 159.655 133.687C159.536 133.518 159.46 133.322 159.432 133.116C159.404 132.91 159.425 132.7 159.494 132.504C159.563 132.308 159.678 132.132 159.828 131.991C159.978 131.851 160.16 131.749 160.357 131.695C160.554 131.641 160.762 131.636 160.961 131.681C161.16 131.726 161.346 131.82 161.502 131.954C161.659 132.088 161.781 132.259 161.858 132.451Z" fill="#939393"/>
<path d="M132.602 138.685C132.6 138.897 132.538 139.105 132.421 139.295C132.305 139.484 132.136 139.649 131.928 139.777L129.368 139.158C129.346 139.001 129.346 138.842 129.368 138.685C129.368 138.508 129.411 138.333 129.494 138.17C129.578 138.007 129.7 137.858 129.854 137.733C130.009 137.608 130.192 137.509 130.394 137.441C130.595 137.374 130.811 137.339 131.03 137.339C131.242 137.344 131.451 137.382 131.645 137.452C131.839 137.523 132.014 137.623 132.16 137.748C132.306 137.873 132.42 138.02 132.496 138.181C132.572 138.342 132.608 138.513 132.602 138.685Z" fill="#939393"/>
<path d="M138.292 138.558C138.228 138.898 138.03 139.208 137.733 139.431C137.435 139.654 137.057 139.777 136.666 139.777C136.276 139.777 135.898 139.654 135.6 139.431C135.302 139.208 135.104 138.898 135.041 138.558C135.104 138.218 135.302 137.908 135.6 137.685C135.898 137.461 136.276 137.339 136.666 137.339C137.057 137.339 137.435 137.461 137.733 137.685C138.03 137.908 138.228 138.218 138.292 138.558Z" fill="#939393"/>
<path d="M143.98 138.558C143.972 138.879 143.841 139.184 143.614 139.411C143.387 139.637 143.082 139.769 142.761 139.777C142.438 139.777 142.128 139.648 141.899 139.42C141.671 139.191 141.542 138.881 141.542 138.558C141.538 138.397 141.566 138.236 141.626 138.086C141.686 137.936 141.775 137.8 141.889 137.686C142.003 137.572 142.14 137.482 142.289 137.423C142.439 137.363 142.6 137.335 142.761 137.339C142.921 137.339 143.08 137.371 143.228 137.432C143.375 137.493 143.51 137.583 143.623 137.696C143.736 137.809 143.826 137.944 143.887 138.092C143.948 138.24 143.98 138.398 143.98 138.558Z" fill="#939393"/>
<path d="M149.668 138.61C149.678 138.882 149.596 139.149 149.437 139.365L147.955 139.777C147.741 139.673 147.559 139.509 147.431 139.302C147.303 139.096 147.233 138.856 147.23 138.61C147.23 138.443 147.262 138.278 147.323 138.123C147.384 137.969 147.474 137.829 147.587 137.711C147.701 137.593 147.835 137.5 147.983 137.436C148.131 137.372 148.289 137.339 148.449 137.339C148.61 137.335 148.771 137.364 148.921 137.426C149.071 137.489 149.207 137.582 149.321 137.701C149.435 137.82 149.524 137.962 149.584 138.118C149.644 138.274 149.672 138.442 149.668 138.61Z" fill="#939393"/>
<path d="M155.357 137.409C154.595 137.679 153.782 137.915 152.919 138.152C153.054 137.912 153.298 137.705 153.616 137.56C153.934 137.415 154.311 137.339 154.697 137.341C154.922 137.331 155.147 137.354 155.357 137.409Z" fill="#939393"/>
<path d="M174.048 58.9695V65.8251H105.785V58.9695C105.785 58.2014 106.085 57.4647 106.619 56.9215C107.152 56.3784 107.876 56.0732 108.631 56.0732H171.239C171.987 56.0829 172.702 56.3923 173.228 56.9344C173.754 57.4765 174.049 58.2077 174.048 58.9695Z" fill="#1F141D"/>
<path d="M246.661 313.659C246.818 313.695 246.981 313.695 247.138 313.659C247.303 313.599 247.454 313.507 247.582 313.389C247.71 313.271 247.813 313.129 247.885 312.971C247.957 312.814 247.996 312.643 248 312.471C248.003 312.298 247.972 312.126 247.907 311.966L221.296 245.425C221.165 245.105 220.91 244.849 220.586 244.714C220.263 244.579 219.899 244.576 219.573 244.705C219.248 244.834 218.987 245.085 218.85 245.402C218.712 245.72 218.709 246.078 218.84 246.398L245.415 312.83C245.52 313.071 245.693 313.277 245.914 313.424C246.135 313.571 246.395 313.652 246.661 313.659Z" fill="#020113"/>
<path d="M177.011 313.686C177.277 313.68 177.536 313.598 177.757 313.452C177.978 313.305 178.151 313.098 178.256 312.858L204.837 246.411C204.902 246.251 204.933 246.079 204.929 245.906C204.925 245.733 204.886 245.563 204.815 245.405C204.743 245.248 204.64 245.105 204.512 244.987C204.384 244.869 204.233 244.778 204.068 244.718C203.908 244.648 203.735 244.612 203.56 244.61C203.384 244.609 203.211 244.644 203.049 244.711C202.888 244.779 202.742 244.878 202.622 245.003C202.501 245.128 202.408 245.276 202.348 245.438L175.766 311.885C175.702 312.045 175.67 312.217 175.674 312.39C175.678 312.563 175.717 312.733 175.788 312.891C175.86 313.048 175.963 313.19 176.091 313.309C176.219 313.427 176.37 313.518 176.535 313.578C176.684 313.648 176.846 313.685 177.011 313.686Z" fill="#020113"/>
<path d="M189.164 282.781C189.306 282.813 189.454 282.813 189.596 282.781L229.254 269.051C229.415 268.995 229.563 268.908 229.69 268.795C229.817 268.682 229.921 268.546 229.995 268.393C230.068 268.241 230.111 268.076 230.12 267.907C230.129 267.738 230.104 267.569 230.047 267.41C229.99 267.251 229.902 267.104 229.788 266.978C229.674 266.853 229.536 266.75 229.382 266.677C229.228 266.605 229.061 266.562 228.891 266.554C228.72 266.545 228.549 266.569 228.388 266.626L188.731 280.356C188.57 280.412 188.422 280.499 188.294 280.611C188.167 280.724 188.064 280.861 187.99 281.013C187.917 281.166 187.874 281.331 187.865 281.5C187.856 281.668 187.881 281.837 187.938 281.996C188.039 282.234 188.21 282.435 188.429 282.575C188.647 282.715 188.903 282.787 189.164 282.781Z" fill="#020113"/>
<path d="M234.487 282.805C234.763 282.795 235.029 282.706 235.253 282.548C235.478 282.39 235.65 282.171 235.749 281.918C235.852 281.593 235.824 281.241 235.669 280.937C235.515 280.632 235.246 280.399 234.92 280.286L195.283 266.625C195.122 266.569 194.952 266.545 194.782 266.554C194.611 266.563 194.444 266.604 194.29 266.677C194.137 266.749 193.999 266.851 193.885 266.976C193.771 267.101 193.683 267.247 193.626 267.405C193.569 267.564 193.545 267.732 193.554 267.899C193.563 268.067 193.605 268.232 193.679 268.383C193.753 268.535 193.856 268.67 193.983 268.783C194.11 268.895 194.258 268.982 194.419 269.038L234.055 282.698C234.189 282.766 234.337 282.803 234.487 282.805Z" fill="#020113"/>
<path d="M197.92 313.661C198.078 313.695 198.24 313.695 198.398 313.661C198.563 313.602 198.713 313.51 198.841 313.391C198.968 313.272 199.07 313.128 199.138 312.969C199.207 312.81 199.242 312.639 199.241 312.466C199.24 312.293 199.203 312.122 199.132 311.964L172.517 245.273C172.353 244.997 172.094 244.788 171.787 244.683C171.479 244.579 171.144 244.587 170.842 244.705C170.54 244.823 170.291 245.043 170.141 245.326C169.99 245.609 169.947 245.936 170.02 246.248L196.672 312.831C196.769 313.078 196.941 313.29 197.164 313.438C197.387 313.587 197.651 313.665 197.92 313.661Z" fill="#020113"/>
<path d="M128.094 313.686C128.365 313.689 128.63 313.611 128.854 313.463C129.078 313.315 129.251 313.103 129.348 312.855L156.135 246.248C156.208 245.937 156.165 245.61 156.014 245.327C155.862 245.043 155.612 244.823 155.308 244.705C155.005 244.587 154.668 244.579 154.359 244.683C154.051 244.788 153.79 244.997 153.626 245.273L127.024 311.88C126.953 312.038 126.915 312.209 126.914 312.382C126.913 312.555 126.948 312.726 127.017 312.886C127.086 313.045 127.188 313.188 127.316 313.307C127.444 313.426 127.596 313.518 127.762 313.578C127.866 313.63 127.978 313.667 128.094 313.686Z" fill="#020113"/>
<path d="M140.404 282.781C140.546 282.813 140.694 282.813 140.837 282.781L180.494 269.06C180.655 269.004 180.803 268.917 180.931 268.804C181.058 268.691 181.161 268.555 181.235 268.403C181.308 268.25 181.351 268.085 181.36 267.917C181.369 267.748 181.344 267.579 181.287 267.42C181.235 267.258 181.149 267.108 181.036 266.98C180.923 266.851 180.785 266.747 180.629 266.674C180.474 266.6 180.305 266.559 180.133 266.553C179.961 266.546 179.789 266.575 179.629 266.636L139.971 280.357C139.81 280.413 139.662 280.5 139.535 280.613C139.408 280.726 139.304 280.862 139.231 281.014C139.157 281.167 139.114 281.332 139.105 281.5C139.096 281.669 139.121 281.838 139.178 281.997C139.279 282.234 139.45 282.436 139.669 282.575C139.888 282.715 140.144 282.787 140.404 282.781Z" fill="#020113"/>
<path d="M185.755 282.798C186.027 282.796 186.292 282.709 186.511 282.55C186.731 282.391 186.894 282.168 186.977 281.912C187.034 281.754 187.058 281.586 187.049 281.418C187.04 281.251 186.998 281.086 186.925 280.935C186.851 280.783 186.748 280.648 186.621 280.536C186.495 280.423 186.347 280.337 186.186 280.281L146.52 266.636C146.36 266.574 146.189 266.546 146.018 266.553C145.846 266.559 145.678 266.6 145.523 266.673C145.368 266.746 145.23 266.85 145.117 266.977C145.005 267.105 144.92 267.254 144.867 267.415C144.81 267.574 144.786 267.741 144.795 267.909C144.804 268.077 144.846 268.241 144.92 268.392C144.993 268.544 145.096 268.68 145.223 268.792C145.349 268.904 145.497 268.99 145.658 269.046L185.18 282.692C185.356 282.785 185.557 282.822 185.755 282.798Z" fill="#020113"/>
<path d="M132.603 247.342C132.603 247.342 187.483 278.807 222.276 253.376C223.696 252.335 225.061 251.22 226.365 250.036L227.692 248.779C257.392 219.72 219.514 173.097 219.514 173.097L216.573 174.354L215.532 174.821C161.334 199.318 132.603 247.342 132.603 247.342Z" fill="#939393"/>
<path d="M225.991 192.064C230.474 201.129 235.419 214.709 233.427 227.895C232.302 237.384 228.387 246.318 222.183 253.55C223.592 252.511 224.946 251.399 226.24 250.217C230.648 243.571 233.484 235.996 234.53 228.074C235.423 221.612 235.036 215.036 233.391 208.725C231.885 202.797 229.737 197.054 226.987 191.598C224.058 185.641 220.554 179.988 216.526 174.722L215.494 175.187V175.402C219.542 180.586 223.059 186.168 225.991 192.064Z" fill="#020113"/>
<path d="M208.941 200.727C208.941 200.727 219.686 229.652 209.442 242.921C199.198 256.191 176.095 262.265 142.354 242.415L208.941 200.727Z" fill="#020113"/>
<path d="M173.7 155.218V155.685V156.297L173.486 157.628C173.486 158.491 173.165 159.39 172.987 160.29C172.595 162.052 172.168 163.887 171.669 165.649C170.676 169.238 169.487 172.769 168.107 176.225C167.43 177.951 166.717 179.822 165.969 181.369C165.221 182.915 164.437 184.714 163.582 186.369L162.941 187.592L162.3 188.815C161.837 189.606 161.409 190.433 160.91 191.225L160.198 192.412L159.485 193.563V193.851V193.671C159.051 193.974 158.599 194.25 158.131 194.498C157.462 194.851 156.772 195.164 156.065 195.433C154.533 196.081 152.859 196.62 151.113 197.16C149.368 197.699 147.551 198.167 145.698 198.635L140.141 199.894C136.364 200.649 132.552 201.368 128.705 202.016L122.933 202.915L120.012 203.347L118.587 203.563L117.162 203.743L118.302 216.98H119.87L121.33 216.908L124.394 216.656L130.45 216.116C134.512 215.685 138.573 215.181 142.634 214.534C146.806 213.934 150.944 213.118 155.032 212.088C157.202 211.571 159.343 210.934 161.445 210.181C162.561 209.798 163.748 209.33 165.007 208.778C166.342 208.152 167.617 207.405 168.819 206.548C169.618 205.99 170.358 205.352 171.028 204.642C171.242 204.462 171.42 204.21 171.634 203.994C171.847 203.778 172.025 203.527 172.204 203.239L172.453 202.915L172.667 202.591L173.593 201.261L174.484 199.894C175.089 198.958 175.624 198.059 176.194 197.124C176.764 196.189 176.764 196.189 177.013 195.721C177.262 195.253 177.583 194.786 177.832 194.318L178.616 192.879L179.364 191.44C179.899 190.505 180.362 189.534 180.861 188.563C181.787 186.62 182.677 184.642 183.497 182.628C185.151 178.554 186.567 174.387 187.736 170.146C188.342 168.059 188.876 165.937 189.339 163.815C189.589 162.736 189.803 161.657 190.016 160.577C190.23 159.498 190.016 159.462 190.301 158.887V158.024V157.556V156.98L173.7 155.218Z" fill="#FFA48F"/>
<path d="M164.527 199.063C164.671 199.115 164.827 199.115 164.971 199.063C165.059 198.96 165.109 198.825 165.109 198.684C165.109 198.544 165.059 198.409 164.971 198.305C163.505 196.614 161.936 195.029 160.275 193.561C160.179 193.466 160.054 193.413 159.924 193.413C159.794 193.413 159.668 193.466 159.572 193.561C159.524 193.61 159.486 193.668 159.46 193.734C159.433 193.799 159.42 193.869 159.42 193.94C159.42 194.011 159.433 194.081 159.46 194.146C159.486 194.212 159.524 194.27 159.572 194.319C161.205 195.706 162.727 197.24 164.121 198.903C164.174 198.96 164.238 199.004 164.308 199.031C164.378 199.059 164.453 199.07 164.527 199.063Z" fill="#FF9E00"/>
<path d="M162.961 195.031C163.071 195.051 163.185 195.029 163.28 194.97C163.375 194.91 163.445 194.817 163.475 194.708C163.496 194.593 163.476 194.474 163.417 194.373C163.358 194.272 163.264 194.196 163.154 194.159C163.154 194.159 161.483 193.706 159.94 193.416C159.826 193.404 159.712 193.433 159.618 193.498C159.524 193.563 159.456 193.66 159.426 193.771C159.407 193.886 159.433 194.005 159.499 194.101C159.565 194.197 159.665 194.264 159.779 194.288C161.161 194.546 162.8 194.999 162.993 194.999L162.961 195.031Z" fill="#FF9E00"/>
<path d="M125.647 217.791C125.711 217.786 125.774 217.769 125.831 217.74C125.889 217.711 125.94 217.67 125.982 217.621C126.024 217.571 126.056 217.514 126.076 217.452C126.097 217.39 126.104 217.325 126.1 217.26L124.639 201.969C124.634 201.906 124.617 201.843 124.588 201.787C124.559 201.73 124.519 201.68 124.47 201.64C124.421 201.6 124.364 201.571 124.303 201.554C124.242 201.538 124.179 201.535 124.117 201.545C124.053 201.549 123.99 201.566 123.933 201.596C123.875 201.625 123.824 201.665 123.782 201.715C123.74 201.764 123.708 201.821 123.688 201.883C123.668 201.945 123.66 202.01 123.664 202.076L125.126 217.366C125.143 217.491 125.207 217.605 125.304 217.684C125.401 217.763 125.524 217.801 125.647 217.791Z" fill="#FF9E00"/>
<path d="M117.766 214.541L125.624 213.424C125.695 213.418 125.764 213.394 125.827 213.353C125.89 213.313 125.945 213.256 125.989 213.188C126.034 213.119 126.066 213.04 126.084 212.955C126.102 212.87 126.106 212.781 126.095 212.694C126.091 212.607 126.071 212.521 126.038 212.443C126.006 212.365 125.96 212.297 125.904 212.242C125.849 212.187 125.785 212.147 125.716 212.125C125.648 212.102 125.576 212.098 125.506 212.111L117.649 213.229C117.575 213.226 117.503 213.245 117.436 213.282C117.37 213.32 117.311 213.377 117.265 213.448C117.22 213.519 117.188 213.601 117.173 213.69C117.157 213.779 117.159 213.871 117.177 213.958C117.177 214.25 117.531 214.444 117.766 214.541Z" fill="#FF9E00"/>
<path d="M120.478 209.61C120.436 209.757 120.414 209.916 120.413 210.076C120.412 210.236 120.433 210.395 120.474 210.543C120.515 210.691 120.575 210.826 120.651 210.938C120.728 211.051 120.818 211.14 120.917 211.199C121.116 211.322 121.339 211.322 121.538 211.199C121.737 211.075 121.895 210.838 121.977 210.54C122.059 210.242 122.059 209.907 121.977 209.609C121.894 209.311 121.736 209.074 121.537 208.951C121.439 208.887 121.333 208.854 121.227 208.854C121.12 208.853 121.014 208.884 120.915 208.945C120.816 209.007 120.727 209.097 120.652 209.211C120.577 209.325 120.517 209.461 120.478 209.61Z" fill="#FF9E00"/>
<path d="M121.225 293.567L118.497 300.683L108.223 299.281L110.348 291.744L121.225 293.567Z" fill="#FFA48F"/>
<path d="M80.8597 312.333L118.374 317.749C118.763 317.098 119.029 316.376 119.158 315.62C119.629 311.58 119.724 307.502 119.443 303.443V302.434C119.418 301.974 119.418 301.513 119.443 301.052C119.529 300.737 119.541 300.405 119.48 300.084C119.418 299.762 119.284 299.461 119.089 299.205C118.894 298.949 118.643 298.746 118.357 298.613C118.072 298.479 117.76 298.419 117.448 298.438C113.137 301.799 109.61 295.3 106.76 296.869C106.76 296.869 105.584 297.504 102.235 299.894C98.0936 302.161 93.6499 303.76 89.0537 304.638C83.1754 306.282 81.2515 308.374 80.7171 310.129C80.5115 310.858 80.5621 311.64 80.8597 312.333Z" fill="#1F141D"/>
<path d="M80.7765 312.447L118.806 317.749C119.2 317.112 119.469 316.405 119.6 315.665L80.7403 310.436C80.5319 311.092 80.5446 311.799 80.7765 312.447Z" fill="#4F3F4B"/>
<path d="M105.785 298.742C105.785 298.742 105.413 297.176 104.051 297.469C102.689 297.763 102.534 300.015 102.534 300.015C102.534 300.015 103.03 302.169 105.785 298.742Z" fill="white"/>
<path d="M105.713 306.362C105.803 306.378 105.896 306.376 105.985 306.356C106.074 306.336 106.157 306.299 106.229 306.247C106.301 306.195 106.36 306.13 106.402 306.055C106.444 305.981 106.468 305.899 106.472 305.815C106.681 304.686 106.628 303.528 106.319 302.418C106.01 301.307 105.449 300.268 104.675 299.366C104.618 299.284 104.543 299.215 104.454 299.163C104.366 299.111 104.265 299.077 104.161 299.064C104.056 299.052 103.949 299.06 103.849 299.089C103.748 299.118 103.656 299.167 103.578 299.233C103.5 299.298 103.439 299.378 103.4 299.467C103.36 299.557 103.342 299.653 103.348 299.749C103.353 299.845 103.382 299.939 103.432 300.024C103.482 300.109 103.551 300.183 103.636 300.241C104.261 300.978 104.714 301.823 104.968 302.725C105.222 303.627 105.272 304.567 105.114 305.488C105.068 305.581 105.048 305.682 105.055 305.784C105.063 305.886 105.097 305.985 105.157 306.071C105.216 306.158 105.298 306.23 105.395 306.28C105.492 306.331 105.601 306.359 105.713 306.362Z" fill="white"/>
<path d="M98.1661 300.643C98.3125 300.698 98.474 300.698 98.6204 300.643C100.164 300.183 101.809 300.183 103.352 300.643C103.44 300.665 103.531 300.668 103.619 300.653C103.708 300.638 103.793 300.604 103.868 300.555C103.943 300.505 104.006 300.44 104.054 300.364C104.103 300.289 104.134 300.204 104.147 300.115C104.181 299.94 104.144 299.759 104.045 299.611C103.946 299.463 103.792 299.36 103.617 299.324C101.705 298.87 99.6995 299.001 97.8633 299.7C97.7988 299.757 97.7472 299.827 97.7119 299.905C97.6765 299.983 97.6582 300.067 97.6582 300.153C97.6582 300.238 97.6765 300.323 97.7119 300.401C97.7472 300.479 97.7988 300.548 97.8633 300.605C97.9583 300.647 98.0636 300.66 98.1661 300.643Z" fill="white"/>
<path d="M103.968 299.187L103.675 298.805L103.347 298.109L103.748 297.831L104.625 297.275H104.844C105.889 296.661 107.02 296.192 108.204 295.884C108.809 295.782 109.427 295.782 110.031 295.884C110.404 295.927 110.764 296.045 111.085 296.231C111.406 296.417 111.682 296.666 111.894 296.962C112.104 297.234 112.236 297.554 112.274 297.89C112.313 298.226 112.257 298.566 112.113 298.874C112 299.081 111.852 299.269 111.674 299.431C110.6 300.302 109.211 300.738 107.803 300.648C106.866 300.696 105.927 300.696 104.99 300.648H104.698L103.493 300.404L103.968 299.187Z" fill="white"/>
<path d="M102.716 299.87L103.5 298.722C102.896 298.359 102.395 297.858 102.043 297.263C101.691 296.668 101.499 295.998 101.483 295.314C101.483 295.099 101.483 294.848 102.305 294.74C102.435 294.702 102.573 294.698 102.704 294.73C102.836 294.762 102.956 294.827 103.052 294.919C103.613 295.932 103.759 297.109 103.462 298.22L104.881 298.435C104.881 298.112 105.367 295.242 104.097 293.986C103.843 293.74 103.529 293.558 103.184 293.458C102.838 293.358 102.472 293.342 102.118 293.412C101.643 293.426 101.186 293.593 100.82 293.886C100.455 294.178 100.202 294.58 100.102 295.027C100.06 295.983 100.279 296.933 100.738 297.783C101.197 298.632 101.878 299.352 102.716 299.87Z" fill="white"/>
<path d="M114.33 316.936H115.514C114.231 315.123 113.779 312.925 114.254 310.812C114.56 309.375 115.194 308.013 116.115 306.814C117.036 305.615 118.223 304.606 119.6 303.852V303.121C118.004 303.906 116.614 304.996 115.526 306.318C114.439 307.64 113.678 309.161 113.299 310.777C112.828 312.876 113.194 315.06 114.33 316.936Z" fill="#4F3F4B"/>
<path d="M102.687 303.118C102.817 303.133 102.947 303.098 103.06 303.019C103.173 302.94 103.263 302.82 103.317 302.677C103.364 302.5 103.356 302.309 103.295 302.139C103.234 301.969 103.124 301.832 102.986 301.753L100.897 300.749C100.828 300.709 100.753 300.687 100.676 300.684C100.6 300.681 100.523 300.697 100.452 300.731C100.381 300.764 100.316 300.815 100.261 300.881C100.207 300.946 100.164 301.024 100.135 301.11C100.08 301.286 100.084 301.481 100.146 301.653C100.208 301.826 100.323 301.962 100.467 302.034L102.555 303.078L102.687 303.118Z" fill="white"/>
<path d="M100.087 303.119C100.248 303.129 100.411 303.106 100.551 303.053C100.692 303 100.804 302.92 100.871 302.825C100.93 302.707 100.92 302.58 100.844 302.466C100.768 302.353 100.631 302.262 100.458 302.209L97.8565 301.539C97.7701 301.513 97.6763 301.498 97.5809 301.496C97.4855 301.494 97.3904 301.505 97.3015 301.527C97.2126 301.55 97.1317 301.584 97.0638 301.628C96.9959 301.671 96.9424 301.723 96.9066 301.78C96.8669 301.838 96.8462 301.901 96.8457 301.964C96.8453 302.027 96.8651 302.089 96.9039 302.147C96.9428 302.205 96.9998 302.257 97.0713 302.3C97.1429 302.343 97.2274 302.376 97.3196 302.396L99.9215 303.093L100.087 303.119Z" fill="white"/>
<path d="M97.6288 304.74C97.791 304.761 97.9557 304.729 98.0973 304.648C98.2389 304.567 98.3494 304.443 98.4117 304.294C98.451 304.209 98.4714 304.117 98.4715 304.024C98.4716 303.931 98.4515 303.839 98.4124 303.755C98.3733 303.67 98.3163 303.595 98.245 303.534C98.1738 303.473 98.0901 303.427 97.9996 303.401L95.4036 302.346C95.2226 302.288 95.0265 302.298 94.8521 302.373C94.6777 302.447 94.5369 302.582 94.4559 302.751C94.3878 302.929 94.3928 303.126 94.4697 303.301C94.5466 303.475 94.6895 303.613 94.868 303.685L97.4639 304.7L97.6288 304.74Z" fill="white"/>
<path d="M94.5959 305.55C94.7178 305.576 94.8433 305.546 94.9488 305.467C95.0544 305.387 95.133 305.262 95.1698 305.116C95.2008 305.037 95.218 304.95 95.2201 304.862C95.2223 304.774 95.2094 304.686 95.1824 304.604C95.1553 304.522 95.1147 304.448 95.0631 304.387C95.0115 304.326 94.9501 304.279 94.8829 304.249L92.8423 303.225C92.7708 303.171 92.6907 303.137 92.6076 303.126C92.5244 303.114 92.4402 303.125 92.3609 303.158C92.2815 303.191 92.209 303.245 92.1483 303.316C92.0877 303.387 92.0403 303.474 92.0097 303.57C91.979 303.667 91.9657 303.77 91.9708 303.873C91.9758 303.977 91.9991 304.077 92.0389 304.168C92.0788 304.259 92.1342 304.338 92.2014 304.4C92.2686 304.462 92.3459 304.504 92.4278 304.525L94.4684 305.51L94.5959 305.55Z" fill="white"/>
<path d="M91.9528 306.369C92.1139 306.384 92.2756 306.349 92.4156 306.271C92.5556 306.192 92.667 306.074 92.7344 305.931C92.8024 305.757 92.7974 305.563 92.7206 305.392C92.6438 305.221 92.5012 305.086 92.323 305.015L89.6904 303.979C89.604 303.947 89.5119 303.932 89.4195 303.935C89.3271 303.938 89.2362 303.958 89.1521 303.995C89.0679 304.032 88.9922 304.085 88.9292 304.151C88.8663 304.216 88.8174 304.293 88.7854 304.377C88.7449 304.461 88.7223 304.551 88.7191 304.643C88.716 304.735 88.7322 304.827 88.7668 304.913C88.8015 304.998 88.8538 305.076 88.9207 305.142C88.9875 305.208 89.0675 305.259 89.1556 305.294L91.7883 306.29L91.9528 306.369Z" fill="white"/>
<path d="M81.4049 289.155L77.3958 294.183L68.4023 288.609L72.4115 283.618L81.4049 289.155Z" fill="#FFA48F"/>
<path d="M38.334 289.725L70.3635 309.623C70.9673 309.213 71.4869 308.689 71.8938 308.081C73.8735 304.665 75.5183 301.063 76.805 297.326C76.9474 296.967 77.0897 296.644 77.2321 296.358C77.4456 295.856 77.6591 295.461 77.8015 295.174C77.9596 294.949 78.0681 294.693 78.1197 294.422C78.1714 294.151 78.165 293.872 78.101 293.604C78.0369 293.336 77.9168 293.084 77.7485 292.867C77.5802 292.649 77.3678 292.47 77.1253 292.342C71.8938 293.561 71.1109 286.427 68.0147 286.677C68.0147 286.677 66.6623 286.678 62.6764 287.538C58.0071 287.878 53.3136 287.491 48.7614 286.391C42.7469 285.459 40.1846 286.642 39.0813 287.861C38.63 288.379 38.3666 289.036 38.334 289.725Z" fill="#1F141D"/>
<path d="M38.3372 289.659L70.9094 309.622C71.5234 309.211 72.0518 308.686 72.4656 308.076L38.9524 287.681C38.5221 288.249 38.3045 288.949 38.3372 289.659Z" fill="#4F3F4B"/>
<path d="M66.7608 287.508C66.7608 287.508 66.9888 285.624 65.7345 285.278C64.4802 284.932 63.5394 287.277 63.5394 287.277C63.5394 287.277 63.1403 289.853 66.7608 287.508Z" fill="white"/>
<path d="M63.8434 294.096C63.9888 294.18 64.1599 294.204 64.3217 294.162C64.4834 294.121 64.6236 294.018 64.7133 293.874C65.3088 292.907 65.7031 291.825 65.8715 290.696C66.0399 289.566 65.9788 288.413 65.6919 287.309C65.6658 287.229 65.6244 287.155 65.5701 287.091C65.5159 287.027 65.4499 286.974 65.3758 286.936C65.3018 286.898 65.2212 286.876 65.1386 286.87C65.056 286.864 64.9731 286.874 64.8946 286.901C64.816 286.928 64.7434 286.97 64.6809 287.026C64.6183 287.081 64.5671 287.149 64.5301 287.225C64.493 287.301 64.471 287.383 64.4651 287.468C64.4592 287.552 64.4697 287.637 64.4959 287.717C64.7215 288.639 64.7607 289.598 64.6111 290.535C64.4615 291.473 64.1263 292.369 63.626 293.169C63.5799 293.244 63.5489 293.328 63.5349 293.416C63.5209 293.503 63.5241 293.593 63.5444 293.679C63.5646 293.766 63.6015 293.847 63.6529 293.919C63.7042 293.99 63.769 294.051 63.8434 294.096Z" fill="white"/>
<path d="M59.6223 285.631C59.7571 285.693 59.9077 285.693 60.0424 285.631C61.5358 285.802 62.956 286.45 64.1386 287.499C64.2542 287.616 64.4037 287.681 64.5588 287.681C64.7138 287.681 64.8633 287.616 64.9789 287.499C65.09 287.372 65.1525 287.201 65.1525 287.022C65.1525 286.843 65.09 286.672 64.9789 286.545C64.6638 286.307 61.828 284.081 59.9724 284.478C59.8914 284.487 59.813 284.515 59.7427 284.561C59.6724 284.608 59.6118 284.671 59.5651 284.747C59.5185 284.822 59.4869 284.909 59.4726 284.999C59.4583 285.09 59.4616 285.184 59.4823 285.273C59.502 285.404 59.5501 285.527 59.6223 285.631Z" fill="white"/>
<path d="M65.2363 287.061V287.515L64.3398 288.459C64.649 288.715 64.9856 288.937 65.3439 289.123H65.559C66.3694 289.58 67.2076 289.988 68.069 290.346C68.6754 290.659 69.3396 290.851 70.023 290.911C70.7064 290.971 71.3952 290.898 72.0492 290.696C72.2685 290.608 72.4738 290.49 72.6588 290.346C72.908 290.11 73.0915 289.816 73.1919 289.492C73.2923 289.168 73.3062 288.824 73.2325 288.494C73.154 288.14 73.0023 287.805 72.7864 287.511C72.5706 287.216 72.2953 286.968 71.9775 286.781C71.4517 286.47 70.8658 286.268 70.2563 286.187C69.0678 286.012 67.8591 286.012 66.6706 286.187H66.4196L65.3797 286.362H64.9136L65.2363 287.061ZM66.2044 288.074L65.81 287.83H67.1367C67.9119 287.758 68.6923 287.758 69.4675 287.83C69.861 287.793 70.2572 287.793 70.6508 287.83C70.9409 287.892 71.2192 287.998 71.4755 288.144C71.799 288.343 72.0305 288.656 72.1209 289.018C72.1574 289.101 72.1762 289.19 72.1762 289.28C72.1762 289.37 72.1574 289.459 72.1209 289.542C71.6332 289.817 71.0577 289.904 70.5073 289.787C69.9573 289.731 69.4226 289.577 68.9296 289.332C67.99 288.98 67.0791 288.56 66.2044 288.074Z" fill="white"/>
<path d="M63.6867 287.681L64.8949 286.9C64.4983 286.315 64.2532 285.643 64.1808 284.943C64.1084 284.243 64.211 283.537 64.4796 282.885C64.4796 282.885 64.8571 282.513 65.4612 282.662C65.6011 282.682 65.7335 282.737 65.8458 282.821C65.9582 282.906 66.0467 283.017 66.1031 283.145C66.1729 284.321 65.8111 285.482 65.0836 286.417L66.2918 287.198C66.4806 286.9 68.1041 284.372 67.4245 282.662C67.3005 282.322 67.0892 282.021 66.8112 281.786C66.5332 281.552 66.1981 281.392 65.8388 281.323C65.3931 281.153 64.9026 281.134 64.4446 281.268C63.9865 281.403 63.587 281.684 63.3091 282.067C62.8611 282.952 62.6599 283.938 62.7262 284.924C62.7926 285.911 63.1241 286.862 63.6867 287.681Z" fill="white"/>
<path d="M67.6357 307.404L68.6322 307.997C68.4327 306.938 68.4606 305.851 68.7142 304.802C68.9679 303.753 69.442 302.762 70.1085 301.89C70.9917 300.712 72.123 299.719 73.4315 298.974C74.7399 298.23 76.1971 297.749 77.7115 297.562C77.8591 297.213 78.0068 296.899 78.1544 296.62C76.4066 296.753 74.7109 297.248 73.1869 298.068C71.6629 298.888 70.3475 300.014 69.3335 301.366C68.0146 303.119 67.4114 305.264 67.6357 307.404Z" fill="#4F3F4B"/>
<path d="M62.4911 289.97C62.6148 290.066 62.7667 290.119 62.9229 290.119C63.0792 290.119 63.2311 290.066 63.3548 289.97C63.4662 289.829 63.527 289.654 63.527 289.473C63.527 289.292 63.4662 289.117 63.3548 288.976L61.4704 287.069C61.3387 286.94 61.1628 286.868 60.9797 286.868C60.7967 286.868 60.6207 286.94 60.489 287.069C60.4222 287.128 60.3686 287.202 60.332 287.284C60.2953 287.366 60.2764 287.455 60.2764 287.546C60.2764 287.636 60.2953 287.725 60.332 287.807C60.3686 287.889 60.4222 287.963 60.489 288.022L62.3733 289.97H62.4911Z" fill="white"/>
<path d="M59.4633 289.986C59.5614 290.072 59.6763 290.119 59.7937 290.119C59.9112 290.119 60.0261 290.072 60.1242 289.986C60.2215 289.85 60.2759 289.669 60.2759 289.48C60.2759 289.292 60.2215 289.11 60.1242 288.975L58.6822 286.994C58.5781 286.899 58.4527 286.855 58.3275 286.871C58.2023 286.887 58.0852 286.962 57.9963 287.081C57.9074 287.201 57.8522 287.359 57.8403 287.527C57.8284 287.696 57.8605 287.864 57.9311 288.004L59.3731 289.945L59.4633 289.986Z" fill="white"/>
<path d="M56.7551 289.206C56.8859 289.271 57.0391 289.306 57.1957 289.306C57.3523 289.306 57.5055 289.271 57.6363 289.206C57.766 289.104 57.8385 288.969 57.8385 288.827C57.8385 288.686 57.766 288.55 57.6363 288.448L55.7136 286.962C55.5748 286.891 55.4076 286.859 55.2407 286.871C55.0738 286.883 54.9176 286.938 54.7991 287.028C54.6805 287.118 54.607 287.236 54.5911 287.362C54.5753 287.489 54.6181 287.615 54.7121 287.72L56.6349 289.176L56.7551 289.206Z" fill="white"/>
<path d="M53.8211 289.162C53.9092 289.256 54.018 289.306 54.13 289.306C54.242 289.306 54.3508 289.256 54.4389 289.162C54.5342 289.029 54.5874 288.851 54.5874 288.667C54.5874 288.482 54.5342 288.304 54.4389 288.171L53.0269 286.267C52.9805 286.202 52.9251 286.15 52.8638 286.113C52.8025 286.077 52.7365 286.058 52.6695 286.056C52.6026 286.054 52.5361 286.07 52.4737 286.103C52.4114 286.136 52.3544 286.185 52.3061 286.247C52.2579 286.31 52.2192 286.384 52.1923 286.467C52.1654 286.55 52.1509 286.639 52.1495 286.729C52.1482 286.819 52.16 286.909 52.1843 286.993C52.2087 287.077 52.2451 287.154 52.2914 287.219L53.7035 289.162H53.8211Z" fill="white"/>
<path d="M51.0957 288.382C51.2184 288.454 51.369 288.494 51.5241 288.494C51.6791 288.494 51.8298 288.454 51.9525 288.382C52.0786 288.282 52.1491 288.148 52.1491 288.009C52.1491 287.87 52.0786 287.737 51.9525 287.637L50.0831 286.206C49.9524 286.11 49.7778 286.056 49.5962 286.056C49.4146 286.056 49.2401 286.11 49.1094 286.206C49.0431 286.251 48.99 286.306 48.9536 286.368C48.9173 286.429 48.8984 286.496 48.8984 286.564C48.8984 286.631 48.9173 286.698 48.9536 286.76C48.99 286.822 49.0431 286.877 49.1094 286.921L50.9788 288.382H51.0957Z" fill="white"/>
<path d="M114.639 214.901C118.626 212.285 174.478 209.203 191.073 217.482C192.33 221.711 164.888 232.858 156.878 240.671C143.997 239.96 131.09 241.488 118.733 245.187C113.273 253.308 107.273 261.055 100.774 268.376C93.9774 275.827 87.5753 283.627 81.594 291.744L70.0283 283.25C70.0283 283.25 103.791 222.069 114.639 214.901Z" fill="#020113"/>
<path d="M85.7227 284.428C85.8322 284.439 85.9424 284.415 86.0365 284.36C86.1307 284.305 86.2038 284.222 86.2446 284.124C86.2855 284.026 86.292 283.917 86.2631 283.815C86.2341 283.713 86.1714 283.622 86.0843 283.558L74.1146 275.621C74.0211 275.537 73.8984 275.491 73.7711 275.491C73.6437 275.491 73.5211 275.537 73.4275 275.621C73.3804 275.663 73.3429 275.714 73.3172 275.771C73.2916 275.828 73.2783 275.889 73.2783 275.951C73.2783 276.013 73.2916 276.075 73.3172 276.132C73.3429 276.188 73.3804 276.24 73.4275 276.282L85.4696 284.219L85.7227 284.428Z" fill="#9E001B"/>
<path d="M82.5727 282.747C82.6524 282.785 82.7398 282.805 82.8284 282.805C82.917 282.805 83.0045 282.785 83.0841 282.747C83.0841 282.747 84.6184 280.615 94.6641 269.737C102.986 260.208 110.72 250.192 117.824 239.743C117.872 239.699 117.91 239.646 117.935 239.587C117.961 239.528 117.975 239.464 117.975 239.4C117.975 239.335 117.961 239.271 117.935 239.212C117.91 239.153 117.872 239.1 117.824 239.056C117.73 238.97 117.606 238.922 117.477 238.922C117.348 238.922 117.224 238.97 117.13 239.056C110.051 249.401 102.341 259.309 94.0431 268.726C83.8513 279.567 82.4266 281.771 82.3535 281.844C82.2663 281.937 82.2178 282.06 82.2178 282.187C82.2178 282.314 82.2663 282.437 82.3535 282.53L82.5727 282.747Z" fill="#9E001B"/>
<path d="M210.552 216.167C210.552 216.167 220.918 259.872 170.419 252.949C147.636 249.883 137.557 244.258 137.557 244.258C137.557 244.258 133.13 264.127 130.359 272.349C127.587 280.571 121.648 294.995 121.648 294.995L108.223 292.326C108.223 292.326 114.773 229.69 126.975 225.074C139.177 220.458 159.045 219.124 186.436 221.756C186.436 221.792 206.197 217.321 210.552 216.167Z" fill="#020113"/>
<path d="M120.735 287.466C120.85 287.486 120.968 287.469 121.073 287.418C121.177 287.366 121.262 287.283 121.314 287.18C125.134 277.177 128.276 266.934 130.721 256.518C132.71 248.637 134.628 241.187 135.822 240.506C137.016 239.825 140.163 241.151 144.432 242.727C155.975 247.529 168.38 249.966 180.9 249.891C184.524 249.981 188.129 249.345 191.498 248.021C194.868 246.698 197.933 244.714 200.509 242.19C205.531 236.137 208.245 228.53 208.179 220.698C208.179 220.633 208.166 220.57 208.14 220.511C208.114 220.452 208.076 220.399 208.029 220.355C207.981 220.311 207.925 220.278 207.864 220.256C207.802 220.235 207.737 220.227 207.673 220.232C207.538 220.232 207.409 220.285 207.314 220.379C207.219 220.473 207.166 220.6 207.166 220.733C207.295 228.296 204.733 235.663 199.93 241.545C197.461 244.069 194.495 246.064 191.215 247.407C187.936 248.75 184.413 249.413 180.864 249.354C168.44 249.407 156.133 246.97 144.686 242.19C139.657 240.327 136.618 239.217 135.243 240.005C133.868 240.793 132.313 246.309 129.671 256.625C127.314 266.962 124.231 277.124 120.446 287.036C120.399 287.16 120.403 287.297 120.457 287.418C120.511 287.538 120.611 287.633 120.735 287.681V287.466Z" fill="#CE101D"/>
<path d="M109.452 285.332L124.017 287.681C124.132 287.668 124.239 287.619 124.321 287.544C124.402 287.468 124.455 287.369 124.469 287.263C124.49 287.148 124.461 287.03 124.39 286.934C124.319 286.838 124.21 286.771 124.087 286.748L109.487 284.431C109.367 284.431 109.252 284.475 109.168 284.553C109.083 284.632 109.035 284.738 109.035 284.849C109.035 284.96 109.083 285.066 109.168 285.145C109.252 285.223 109.367 285.267 109.487 285.267L109.452 285.332Z" fill="#CE101D"/>
<path d="M172.042 216.78L124.557 214.88C122.593 214.801 120.937 216.33 120.859 218.295C120.78 220.26 122.309 221.917 124.272 221.995L171.758 223.896C173.722 223.974 175.377 222.445 175.456 220.48C175.534 218.515 174.006 216.859 172.042 216.78Z" fill="#1F141D"/>
<path d="M114.725 221.467C113.717 221.425 112.752 221.055 111.982 220.415C111.212 219.776 110.681 218.902 110.474 217.934L101.827 179.917C101.694 179.388 101.687 178.836 101.807 178.303C101.927 177.771 102.171 177.274 102.52 176.849C102.869 176.425 103.313 176.086 103.818 175.858C104.323 175.63 104.875 175.52 105.43 175.536L129.929 176.525C130.731 176.545 131.503 176.827 132.123 177.326C132.743 177.826 133.175 178.513 133.352 179.281L143.98 222.668L114.725 221.467Z" fill="#1F141D"/>
<path d="M117.275 198.733C117.541 200.044 118.152 201.24 119.031 202.169C119.909 203.099 121.017 203.722 122.214 203.96C124.425 204.189 125.669 202.167 125.185 199.496C124.929 198.175 124.322 196.969 123.442 196.031C122.563 195.093 121.45 194.466 120.246 194.23C118.069 194.116 116.757 196.1 117.275 198.733Z" fill="#027BFE"/>
<path d="M121.312 198.672C121.312 199.341 121.66 199.914 121.869 199.914C122.077 199.914 122.112 199.436 121.869 198.768C121.625 198.099 121.521 197.526 121.347 197.478C121.173 197.431 121.208 198.004 121.312 198.672Z" fill="#1F141D"/>
<path d="M119.666 198.273C119.666 198.719 120.018 199.101 120.195 199.101C120.371 199.101 120.477 198.783 120.371 198.305C120.265 197.828 119.983 197.509 119.807 197.477C119.631 197.446 119.525 197.828 119.666 198.273Z" fill="#1F141D"/>
<path d="M121.982 201.54C123.671 201.54 123.636 199.744 123.636 199.744C123.654 199.705 123.664 199.662 123.664 199.619C123.664 199.575 123.654 199.532 123.636 199.493H123.464C123.464 199.493 123.464 201.145 122.051 201.037C120.638 200.929 119.983 199.242 119.949 199.206C119.915 199.17 119.949 198.99 119.708 199.206C119.467 199.421 119.708 199.206 119.708 199.421C119.905 199.933 120.213 200.39 120.608 200.757C121.002 201.124 121.472 201.392 121.982 201.54Z" fill="#1F141D"/>
<path d="M133.014 179.039L143.561 222.668H146.417L135.87 179.183C135.692 178.367 135.228 177.637 134.56 177.12C133.891 176.603 133.06 176.33 132.208 176.348H129.352C130.183 176.323 130.999 176.575 131.665 177.064C132.33 177.553 132.806 178.25 133.014 179.039Z" fill="#1F141D"/>
<path d="M142.762 219.418C142.668 219.413 142.579 219.38 142.507 219.322C142.434 219.265 142.383 219.187 142.36 219.099L132.603 179.059C132.628 178.98 132.679 178.91 132.748 178.861C132.817 178.812 132.901 178.785 132.986 178.785C133.072 178.785 133.155 178.812 133.224 178.861C133.293 178.91 133.344 178.98 133.37 179.059L143.163 218.921C143.177 219.028 143.152 219.137 143.092 219.227C143.032 219.318 142.941 219.386 142.835 219.418H142.762Z" fill="#4F3F4B"/>
<path d="M164.489 185.565C164.637 186.078 164.817 186.581 165.029 187.072C166.082 189.408 167.518 191.555 169.276 193.423L169.636 193.817C169.636 193.817 169.636 194.104 169.636 194.284C169.582 195.032 169.473 195.775 169.312 196.508C167.189 206.088 166.685 207.702 165.713 211.757C178.312 229.912 208.261 218.502 209.845 216.242C211.212 206.518 211.212 206.518 212.688 197.118C213.905 190.999 215.651 184.997 217.908 179.178C217.908 178.927 217.908 178.676 218.196 178.389C218.952 176.416 219.744 174.406 220.572 172.505C224.171 164.181 223.379 156.646 218.52 153.238C215.663 151.779 212.625 150.705 209.485 150.044L207.685 149.686C204.517 149.076 202.033 148.717 202.033 148.717H186.735C185.223 148.896 183.855 149.076 182.631 149.291C181.649 149.457 180.676 149.672 179.715 149.937C171.94 152.054 171.616 156.144 170.176 163.499C169.751 165.573 169.21 167.621 168.557 169.634L167.909 171.5C165.821 177.384 163.625 182.479 164.489 185.565Z" fill="#D4E9FF"/>
<path d="M187.611 147.903L187.082 153.336C186.975 154.334 187.144 155.343 187.569 156.248C187.993 157.153 188.657 157.917 189.484 158.453C190.312 158.989 191.269 159.276 192.247 159.28C193.225 159.285 194.185 159.007 195.017 158.478C199.354 155.798 203.269 152.104 203.304 148.591L187.611 147.903Z" fill="#FFA48F"/>
<path d="M169.985 194.145C169.985 194.145 169.985 194.403 169.985 194.564C173.56 195.235 177.252 195.235 180.827 194.564C186.043 193.761 191.409 194.498 196.114 196.664H196.331C196.404 196.659 196.475 196.639 196.538 196.605C196.6 196.571 196.653 196.525 196.693 196.47C196.764 196.399 196.803 196.307 196.803 196.212C196.803 196.116 196.764 196.024 196.693 195.953C191.824 193.666 186.242 192.894 180.827 193.757C177.257 194.469 173.555 194.469 169.985 193.757V194.145Z" fill="#FF9E00"/>
<path d="M183.917 173.096C189.002 173.096 199.496 166.013 199.929 165.659C199.968 165.622 199.999 165.578 200.021 165.53C200.042 165.481 200.053 165.428 200.053 165.375C200.053 165.322 200.042 165.27 200.021 165.221C199.999 165.172 199.968 165.128 199.929 165.092C199.892 165.053 199.847 165.023 199.797 165.002C199.748 164.981 199.694 164.97 199.64 164.97C199.586 164.97 199.533 164.981 199.483 165.002C199.434 165.023 199.389 165.053 199.352 165.092C199.352 165.092 188.533 172.388 183.808 172.175C179.084 171.963 178.146 167.182 178.146 167.146C178.166 167.083 178.169 167.016 178.158 166.951C178.146 166.885 178.119 166.824 178.079 166.771C178.038 166.718 177.986 166.675 177.926 166.645C177.865 166.615 177.799 166.6 177.732 166.6C177.664 166.6 177.598 166.615 177.537 166.645C177.477 166.675 177.425 166.718 177.385 166.771C177.344 166.824 177.317 166.885 177.305 166.951C177.294 167.016 177.298 167.083 177.317 167.146C177.573 168.723 178.364 170.169 179.562 171.25C180.76 172.33 182.295 172.98 183.917 173.096Z" fill="#FF9E00"/>
<path d="M167.004 204.784C167.113 204.802 167.223 204.779 167.319 204.72C167.415 204.661 167.49 204.569 167.532 204.459C168.621 200.622 169.941 193.854 169.974 193.601C169.994 193.504 169.985 193.403 169.95 193.312C169.914 193.221 169.853 193.145 169.776 193.094C167.437 191.01 165.818 188.111 165.189 184.879C165.165 184.75 165.097 184.637 164.999 184.563C164.9 184.489 164.779 184.459 164.661 184.48C164.548 184.514 164.449 184.591 164.383 184.697C164.317 184.803 164.287 184.931 164.298 185.06C164.92 188.441 166.587 191.483 169.017 193.673C168.753 195.049 167.631 200.658 166.674 203.952C166.641 204.082 166.654 204.22 166.708 204.34C166.763 204.461 166.857 204.554 166.971 204.603L167.004 204.784Z" fill="#FF9E00"/>
<path d="M184.821 107.845C183.409 107.355 181.903 107.175 180.41 107.318C178.918 107.462 177.478 107.926 176.194 108.675C174.553 109.533 173.238 110.873 172.439 112.502C171.64 114.13 171.398 115.963 171.75 117.733C172.086 120.656 169.659 119.537 169.21 124.157C168.762 128.776 172.385 127.332 171.675 131.374C170.966 135.416 169.472 139.927 172.646 142.2C175.821 144.474 174.065 148.082 174.775 151.763C174.775 152.81 178.92 149.49 187.435 149.273C190.721 149.273 189.564 146.134 187.435 142.561C185.306 138.988 184.597 119.14 186.389 115.748C188.182 112.356 184.821 107.845 184.821 107.845Z" fill="#1F141D"/>
<path d="M178.832 130.941C178.832 130.941 175.926 128.5 175.059 131.589C174.191 134.678 176.266 140.284 179.737 138.683L178.832 130.941Z" fill="#FF737F"/>
<path d="M187.051 143.695L188.027 150.968C188.027 150.968 193.329 158.242 203.304 148.567C201.208 145.21 200.118 141.31 200.165 137.339C199.457 137.781 198.791 138.289 198.177 138.857L197.34 139.387C194.27 141.581 190.755 143.053 187.051 143.695Z" fill="#FFA48F"/>
<path d="M187.051 143.633L187.522 147.091C191.607 145.491 195.126 142.658 197.615 138.965L196.808 139.484C193.89 141.584 190.56 143.001 187.051 143.633Z" fill="#1F141D"/>
<path d="M179.926 142.6C186.388 149.095 199.488 138.148 200.053 137.71C200.053 137.126 200.053 136.506 200.053 135.922C200.081 131.252 199.439 126.603 198.146 122.128C197.877 119.895 196.928 117.808 195.436 116.169C193.945 114.529 191.988 113.421 189.848 113.006C186.2 112.72 182.572 113.78 179.608 115.998C176.325 117.749 174.912 122.785 176.077 129.427C177.313 137.527 178.125 140.812 179.926 142.6Z" fill="#FFA48F"/>
<path d="M181.362 114.622C181.362 114.622 178.759 124.83 172.423 124.318C172.423 124.318 172.218 113.89 181.362 114.622Z" fill="#1F141D"/>
<path d="M180.586 111.765C180.586 111.765 179.77 118.524 185.875 119.196C191.981 119.868 194.04 121.213 194.359 124.539C194.678 127.866 198.086 126.804 199.968 127.016C201.849 127.229 198.69 131.475 199.577 135.686C200.464 139.897 197.66 141.843 198.051 145.311C198.441 148.779 208.7 148.85 213.882 150.902C219.065 152.955 209.907 141.914 212.001 138.269C215.125 132.891 206.357 131.192 208.451 126.556C209.446 124.742 209.683 122.611 209.112 120.624C208.54 118.636 207.206 116.954 205.399 115.941C202.31 113.64 202.807 110.031 198.796 107.236C196.063 105.36 193.152 105.431 187.757 105.997C186.096 106.054 184.499 106.647 183.205 107.688C181.912 108.728 180.993 110.159 180.586 111.765Z" fill="#1F141D"/>
<path d="M187.863 167.408C187.168 167.413 186.482 167.256 185.86 166.948C185.238 166.64 184.699 166.191 184.287 165.637C181.032 161.141 184.895 149.598 185.074 149.138C185.126 148.983 185.238 148.855 185.386 148.782C185.533 148.709 185.704 148.697 185.86 148.748C186.017 148.8 186.146 148.911 186.22 149.057C186.294 149.203 186.306 149.372 186.254 149.527C186.254 149.527 182.427 160.928 185.288 164.894C185.597 165.326 186.012 165.673 186.494 165.902C186.976 166.131 187.508 166.235 188.042 166.204C198.378 166.204 204.458 149.315 204.53 149.173C204.582 149.018 204.694 148.89 204.842 148.817C204.989 148.744 205.16 148.732 205.316 148.784C205.473 148.835 205.602 148.947 205.676 149.093C205.75 149.239 205.762 149.408 205.71 149.563C205.245 150.306 199.093 167.408 187.863 167.408Z" fill="white"/>
<path d="M191.307 112.536C191.307 112.536 184.121 102.433 193.499 98.5017C195.035 97.7434 196.74 97.4142 198.44 97.5475C200.141 97.6808 201.777 98.2718 203.182 99.2606C204.587 100.249 205.711 101.601 206.44 103.177C207.169 104.754 207.477 106.5 207.332 108.237C206.398 113.491 199.679 116.21 199.679 116.21L191.307 112.536Z" fill="#1F141D"/>
<path d="M184.625 138.895C184.105 138.988 183.572 138.988 183.052 138.895C183.01 138.846 182.987 138.784 182.987 138.72C182.987 138.655 183.01 138.593 183.052 138.544C183.074 138.519 183.101 138.499 183.132 138.485C183.162 138.472 183.195 138.465 183.229 138.465C183.262 138.465 183.295 138.472 183.326 138.485C183.356 138.499 183.384 138.519 183.406 138.544C183.817 138.672 184.252 138.711 184.679 138.657C185.107 138.603 185.518 138.458 185.884 138.232C185.906 138.207 185.933 138.187 185.964 138.173C185.994 138.159 186.027 138.152 186.061 138.152C186.094 138.152 186.128 138.159 186.158 138.173C186.189 138.187 186.216 138.207 186.238 138.232C186.238 138.232 186.238 138.544 186.238 138.622C185.731 138.843 185.177 138.937 184.625 138.895Z" fill="#FF737F"/>
<path d="M179.737 134.627C179.737 134.627 183.365 134.13 187.864 133.276C187.807 134.248 187.418 135.172 186.76 135.9C186.102 136.629 185.213 137.119 184.236 137.293C183.286 137.436 182.315 137.247 181.493 136.76C180.671 136.273 180.049 135.518 179.737 134.627Z" fill="white"/>
<path d="M182.974 132.46C182.992 132.402 182.992 132.338 182.974 132.28C182.974 132.099 182.974 131.955 182.801 131.883L181.155 131.305L182.195 130.041C182.219 129.959 182.219 129.87 182.195 129.788L181.761 126.394C181.775 126.345 181.779 126.292 181.773 126.241C181.767 126.19 181.752 126.141 181.728 126.099C181.704 126.056 181.672 126.022 181.635 125.998C181.598 125.974 181.557 125.962 181.516 125.962C181.474 125.962 181.433 125.974 181.396 125.998C181.36 126.022 181.328 126.056 181.304 126.099C181.28 126.141 181.264 126.19 181.258 126.241C181.252 126.292 181.257 126.345 181.27 126.394L181.675 129.608L180.577 131.16C180.559 131.205 180.55 131.255 180.55 131.305C180.55 131.355 180.559 131.404 180.577 131.449C180.577 131.449 180.577 131.666 180.75 131.666L182.801 132.388C182.823 132.416 182.851 132.438 182.881 132.45C182.911 132.463 182.943 132.466 182.974 132.46Z" fill="black"/>
<path d="M184.634 121.116C184.634 121.116 183.301 121.551 184.005 122.9C184.708 124.25 187.115 122.117 189.448 124.337C189.596 124.337 189.596 120.724 184.634 121.116Z" fill="#1F141D"/>
<path d="M178.579 122.711C178.579 122.711 179.967 122.711 179.704 123.852C179.442 124.992 176.516 124.279 174.978 126.774C175.053 126.774 173.703 124.065 178.579 122.711Z" fill="#1F141D"/>
<path d="M187.057 130.696C187.057 131.52 188.312 131.86 189.661 131.52C191.011 131.181 192.015 130.162 191.921 129.337C191.826 128.512 190.665 128.172 189.316 128.561C187.967 128.949 186.963 129.919 187.057 130.696Z" fill="#FF737F"/>
<g opacity="0.8">
<path opacity="0.8" d="M175.491 133.689H176.174C177.718 133.438 178.868 132.719 178.76 132.108C178.652 131.497 177.323 131.246 175.779 131.497H175.204L175.491 133.689Z" fill="#FF737F"/>
</g>
<path d="M196.803 134.089C197.56 135.532 198.697 136.669 200.053 137.34C200.053 136.697 200.053 136.015 200.053 135.373C198.886 135.295 197.761 134.85 196.803 134.089Z" fill="#1F141D"/>
<path d="M197.615 128.233C197.615 128.233 200.104 122.993 203.127 126.174C205.616 128.832 203.127 137.403 198.824 135.419L197.615 128.233Z" fill="#FFA48F"/>
<path d="M198.957 133.967C199.032 133.949 199.099 133.9 199.143 133.831C199.188 133.761 199.207 133.676 199.196 133.592C199.131 132.541 199.318 131.49 199.738 130.542C200.158 129.595 200.798 128.785 201.592 128.192C201.648 128.118 201.678 128.025 201.678 127.929C201.678 127.833 201.648 127.741 201.592 127.667C201.528 127.615 201.45 127.587 201.37 127.587C201.29 127.587 201.212 127.615 201.147 127.667C200.249 128.33 199.526 129.24 199.051 130.307C198.576 131.374 198.367 132.558 198.443 133.742C198.442 133.794 198.451 133.845 198.471 133.891C198.491 133.938 198.52 133.979 198.556 134.012C198.592 134.044 198.635 134.067 198.681 134.079C198.726 134.091 198.774 134.091 198.82 134.08L198.957 133.967Z" fill="#1F141D"/>
<path d="M201.392 131.651C201.479 131.613 201.555 131.521 201.605 131.394C201.652 131.301 201.678 131.183 201.678 131.061C201.678 130.939 201.652 130.821 201.605 130.728C201.29 130.398 200.939 130.179 200.572 130.082C200.206 129.985 199.831 130.013 199.471 130.164C199.428 130.182 199.388 130.216 199.353 130.263C199.319 130.31 199.291 130.369 199.271 130.436C199.252 130.504 199.241 130.577 199.24 130.652C199.239 130.727 199.248 130.801 199.266 130.869C199.285 130.938 199.311 130.999 199.345 131.048C199.378 131.097 199.418 131.133 199.461 131.154C199.504 131.175 199.548 131.179 199.592 131.168C199.636 131.156 199.678 131.128 199.715 131.087C200.172 130.728 201.026 131.343 201.331 131.599L201.392 131.651Z" fill="#1F141D"/>
<path d="M185.48 127.741C185.48 128.628 186.047 129.283 186.48 129.206C186.914 129.129 187.147 128.32 187.014 127.433C186.88 126.546 186.413 125.891 185.98 125.968C185.547 126.045 185.313 126.855 185.48 127.741Z" fill="#1F141D"/>
<path d="M177.336 128.937C177.336 129.607 177.93 130.102 178.359 130.015C178.788 129.927 179.019 129.345 178.887 128.675C178.755 128.005 178.293 127.51 177.864 127.597C177.435 127.684 177.204 128.267 177.336 128.937Z" fill="#1F141D"/>
<path d="M185.349 131.651C184.655 131.648 183.986 131.395 183.463 130.938C182.941 130.482 182.601 129.852 182.506 129.166L182.191 127.154C182.134 126.772 182.231 126.383 182.46 126.073C182.69 125.762 183.033 125.555 183.414 125.497L191.586 124.353C191.968 124.296 192.357 124.393 192.668 124.622C192.978 124.851 193.186 125.194 193.244 125.576L193.521 127.588C193.577 127.962 193.557 128.343 193.462 128.709C193.367 129.075 193.199 129.418 192.968 129.718C192.511 130.333 191.83 130.744 191.073 130.862L185.625 131.611L185.349 131.651ZM191.784 125.023L183.612 126.207C183.42 126.236 183.246 126.339 183.128 126.494C183.011 126.648 182.957 126.842 182.98 127.035L183.256 129.047C183.296 129.336 183.393 129.615 183.542 129.865C183.691 130.116 183.889 130.334 184.125 130.507C184.571 130.787 185.103 130.899 185.625 130.822L190.915 130.033C191.204 129.994 191.483 129.897 191.734 129.748C191.985 129.599 192.203 129.401 192.376 129.166C192.547 128.936 192.67 128.675 192.738 128.397C192.806 128.119 192.817 127.83 192.77 127.548L192.494 125.536C192.444 125.387 192.349 125.257 192.222 125.165C192.094 125.073 191.941 125.024 191.784 125.023Z" fill="white"/>
<path d="M176.19 133.276C175.604 133.279 175.035 133.084 174.573 132.723C174.011 132.292 173.641 131.656 173.544 130.954L173.25 129.074C173.197 128.717 173.288 128.354 173.501 128.064C173.714 127.774 174.034 127.581 174.389 127.526L179.533 126.789C179.707 126.763 179.884 126.772 180.055 126.816C180.225 126.859 180.385 126.937 180.526 127.043C180.666 127.149 180.784 127.283 180.872 127.435C180.96 127.588 181.017 127.756 181.04 127.931L181.334 129.811C181.385 130.165 181.366 130.525 181.277 130.872C181.188 131.218 181.032 131.543 180.816 131.828C180.601 132.113 180.331 132.352 180.022 132.531C179.713 132.71 179.372 132.825 179.019 132.87L176.594 133.239L176.19 133.276ZM179.864 127.452L174.757 128.189C174.666 128.198 174.578 128.226 174.498 128.27C174.419 128.315 174.349 128.375 174.294 128.448C174.239 128.52 174.199 128.604 174.178 128.692C174.156 128.781 174.153 128.873 174.169 128.963L174.426 130.843C174.462 131.111 174.551 131.368 174.687 131.601C174.823 131.833 175.005 132.036 175.22 132.197C175.436 132.359 175.681 132.475 175.942 132.54C176.204 132.605 176.475 132.617 176.741 132.575L179.202 132.244C179.732 132.153 180.207 131.861 180.529 131.429C180.85 130.997 180.994 130.457 180.929 129.922L180.672 128.042C180.674 127.927 180.648 127.813 180.595 127.71C180.543 127.607 180.466 127.519 180.372 127.454C180.277 127.388 180.168 127.347 180.054 127.334C179.939 127.321 179.824 127.336 179.717 127.379L179.864 127.452Z" fill="white"/>
<path d="M180.082 127.587L179.737 127.215C180.212 126.98 180.755 126.834 181.321 126.789C181.886 126.744 182.458 126.802 182.988 126.957L182.758 127.444C182.332 127.297 181.863 127.234 181.396 127.259C180.928 127.284 180.476 127.397 180.082 127.587Z" fill="white"/>
<path d="M192.255 126.639C192.189 126.633 192.125 126.605 192.07 126.557C192.014 126.51 191.97 126.445 191.94 126.369C191.916 126.261 191.925 126.146 191.964 126.046C192.003 125.946 192.069 125.868 192.15 125.828C194.435 124.923 196.879 124.923 199.164 125.828C199.213 125.895 199.241 125.983 199.241 126.076C199.241 126.168 199.213 126.257 199.164 126.324C199.152 126.373 199.133 126.419 199.107 126.458C199.08 126.497 199.048 126.528 199.011 126.55C198.974 126.571 198.935 126.582 198.895 126.582C198.854 126.582 198.815 126.571 198.778 126.549C196.667 125.819 194.437 125.897 192.36 126.775L192.255 126.639Z" fill="white"/>
<path d="M157.847 213.084C157.847 213.084 148.34 208.958 143.979 211.09L145.695 217.967L151.199 220.443C152.879 221.199 153.022 224.259 159.42 224.294L157.847 213.084Z" fill="#FFA48F"/>
<path d="M223.62 171.816C223.62 169.527 223.404 167.274 223.189 164.986C223.189 163.842 222.901 162.697 222.721 161.41C222.541 160.123 222.721 160.23 222.433 159.658C222.145 159.086 222.433 159.05 222.433 158.728V158.263V158.013V157.655L205.815 161.768V162.197V162.805L206.031 164.056C206.031 164.914 206.283 165.808 206.391 166.702C206.606 168.49 206.714 170.278 206.786 172.102C206.929 175.686 206.749 179.277 206.247 182.829C206.247 183.723 205.995 184.582 205.815 185.476C205.635 186.369 205.491 187.192 205.275 188.05C205.06 188.908 204.844 189.767 204.592 190.625C204.34 191.483 204.088 192.305 203.801 193.128C203.513 193.95 203.189 194.773 202.865 195.559C202.542 196.346 202.182 197.169 201.822 197.955L200.635 200.28L199.988 201.388L199.376 201.853C198.753 202.23 198.104 202.565 197.434 202.854C195.831 203.605 194.186 204.262 192.506 204.821C188.909 206.037 185.312 207.074 181.319 208.039C177.327 209.005 173.586 209.827 169.629 210.614L163.694 211.758L160.708 212.295L159.234 212.545L157.795 212.795L159.414 225.919L160.996 225.74H162.579L165.708 225.382C167.795 225.168 169.881 224.882 171.967 224.595C176.14 224.023 180.312 223.38 184.521 222.557C188.803 221.778 193.041 220.775 197.218 219.554C199.44 218.921 201.625 218.169 203.765 217.301L204.484 216.979C205.463 216.567 206.412 216.089 207.326 215.549C207.997 215.182 208.646 214.776 209.268 214.333C210.025 213.783 210.746 213.186 211.426 212.545C211.836 212.14 212.221 211.71 212.577 211.258L213.189 210.471V210.256V210.042C213.513 209.541 213.836 209.076 214.124 208.54C214.412 208.003 215.203 206.752 215.707 205.822V205.465C216.282 204.428 216.786 203.391 217.29 202.318C217.793 201.245 218.225 200.172 218.656 199.064C220.315 194.716 221.52 190.211 222.253 185.619C223.11 181.066 223.567 176.447 223.62 171.816Z" fill="#FFA48F"/>
<path d="M216.307 205.679C215.796 206.621 215.249 207.526 214.702 208.432C214.155 209.337 214.083 209.446 213.754 209.953V210.17V210.388L213.134 211.185C212.773 211.643 212.383 212.078 211.968 212.488C211.278 213.138 210.547 213.743 209.78 214.299C209.148 214.749 208.491 215.16 207.81 215.531C206.884 216.078 205.922 216.562 204.93 216.98C205.076 206.077 212.405 205.281 216.307 205.679Z" fill="#FF9E00"/>
<path d="M205.103 205.555C205.175 205.586 205.253 205.603 205.333 205.603C205.412 205.603 205.491 205.586 205.563 205.555C205.618 205.515 205.663 205.464 205.695 205.405C205.726 205.347 205.742 205.282 205.742 205.217C205.742 205.152 205.726 205.087 205.695 205.029C205.663 204.97 205.618 204.919 205.563 204.879C203.62 203.119 201.531 201.503 199.314 200.046C199.215 199.961 199.085 199.914 198.95 199.914C198.815 199.914 198.685 199.961 198.586 200.046C198.536 200.089 198.496 200.142 198.469 200.2C198.442 200.258 198.428 200.32 198.428 200.384C198.428 200.447 198.442 200.51 198.469 200.568C198.496 200.626 198.536 200.678 198.586 200.721C200.782 202.202 202.869 203.817 204.834 205.555H205.103Z" fill="#FF9E00"/>
<path d="M203.602 202.343C203.709 202.368 203.82 202.341 203.912 202.266C204.004 202.191 204.071 202.074 204.1 201.939C204.13 201.799 204.118 201.65 204.066 201.523C204.013 201.395 203.926 201.298 203.82 201.251C203.82 201.251 201.518 200.362 199.744 199.917C199.634 199.903 199.523 199.939 199.432 200.021C199.341 200.102 199.275 200.223 199.246 200.362C199.228 200.506 199.253 200.654 199.317 200.775C199.381 200.896 199.478 200.979 199.588 201.009C201.3 201.453 203.54 202.302 203.571 202.302L203.602 202.343Z" fill="#FF9E00"/>
<path d="M167.966 211.291H168.252C178.894 208.86 189.273 205.382 199.241 200.907C199.67 199.898 209.439 175.452 208.043 165.608C208.064 165.533 208.067 165.455 208.052 165.378C208.037 165.302 208.006 165.23 207.959 165.168C207.912 165.107 207.852 165.057 207.783 165.022C207.714 164.988 207.637 164.97 207.56 164.97C207.483 164.97 207.407 164.988 207.338 165.022C207.269 165.057 207.209 165.107 207.162 165.168C207.115 165.23 207.083 165.302 207.069 165.378C207.054 165.455 207.057 165.533 207.077 165.608C208.401 174.803 199.205 198.059 198.382 200.258C188.555 204.545 178.363 207.924 167.93 210.354C167.864 210.366 167.801 210.392 167.746 210.431C167.691 210.469 167.645 210.519 167.611 210.577C167.577 210.636 167.556 210.701 167.549 210.768C167.542 210.835 167.55 210.903 167.572 210.967C167.599 211.053 167.651 211.13 167.721 211.188C167.791 211.246 167.876 211.281 167.966 211.291Z" fill="#020113"/>
<path d="M206.915 170.628C207.023 170.661 207.137 170.661 207.245 170.628C207.324 170.539 207.368 170.423 207.368 170.302C207.368 170.181 207.324 170.064 207.245 169.975L205.693 167.535C205.608 167.453 205.496 167.407 205.38 167.407C205.263 167.407 205.151 167.453 205.066 167.535C205.023 167.577 204.989 167.627 204.965 167.684C204.942 167.74 204.93 167.8 204.93 167.861C204.93 167.923 204.942 167.983 204.965 168.039C204.989 168.096 205.023 168.146 205.066 168.188L206.585 170.628C206.691 170.668 206.808 170.668 206.915 170.628Z" fill="#FF9E00"/>
<path d="M159.152 223.473L166.326 222.219C166.391 222.209 166.454 222.182 166.51 222.141C166.566 222.1 166.615 222.045 166.652 221.979C166.689 221.914 166.715 221.84 166.726 221.762C166.738 221.684 166.736 221.604 166.721 221.526C166.712 221.452 166.691 221.381 166.659 221.317C166.627 221.252 166.585 221.196 166.535 221.152C166.484 221.108 166.428 221.076 166.367 221.058C166.307 221.041 166.244 221.038 166.183 221.051L159.009 222.305C158.882 222.337 158.769 222.426 158.696 222.555C158.622 222.684 158.593 222.843 158.614 222.997C158.623 223.072 158.644 223.143 158.676 223.207C158.708 223.272 158.75 223.328 158.8 223.372C158.85 223.416 158.907 223.448 158.968 223.466C159.028 223.483 159.091 223.486 159.152 223.473Z" fill="#FF9E00"/>
<path d="M161.111 218.299C161.009 218.508 161.028 218.735 161.164 218.935C161.301 219.134 161.544 219.291 161.845 219.373C162.153 219.443 162.488 219.43 162.783 219.337C163.077 219.245 163.308 219.08 163.43 218.876C163.522 218.671 163.496 218.449 163.355 218.257C163.214 218.065 162.97 217.917 162.673 217.843C162.376 217.769 162.048 217.776 161.758 217.86C161.467 217.945 161.236 218.102 161.111 218.299Z" fill="#FF9E00"/>
<path d="M206.887 80.415H202.197C202.142 80.4208 202.086 80.4144 202.033 80.3963C201.981 80.3782 201.934 80.3489 201.894 80.3106C201.855 80.2723 201.825 80.2258 201.807 80.1747C201.788 80.1236 201.781 80.0691 201.787 80.0152V76.9614C199.908 76.6675 198.071 76.1549 196.316 75.4346C195.381 75.099 194.483 74.6728 193.636 74.1622C193.581 74.088 193.552 73.999 193.552 73.9077C193.552 73.8164 193.581 73.7274 193.636 73.6532L196.316 68.0911C196.298 68.0317 196.298 67.9687 196.316 67.9093C196.368 67.8837 196.425 67.8704 196.483 67.8704C196.541 67.8704 196.599 67.8837 196.651 67.9093C198.081 68.7587 199.638 69.3843 201.266 69.7633C202.18 69.9865 203.116 70.1084 204.058 70.1269C204.797 70.1948 205.544 70.1207 206.254 69.9088C206.663 69.9088 206.701 69.5452 206.701 69.3635C206.701 69.1817 205.286 68.3092 203.686 67.9457H203.127C201.195 67.5271 199.339 66.8287 197.618 65.8735C196.452 65.2744 195.493 64.3509 194.864 63.2196C194.339 62.1953 194.095 61.0554 194.157 59.9114C194.316 57.8379 195.271 55.8995 196.831 54.4841C198.391 53.0686 200.44 52.2804 202.569 52.2771V49.0416C202.541 48.9591 202.541 48.8697 202.569 48.7871C202.665 48.7506 202.771 48.7506 202.867 48.7871H207.557C207.669 48.7963 207.773 48.8462 207.849 48.9271C207.925 49.0079 207.967 49.1137 207.966 49.2234V52.3498C208.732 52.427 209.491 52.5607 210.237 52.7497C211.718 53.0938 213.137 53.6578 214.443 54.422C214.517 54.402 214.596 54.403 214.67 54.4249C214.744 54.4468 214.81 54.4887 214.861 54.5457C214.911 54.6027 214.945 54.6726 214.956 54.7472C214.968 54.8218 214.958 54.8981 214.927 54.9673L212.396 60.4567C212.371 60.5094 212.335 60.5561 212.29 60.5938C212.245 60.6314 212.192 60.6591 212.135 60.6749C212.083 60.7004 212.026 60.7138 211.968 60.7138C211.909 60.7138 211.852 60.7004 211.8 60.6749L211.205 60.4931C209.419 59.5346 207.433 58.9874 205.398 58.8935H205.026C203.983 58.8935 202.755 58.8935 202.755 59.8387C202.755 59.8387 202.755 60.1296 203.053 60.3113C204.061 60.7995 205.141 61.1307 206.254 61.2929C207.147 61.511 208.19 61.7291 209.195 62.0563C210.371 62.2645 211.489 62.7119 212.476 63.3695C213.464 64.0272 214.299 64.8803 214.927 65.8735C215.346 66.8372 215.537 67.8812 215.485 68.9272C215.386 70.9725 214.513 72.9089 213.034 74.3601C211.555 75.8113 209.576 76.6737 207.482 76.7797V80.0515C207.488 80.1054 207.482 80.1599 207.463 80.2111C207.445 80.2622 207.415 80.3086 207.375 80.347C207.336 80.3853 207.289 80.4146 207.236 80.4326C207.184 80.4507 207.128 80.4571 207.073 80.4514L206.887 80.415ZM202.606 79.5062H206.328V76.2707C206.328 76.1803 206.362 76.0929 206.424 76.0257C206.486 75.9585 206.571 75.9162 206.663 75.9072C211.353 75.2164 214.108 72.6717 214.294 69.0363C214.335 68.1277 214.169 67.2215 213.81 66.3824C213.281 65.4444 212.546 64.6321 211.658 64.0036C210.77 63.3752 209.751 62.9461 208.673 62.747C207.706 62.4562 206.701 62.2381 205.807 62.02C204.594 61.8475 203.422 61.466 202.346 60.893C202.135 60.7882 201.959 60.626 201.84 60.4261C201.721 60.2262 201.664 59.997 201.676 59.766C201.676 58.9662 202.234 58.021 204.728 58.021H205.175C207.324 58.121 209.424 58.6925 211.316 59.6933L213.847 54.9673C212.681 54.3336 211.428 53.8683 210.125 53.5859C209.255 53.392 208.372 53.2584 207.482 53.186C207.43 53.1862 207.379 53.1758 207.331 53.1553C207.283 53.1348 207.24 53.1047 207.205 53.067C207.17 53.0293 207.143 52.9848 207.127 52.9364C207.111 52.888 207.105 52.8368 207.11 52.7861V49.696H203.388V52.8588C203.388 52.9552 203.349 53.0477 203.279 53.1158C203.209 53.184 203.114 53.2223 203.016 53.2223C198.102 53.7676 195.087 56.3488 194.976 60.1296C194.909 61.2023 195.161 62.271 195.703 63.2065C196.244 64.142 197.052 64.9042 198.028 65.4009C199.72 66.2365 201.525 66.8361 203.388 67.1822H203.983C205.696 67.5821 207.706 68.0184 207.706 69.3998C207.703 69.6753 207.612 69.943 207.445 70.165C207.278 70.3869 207.044 70.5517 206.775 70.6358C205.962 70.9079 205.102 71.0191 204.244 70.963C203.241 70.9143 202.245 70.7805 201.266 70.5631C199.685 70.2013 198.167 69.6132 196.762 68.8181L194.455 73.6169C195.137 74.0275 195.86 74.3686 196.613 74.6348C198.496 75.3008 200.461 75.7165 202.457 75.8708C202.559 75.8943 202.651 75.9496 202.718 76.0282C202.785 76.1069 202.824 76.2048 202.83 76.3071L202.606 79.5062Z" fill="#E5A892"/>
<path d="M74.9212 178.259C74.8807 177.917 74.9131 177.57 75.0163 177.242C75.1194 176.913 75.2911 176.61 75.5198 176.353C75.7485 176.095 76.0292 175.889 76.3433 175.748C76.6574 175.607 76.9979 175.534 77.3423 175.534C77.6866 175.534 78.0271 175.607 78.3412 175.748C78.6554 175.889 78.936 176.095 79.1648 176.353C79.3935 176.61 79.5651 176.913 79.6683 177.242C79.7714 177.57 79.8038 177.917 79.7633 178.259C79.6931 178.852 79.4078 179.398 78.9616 179.795C78.5154 180.191 77.9392 180.41 77.3423 180.41C76.7453 180.41 76.1692 180.191 75.7229 179.795C75.2767 179.398 74.9915 178.852 74.9212 178.259ZM75.7 178.259C75.7 178.587 75.7973 178.908 75.9796 179.181C76.162 179.454 76.4211 179.666 76.7243 179.792C77.0274 179.917 77.361 179.95 77.6829 179.886C78.0047 179.822 78.3004 179.664 78.5324 179.432C78.7645 179.2 78.9225 178.905 78.9865 178.583C79.0505 178.261 79.0177 177.927 78.8921 177.624C78.7665 177.321 78.5538 177.062 78.281 176.879C78.0081 176.697 77.6874 176.6 77.3592 176.6C76.9192 176.6 76.4971 176.775 76.186 177.086C75.8748 177.397 75.7 177.819 75.7 178.259Z" fill="#E5A892"/>
<path d="M68.4193 178.259C68.3788 177.917 68.4111 177.57 68.5143 177.242C68.6175 176.913 68.7891 176.61 69.0178 176.353C69.2465 176.095 69.5272 175.889 69.8414 175.748C70.1555 175.607 70.496 175.534 70.8403 175.534C71.1847 175.534 71.5251 175.607 71.8393 175.748C72.1534 175.889 72.4341 176.095 72.6628 176.353C72.8915 176.61 73.0631 176.913 73.1663 177.242C73.2695 177.57 73.3019 177.917 73.2614 178.259C73.1911 178.852 72.9059 179.398 72.4597 179.795C72.0134 180.191 71.4372 180.41 70.8403 180.41C70.2434 180.41 69.6672 180.191 69.221 179.795C68.7748 179.398 68.4895 178.852 68.4193 178.259ZM69.1642 178.259C69.1731 178.702 69.3553 179.124 69.6719 179.434C69.9885 179.745 70.414 179.918 70.8573 179.918C71.3063 179.918 71.7369 179.74 72.0544 179.422C72.3719 179.105 72.5503 178.674 72.5503 178.225C72.5503 177.776 72.3719 177.345 72.0544 177.028C71.7369 176.71 71.3063 176.532 70.8573 176.532C70.632 176.532 70.4091 176.577 70.2014 176.664C69.9938 176.751 69.8056 176.879 69.648 177.04C69.4903 177.201 69.3663 177.391 69.2832 177.601C69.2002 177.81 69.1597 178.034 69.1642 178.259Z" fill="#E5A892"/>
<path d="M81.0367 221.856C80.1512 221.849 79.2833 222.081 78.5433 222.524C77.8034 222.966 77.2246 223.598 76.8805 224.34C76.5364 225.082 76.4425 225.9 76.6106 226.69C76.7788 227.481 77.2014 228.208 77.825 228.78C78.4485 229.351 79.2448 229.742 80.1128 229.901C80.9809 230.061 81.8815 229.983 82.7004 229.676C83.5193 229.37 84.2196 228.849 84.7124 228.18C85.2052 227.511 85.4683 226.724 85.4684 225.919C85.4734 225.387 85.3624 224.859 85.142 224.367C84.9215 223.874 84.5959 223.426 84.1838 223.048C83.7718 222.67 83.2816 222.37 82.7414 222.166C82.2013 221.961 81.6219 221.856 81.0367 221.856ZM81.0367 229.19C80.2797 229.189 79.5403 228.982 78.914 228.596C78.2877 228.209 77.8031 227.661 77.5229 227.022C77.2426 226.382 77.1795 225.681 77.3416 225.009C77.5038 224.337 77.8838 223.724 78.4326 223.25C78.9815 222.776 79.6739 222.463 80.4207 222.35C81.1675 222.237 81.9343 222.33 82.6223 222.618C83.3102 222.905 83.8877 223.373 84.2802 223.961C84.6727 224.55 84.8623 225.232 84.8245 225.919C84.7758 226.802 84.3554 227.634 83.6503 228.243C82.9451 228.852 82.0093 229.191 81.0367 229.19Z" fill="#E5A892"/>
<path d="M36.09 221.042H32.5224C32.4164 221.047 32.3105 221.03 32.2111 220.99C32.1117 220.951 32.0209 220.891 31.9442 220.814C31.8675 220.737 31.8065 220.644 31.7649 220.541C31.7232 220.438 31.7018 220.327 31.7019 220.216V216.083H27.7776C27.5628 216.074 27.3591 215.98 27.2071 215.82C27.0551 215.66 26.9658 215.446 26.957 215.219V211.463C26.957 211.234 27.0435 211.014 27.1974 210.852C27.3512 210.69 27.5599 210.599 27.7776 210.599H31.6662V206.467C31.6662 206.237 31.7527 206.018 31.9066 205.856C32.0604 205.694 32.2691 205.603 32.4868 205.603H36.0543C36.2691 205.612 36.4728 205.706 36.6248 205.866C36.7768 206.026 36.8661 206.24 36.8749 206.467V210.599H40.7992C40.9053 210.599 41.0104 210.621 41.108 210.665C41.2057 210.709 41.2938 210.773 41.3672 210.854C41.4406 210.935 41.4976 211.03 41.5349 211.135C41.5722 211.24 41.5889 211.351 41.5841 211.463V215.219C41.5843 215.442 41.5027 215.657 41.3565 215.818C41.2102 215.978 41.0106 216.074 40.7992 216.083H36.8749V220.216C36.8661 220.432 36.7806 220.637 36.6353 220.79C36.49 220.943 36.2954 221.033 36.09 221.042ZM27.7062 211.313V215.069H32.3797V219.99H35.9473V215.295H40.6208V211.538H36.1614V206.391H32.5938V211.313H27.7062Z" fill="#E5A892"/>
<path d="M169.902 60.1369H163.566C163.544 60.1369 163.523 60.0941 163.508 60.0179C163.492 59.9417 163.483 59.8383 163.483 59.7305C163.483 59.6228 163.492 59.5194 163.508 59.4432C163.523 59.367 163.544 59.3242 163.566 59.3242H169.902C169.924 59.3242 169.945 59.367 169.96 59.4432C169.976 59.5194 169.985 59.6228 169.985 59.7305C169.985 59.8383 169.976 59.9417 169.96 60.0179C169.945 60.0941 169.924 60.1369 169.902 60.1369Z" fill="#D4E9FF"/>
<path d="M169.902 61.7619H163.566C163.544 61.7619 163.523 61.7191 163.508 61.6429C163.492 61.5667 163.483 61.4633 163.483 61.3555C163.483 61.2478 163.492 61.1444 163.508 61.0682C163.523 60.992 163.544 60.9492 163.566 60.9492H169.902C169.924 60.9492 169.945 60.992 169.96 61.0682C169.976 61.1444 169.985 61.2478 169.985 61.3555C169.985 61.4633 169.976 61.5667 169.96 61.6429C169.945 61.7191 169.924 61.7619 169.902 61.7619Z" fill="#D4E9FF"/>
<path d="M169.902 62.5744H163.566C163.544 62.5744 163.523 62.5316 163.508 62.4554C163.492 62.3792 163.483 62.2758 163.483 62.168C163.483 62.0603 163.492 61.9569 163.508 61.8807C163.523 61.8045 163.544 61.7617 163.566 61.7617H169.902C169.924 61.7617 169.945 61.8045 169.96 61.8807C169.976 61.9569 169.985 62.0603 169.985 62.168C169.985 62.2758 169.976 62.3792 169.96 62.4554C169.945 62.5316 169.924 62.5744 169.902 62.5744Z" fill="#D4E9FF"/>
</svg>
