<svg width="333" height="250" viewBox="0 0 333 250" fill="none" xmlns="http://www.w3.org/2000/svg">
<path d="M36.4268 74.5986H299.417" stroke="#F1EFA5" stroke-width="0.96" stroke-miterlimit="10"/>
<path d="M295.98 57.3555H39.864C37.9656 57.3555 36.4268 58.8948 36.4268 60.7936V216.673C36.4268 218.572 37.9656 220.111 39.864 220.111H295.98C297.878 220.111 299.417 218.572 299.417 216.673V60.7936C299.417 58.8948 297.878 57.3555 295.98 57.3555Z" stroke="#939393" stroke-width="0.96" stroke-miterlimit="10"/>
<path d="M53.7281 66.1616C53.7281 66.638 53.5868 67.1036 53.322 67.4996C53.0572 67.8956 52.6809 68.204 52.2408 68.3859C51.8006 68.5678 51.3164 68.615 50.8494 68.5214C50.3824 68.4278 49.9537 68.1977 49.6176 67.8602C49.2815 67.5228 49.053 67.0931 48.9612 66.6257C48.8693 66.1583 48.9182 65.6741 49.1017 65.2345C49.2852 64.7949 49.5949 64.4196 49.9918 64.1562C50.3886 63.8928 50.8546 63.7532 51.3309 63.7549C51.9675 63.7572 52.5772 64.0118 53.0265 64.4629C53.4758 64.914 53.7281 65.5248 53.7281 66.1616Z" fill="#FDFFF8"/>
<path d="M63.1051 66.1616C63.1051 66.6376 62.9639 67.1029 62.6996 67.4987C62.4352 67.8944 62.0594 68.2029 61.6198 68.3851C61.1801 68.5672 60.6964 68.6149 60.2296 68.522C59.7629 68.4292 59.3342 68.1999 58.9977 67.8634C58.6612 67.5268 58.432 67.098 58.3392 66.6311C58.2464 66.1643 58.294 65.6803 58.4761 65.2406C58.6582 64.8008 58.9666 64.4249 59.3623 64.1605C59.7579 63.896 60.2231 63.7549 60.699 63.7549C61.015 63.7549 61.3278 63.8171 61.6198 63.9381C61.9117 64.059 62.1769 64.2363 62.4003 64.4598C62.6238 64.6833 62.801 64.9486 62.9219 65.2406C63.0428 65.5326 63.1051 65.8455 63.1051 66.1616Z" fill="#FDFFF8"/>
<path d="M72.4556 66.1616C72.4556 66.6376 72.3145 67.1029 72.0502 67.4987C71.7858 67.8944 71.41 68.2029 70.9704 68.3851C70.5307 68.5672 70.0469 68.6149 69.5802 68.522C69.1135 68.4292 68.6848 68.1999 68.3483 67.8634C68.0118 67.5268 67.7826 67.098 67.6898 66.6311C67.597 66.1643 67.6446 65.6803 67.8267 65.2406C68.0088 64.8008 68.3172 64.4249 68.7129 64.1605C69.1085 63.896 69.5737 63.7549 70.0496 63.7549C70.6877 63.7549 71.2997 64.0085 71.7509 64.4598C72.2022 64.9111 72.4556 65.5233 72.4556 66.1616Z" fill="#FDFFF8"/>
<path d="M202.814 23.1631H251.156C251.542 23.1631 251.856 23.4769 251.856 23.8645V37.6788C251.856 38.0664 251.542 38.3802 251.156 38.3802H202.814C202.427 38.3802 202.113 38.0664 202.113 37.6788V23.8645C202.113 23.4769 202.427 23.1631 202.814 23.1631Z" stroke="black" stroke-width="2"/>
<path d="M209.283 28.2988H244.008" stroke="#060606" stroke-width="0.76" stroke-miterlimit="10"/>
<path d="M209.283 32.4326H224.768" stroke="#060606" stroke-width="0.76" stroke-miterlimit="10"/>
<path d="M207.652 38.9385V45.6472L216.087 38.9385H207.652Z" fill="#060606"/>
<path d="M304.481 87.7547C316.668 84.9091 324.241 72.7204 321.396 60.5304C318.551 48.3405 306.366 40.7655 294.179 43.6112C281.992 46.4568 274.42 58.6456 277.264 70.8355C280.109 83.0254 292.295 90.6004 304.481 87.7547Z" fill="white"/>
<path d="M301.814 65.0333L298.077 63.6052C297.757 63.4838 297.481 63.2679 297.286 62.9861C297.09 62.7043 296.985 62.3699 296.984 62.0272C296.984 61.5891 297.155 61.1682 297.46 60.8547C297.618 60.6969 297.807 60.5732 298.015 60.4913C298.222 60.4094 298.445 60.371 298.668 60.3786H300.131C300.492 60.3725 300.845 60.4859 301.135 60.7011C301.425 60.9163 301.636 61.2213 301.735 61.5687C301.79 61.7593 301.881 61.9372 302.005 62.0923C302.129 62.2473 302.282 62.3764 302.455 62.4722C302.629 62.568 302.819 62.6287 303.016 62.6506C303.214 62.6726 303.413 62.6554 303.603 62.6002C303.796 62.5486 303.976 62.4587 304.133 62.3358C304.29 62.213 304.42 62.0597 304.517 61.8852C304.613 61.7107 304.673 61.5185 304.693 61.3203C304.713 61.122 304.693 60.9216 304.634 60.7312C304.393 59.8778 303.913 59.111 303.251 58.5208C302.589 57.9306 301.773 57.5414 300.898 57.3989V56.1559C300.913 55.9488 300.886 55.7407 300.818 55.5446C300.75 55.3485 300.642 55.1686 300.501 55.0163C300.359 54.8639 300.188 54.7424 299.998 54.6592C299.808 54.5761 299.603 54.5332 299.395 54.5332C299.187 54.5332 298.982 54.5761 298.792 54.6592C298.601 54.7424 298.43 54.8639 298.289 55.0163C298.148 55.1686 298.04 55.3485 297.972 55.5446C297.903 55.7407 297.876 55.9488 297.892 56.1559V57.4342C296.943 57.5993 296.066 58.0445 295.372 58.7124C294.823 59.2636 294.42 59.9434 294.201 60.6899C293.982 61.4364 293.952 62.2259 294.116 62.9866C294.28 63.7472 294.632 64.4547 295.139 65.0447C295.646 65.6347 296.292 66.0884 297.02 66.3645L300.748 67.7926C301.117 67.9302 301.427 68.1931 301.622 68.5355C301.818 68.8779 301.887 69.2781 301.818 69.6663C301.749 70.0546 301.545 70.4061 301.243 70.6598C300.942 70.9135 300.56 71.0531 300.166 71.0544H298.738C298.374 71.0584 298.019 70.9423 297.727 70.724C297.436 70.5056 297.224 70.1973 297.125 69.8467C297.009 69.4633 296.744 69.1419 296.391 68.9535C296.037 68.765 295.623 68.7248 295.239 68.8417C294.856 68.9586 294.535 69.223 294.346 69.5768C294.158 69.9306 294.118 70.3448 294.235 70.7283C294.474 71.5752 294.948 72.3374 295.601 72.9269C296.254 73.5165 297.061 73.9094 297.928 74.0606V75.3036C297.957 75.6824 298.127 76.0362 298.406 76.2944C298.685 76.5525 299.05 76.6959 299.43 76.6959C299.81 76.6959 300.176 76.5525 300.454 76.2944C300.733 76.0362 300.904 75.6824 300.933 75.3036V74.0606C301.943 73.8827 302.868 73.3787 303.565 72.6257C304.262 71.8727 304.694 70.912 304.794 69.8905C304.894 68.8691 304.657 67.8429 304.118 66.969C303.58 66.0951 302.771 65.4214 301.814 65.0509V65.0333Z" fill="#020113"/>
<path d="M134.736 36.788L134.736 36.796C134.74 37.2442 134.655 37.6886 134.487 38.1039C134.318 38.5192 134.07 38.8972 133.755 39.2162C133.441 39.5353 133.066 39.7892 132.654 39.9633C132.242 40.1371 131.8 40.2281 131.353 40.2311H98.0591C96.7723 40.2311 95.5382 39.7198 94.6282 38.8096C93.7183 37.8994 93.207 36.6648 93.207 35.3775V4.40786C93.207 3.50396 93.566 2.63712 94.2049 1.99804C94.8438 1.35897 95.7103 1 96.6137 1H131.329C132.233 1 133.099 1.35898 133.738 1.99804C134.377 2.63711 134.736 3.50394 134.736 4.40786L134.736 36.788Z" stroke="black" stroke-width="2"/>
<path d="M110.838 28.1311C114.09 28.184 117.378 28.2281 120.365 28.0165C121.308 27.9548 122.128 26.4473 120.974 25.9801C121.486 25.7991 121.911 25.4305 122.163 24.9486C122.215 24.8231 122.241 24.6887 122.24 24.553C122.239 24.4174 122.211 24.2834 122.157 24.1587C122.104 24.034 122.027 23.9211 121.929 23.8267C121.832 23.7323 121.717 23.6581 121.591 23.6086C122.71 23.8819 123.159 22.1012 122.278 21.5193C122.764 21.1377 123.1 20.5981 123.23 19.9942C123.285 19.6926 123.249 19.3814 123.127 19.1004C123.004 18.8193 122.801 18.5811 122.542 18.4162C122.172 18.2604 121.771 18.1911 121.37 18.2134H117.316C117.686 16.0976 117.792 13.8056 116.726 11.9366C116.399 11.3812 115.527 10.7112 114.839 11.1344C114.152 11.5575 114.372 12.5449 114.408 13.1796C114.454 14.5009 114.134 15.8093 113.482 16.9594C112.83 18.1095 111.872 19.0562 110.715 19.6945C110.715 19.6945 110.873 25.266 110.838 28.1311Z" fill="#020113"/>
<path d="M109.666 19.668H104.757V28.1222H109.666V19.668Z" fill="#020113"/>
<path d="M17.8923 101.306H86.2222C87.7578 101.306 89.0031 102.551 89.0031 104.088V157.546C89.0031 159.083 87.7578 160.328 86.2222 160.328H17.8923C16.3566 160.328 15.1113 159.083 15.1113 157.546V104.088C15.1113 102.551 16.3566 101.306 17.8923 101.306Z" stroke="black" stroke-width="2"/>
<path d="M63.7393 114.975H56.5476C56.5476 116.296 56.023 117.563 55.0892 118.497C54.1553 119.431 52.8887 119.955 51.5681 119.955C50.2474 119.955 48.9809 119.431 48.047 118.497C47.1132 117.563 46.5885 116.296 46.5885 114.975H39.3968L29.7021 127.978L40.2077 133.92V148.448H62.8932V133.92L73.3988 127.978L63.7393 114.975Z" fill="#020113"/>
<path d="M40.2344 133.919V127.978" stroke="black" stroke-width="0.68" stroke-linecap="round" stroke-linejoin="round"/>
<path d="M62.8848 133.919V127.978" stroke="black" stroke-width="0.68" stroke-linecap="round" stroke-linejoin="round"/>
<path d="M53.1279 173.661L59.6763 191.645L62.6552 187.096L69.0801 194.061L73.5485 189.856L66.5595 183.023L71.2482 179.665L53.1279 173.661Z" fill="#FBFBF1"/>
<path d="M204.039 165.365C204.039 165.365 226.822 173.987 246.026 184.028C252.257 187.281 253.658 195.682 249.701 201.483C248.095 203.834 245.726 205.557 242.996 206.36C240.265 207.163 237.341 206.998 234.718 205.891L190.925 187.325L204.039 165.365Z" fill="#B96B4A"/>
<path d="M180.64 162.403C180.64 162.403 184.042 144.983 222.794 168.345L209.283 201.545C209.283 201.545 170.848 185.28 180.64 162.403Z" fill="#FDFFF8"/>
<path d="M250.168 200.682L276.335 149.55L264.569 142.242C264.569 142.242 247.709 167.27 233.053 183.729L250.168 200.682Z" fill="#B96B4A"/>
<path d="M265.301 138.451L254.787 106.618C254.634 106.145 254.674 105.632 254.899 105.189C255.123 104.746 255.514 104.41 255.985 104.255L273.004 98.7189C273.479 98.5659 273.994 98.6071 274.439 98.8334C274.883 99.0597 275.219 99.4528 275.375 99.9267L285.889 131.751C286.042 132.226 286.001 132.742 285.775 133.186C285.548 133.631 285.155 133.967 284.682 134.123L267.663 139.659C267.19 139.812 266.675 139.77 266.232 139.544C265.789 139.318 265.455 138.925 265.301 138.451Z" fill="#060606"/>
<path d="M277.833 123.72L270.817 102.677L271.822 102.351L278.829 123.394L277.833 123.72Z" fill="#FDFFF8"/>
<path d="M265.592 113.079L262.798 104.986L263.794 104.66L266.588 112.753L265.592 113.079Z" fill="#FDFFF8"/>
<path d="M269.605 119.95L267.49 113.468L266.486 113.796L268.6 120.278L269.605 119.95Z" fill="#FDFFF8"/>
<path d="M273.984 135.411L269.434 121.419L268.428 121.746L272.978 135.738L273.984 135.411Z" fill="#FDFFF8"/>
<path d="M264.411 119.039L259.978 105.903L260.973 105.577L265.415 118.713L264.411 119.039Z" fill="#FDFFF8"/>
<path d="M266.921 123.264L265.765 119.71L264.759 120.037L265.915 123.592L266.921 123.264Z" fill="#FDFFF8"/>
<path d="M261.837 146.2L256.223 133.294C255.747 131.681 255.642 129.981 255.915 128.322L257.624 118.034C257.677 117.754 257.797 117.492 257.974 117.268C258.15 117.045 258.378 116.868 258.638 116.752C258.897 116.635 259.181 116.584 259.465 116.602C259.749 116.619 260.025 116.705 260.268 116.853C261.758 117.84 263.203 120.255 262.084 126.1L265.354 133.012L271.461 130.64L270.809 128.26C270.619 127.544 270.707 126.782 271.056 126.128C271.404 125.474 271.986 124.976 272.686 124.734L282.117 121.516L279.94 115.345C279.692 114.637 279.637 113.876 279.781 113.14C279.925 112.404 280.263 111.719 280.76 111.158L281.112 110.752C281.313 110.528 281.57 110.362 281.856 110.269C282.143 110.177 282.448 110.163 282.742 110.227C283.036 110.292 283.308 110.433 283.529 110.637C283.751 110.84 283.914 111.099 284.003 111.387L288.277 125.492C288.832 127.339 288.951 129.29 288.626 131.192C288.3 133.093 287.538 134.893 286.4 136.45L275.613 151.234L261.837 146.2Z" fill="#B96B4A"/>
<path d="M271.506 130.667L273.198 134.996C273.438 135.616 273.894 136.128 274.482 136.437C275.07 136.747 275.751 136.833 276.397 136.679L281.104 135.56" stroke="black" stroke-width="0.77" stroke-linecap="round" stroke-linejoin="round"/>
<path d="M282.117 121.516C283.259 121.172 284.461 121.076 285.643 121.234" stroke="black" stroke-width="0.77" stroke-linecap="round" stroke-linejoin="round"/>
<path d="M159.788 142.497L119.952 159.088C116.902 160.314 116.047 166.511 116.964 169.667L132.299 248.03H189.454L203.026 166.705C203.908 163.479 203.326 158.938 200.171 157.81L159.788 142.497Z" fill="#FDFFF8"/>
<path d="M140.583 150.441C140.583 150.441 152.578 156.929 171.826 169.121L179.97 150.176L159.206 142.304L140.583 150.441Z" fill="#B96B4A"/>
<path d="M196.671 171.175C201.122 178.659 198.081 196.546 198.081 196.546" stroke="black" stroke-width="0.68" stroke-linecap="round" stroke-linejoin="round"/>
<path d="M102.202 184.521C102.202 184.521 91.7136 215.764 89.9598 237.363C89.3957 244.371 95.7414 250.04 102.766 249.784C105.618 249.682 108.347 248.594 110.488 246.706C112.628 244.817 114.048 242.244 114.505 239.426L127.76 185.103L102.202 184.521Z" fill="#B96B4A"/>
<path d="M124.861 158.189C124.861 158.189 101.488 158.489 93.2646 198.689L130.404 203.696C130.404 203.696 148.648 165.436 124.861 158.189Z" fill="#FDFFF8"/>
<path d="M123.68 202.982L129.197 203.414C129.197 203.414 132.185 196.926 134.89 189.547" stroke="black" stroke-width="0.68" stroke-linecap="round" stroke-linejoin="round"/>
<path d="M170.108 236.808L189.639 227.525C190.659 227.126 191.759 226.976 192.848 227.086C193.938 227.196 194.986 227.564 195.905 228.16L217.471 242.133C217.745 242.314 217.969 242.56 218.122 242.85C218.276 243.139 218.356 243.463 218.353 243.79C218.354 244.049 218.304 244.306 218.206 244.545C218.107 244.785 217.963 245.003 217.78 245.186C217.597 245.37 217.38 245.515 217.141 245.615C216.902 245.714 216.646 245.765 216.387 245.765H197.509C195.557 245.766 193.626 245.358 191.842 244.566L185.232 245.448C185.232 245.448 181.134 251.531 164.812 248.789L170.108 236.808Z" fill="#B96B4A"/>
<path d="M102.73 249.784L167.341 249.167L172.497 236.702C172.497 236.702 131.127 232.065 109.746 226.749L102.73 249.784Z" fill="#B96B4A"/>
<path d="M117.157 228.433L108.476 226.749" stroke="black" stroke-width="0.68" stroke-linecap="round" stroke-linejoin="round"/>
<path d="M202.32 83.0882C203.836 70.6492 196.407 63.4996 189.55 62.4329C182.693 61.3662 182.323 51.713 175.449 51.7659C174.726 51.7452 174.007 51.8678 173.332 52.1265C172.658 52.3852 172.041 52.775 171.518 53.2734C169.825 52.2382 167.859 51.7374 165.877 51.8364C156.103 51.907 155.213 57.0642 145.43 58.2631C135.647 59.462 124.278 69.0359 125.706 81.5895C127.539 97.784 100.544 99.1769 110.477 117.575C116.646 129.036 130.13 118.457 136.961 124.875C140.202 127.946 144.243 130.04 148.621 130.918C152.998 131.796 157.534 131.422 161.708 129.838L163.683 131.31C163.683 131.31 181.204 135.357 189.1 124.478C193.807 118.007 203.202 127.687 209.821 118.554C218.749 106.318 200.805 95.5272 202.32 83.0882Z" fill="#060606"/>
<path d="M176.347 105.419C176.347 110.32 180.313 113.512 185.205 113.503C190.096 113.494 194.018 108.443 194.018 103.541C194.018 98.6394 190.079 96.4884 185.205 96.4884C184.034 96.4824 182.874 96.7099 181.792 97.1574C180.71 97.605 179.728 98.2637 178.903 99.0951C178.079 99.9265 177.428 100.914 176.989 102C176.55 103.085 176.332 104.248 176.347 105.419Z" fill="#A95739"/>
<path d="M190.335 120.828C190.388 127.757 186.351 132.562 181.319 132.606C176.286 132.65 172.179 127.889 172.126 120.96C172.074 114.031 176.11 108.38 181.143 108.345C186.175 108.31 190.335 113.89 190.335 120.828Z" stroke="#F8F0BB" stroke-width="0.81" stroke-miterlimit="10"/>
<path d="M129.469 82.6037C128.87 97.9959 147.448 115.222 162.079 113.573C177.396 111.863 190.458 102.183 191.057 86.7824C191.226 81.1212 189.815 75.525 186.982 70.6214C184.148 65.7178 180.005 61.701 175.017 59.0216C171.684 57.277 168.005 56.2925 164.247 56.1389C148.841 55.5394 130.157 65.0957 129.469 82.6037Z" fill="#060606"/>
<path d="M157.602 110.514L149.758 150.784L170.786 156.964L171.289 117.178L157.602 110.514Z" fill="#B96B4A"/>
<path d="M171.069 136.503C171.069 136.503 159.153 132.095 152.12 115.486L171.227 122.142L171.069 136.503Z" fill="#A95739"/>
<path d="M173.818 63.6757C173.818 63.6757 193.208 65.0509 190.793 90.0347C188.378 115.018 185.091 121.551 174.664 126.417C165.296 130.825 153.706 126.109 147.449 115.204C144.866 110.403 143.362 105.095 143.042 99.6527L141.773 93.0585C141.773 93.0585 135.057 60.2199 173.818 63.6757Z" fill="#B96B4A"/>
<path d="M176.815 103.973L178.234 107.975L175.758 109.218" stroke="black" stroke-width="0.8" stroke-linecap="round" stroke-linejoin="round"/>
<path d="M163.709 95.1923C163.709 95.1923 169.984 94.8662 170.345 97.6607C170.707 100.455 163.295 100.226 163.295 100.226C163.295 100.226 156.843 100.658 156.623 98.031C156.403 95.4039 163.709 95.1923 163.709 95.1923Z" fill="white"/>
<path d="M160.669 97.8372C160.775 99.5386 162.581 100.843 164.714 100.746C166.847 100.649 168.486 99.2036 168.389 97.4934C168.292 95.7831 166.468 94.4872 164.344 94.5842C162.22 94.6812 160.563 96.127 160.669 97.8372Z" fill="#060606"/>
<path d="M183.98 96.5233C183.98 96.5233 179.494 96.0914 179.124 98.5509C178.754 101.011 184.059 101.108 184.059 101.108C184.059 101.108 188.686 101.495 188.951 99.1857C189.215 96.876 183.98 96.5233 183.98 96.5233Z" fill="white"/>
<path d="M186.968 98.9652C186.864 99.7124 186.472 100.389 185.876 100.851C185.28 101.312 184.526 101.521 183.777 101.434C183.034 101.388 182.338 101.05 181.843 100.494C181.347 99.937 181.092 99.2069 181.133 98.4628C181.234 97.7152 181.626 97.0377 182.223 96.5772C182.82 96.1168 183.575 95.9105 184.324 96.0032C184.692 96.0234 185.052 96.1162 185.385 96.2761C185.717 96.4361 186.015 96.6601 186.26 96.9352C186.506 97.2104 186.695 97.5314 186.816 97.8797C186.938 98.2281 186.989 98.597 186.968 98.9652Z" fill="#060606"/>
<path d="M158.272 89.2415L167.967 88.3599C168.259 88.3601 168.548 88.3015 168.816 88.1877C169.085 88.0739 169.328 87.9072 169.532 87.6974C169.735 87.4877 169.893 87.2393 169.999 86.9669C170.104 86.6945 170.153 86.4038 170.144 86.1119C170.014 85.5303 169.67 85.0191 169.18 84.6807C168.689 84.3423 168.089 84.2017 167.5 84.2871L157.805 85.1687C157.514 85.1673 157.225 85.2248 156.956 85.3376C156.687 85.4505 156.444 85.6164 156.241 85.8254C156.037 86.0344 155.878 86.2823 155.773 86.5542C155.668 86.8261 155.619 87.1164 155.628 87.4078C155.754 87.9921 156.097 88.5067 156.588 88.8473C157.079 89.1878 157.681 89.3287 158.272 89.2415Z" fill="#060606"/>
<path d="M188.395 89.9735L181.935 89.0919C181.646 89.0751 181.364 88.9988 181.106 88.8676C180.848 88.7365 180.62 88.5534 180.436 88.3298C180.253 88.1063 180.117 87.8471 180.038 87.5686C179.959 87.2902 179.939 86.9984 179.979 86.7117C180.162 86.1351 180.553 85.6473 181.076 85.3427C181.599 85.0381 182.216 84.9385 182.808 85.0631L189.277 85.9447C189.565 85.9616 189.846 86.0377 190.103 86.1683C190.361 86.2989 190.588 86.4812 190.772 86.7038C190.955 86.9263 191.091 87.1844 191.171 87.4618C191.25 87.7392 191.271 88.0301 191.233 88.3161C191.05 88.895 190.658 89.385 190.133 89.6913C189.609 89.9975 188.99 90.0981 188.395 89.9735Z" fill="#060606"/>
<path d="M180.93 112.7C180.93 112.7 179.855 116.729 174.664 116.712C168.037 116.712 167.525 112.621 167.525 112.621C171.951 113.47 176.495 113.497 180.93 112.7Z" fill="#C10006"/>
<path d="M175.353 112.586C175.353 112.586 174.26 111.149 171.642 112.004C170.297 112.371 168.912 112.572 167.518 112.604C167.518 112.604 170.162 113.82 175.282 113.961C179.98 114.093 180.923 112.683 180.923 112.683C180.176 112.539 179.437 112.353 178.711 112.127C178.169 111.86 177.56 111.76 176.961 111.842C176.363 111.923 175.803 112.183 175.353 112.586Z" fill="#AF0D16"/>
<path d="M176.903 63.7377C140.045 54.6663 134.237 80.0644 136.361 87.69C138.485 95.3156 145.58 105.321 145.58 105.321C145.58 105.321 149.009 94.3723 148.268 85.2304C151.591 82.1361 156.341 78.4246 161.55 77.067C169.244 75.0659 173.228 72.3682 175.211 69.7588C176.777 72.2057 179.14 74.0367 181.9 74.9424C191.216 78.4687 191.057 86.7908 191.057 86.7908C191.057 86.7908 193.569 65.2275 176.903 63.7377Z" fill="#060606"/>
<path d="M148.031 106.961C146.797 111.695 144.409 113.423 138.178 111.907C133.418 110.752 130.845 104.783 132.132 100.058C133.233 95.9854 137.323 94.3456 142.232 96.1176C145.66 97.343 149.274 102.218 148.031 106.961Z" fill="#B96B4A"/>
<path d="M152.437 121.939C152.199 128.569 148.03 132.976 142.954 133.056C137.666 133.056 133.374 128.339 133.321 121.41C133.268 114.481 137.498 108.83 142.778 108.795" stroke="#F8F0BB" stroke-width="0.83" stroke-linecap="round" stroke-linejoin="round"/>
<path d="M137.701 101.134C137.701 101.134 141.614 101.389 143.668 106.6" stroke="black" stroke-width="0.8" stroke-linecap="round" stroke-linejoin="round"/>
<path d="M191.842 249.194L214.034 180.669C214.632 179.101 215.692 177.751 217.074 176.799C218.455 175.847 220.094 175.336 221.772 175.336H313.484C314.089 175.336 314.685 175.483 315.221 175.765C315.757 176.046 316.216 176.454 316.559 176.954C316.902 177.453 317.118 178.028 317.188 178.629C317.259 179.23 317.182 179.84 316.965 180.405L296.448 244.575C295.927 245.934 295.006 247.103 293.807 247.928C292.608 248.753 291.187 249.194 289.732 249.194H191.842Z" fill="#020113"/>
<path d="M150.587 242.776H197.095V249.194H144.215C144.212 247.499 144.882 245.872 146.076 244.669C147.27 243.466 148.892 242.786 150.587 242.776Z" fill="#020113"/>
<path d="M256.981 210.554C255.218 214.486 256.188 218.797 259.228 220.181C262.269 221.565 266.182 219.502 267.971 215.571C269.76 211.639 268.764 207.328 265.733 205.935C262.701 204.542 258.779 206.623 256.981 210.554Z" fill="#027BFE"/>
<path d="M0.521484 249.521H332" stroke="black" stroke-width="0.77" stroke-linecap="round" stroke-linejoin="round"/>
</svg>
